<svg xmlns="http://www.w3.org/2000/svg" viewBox="0 0 100 100">
  <path d="M50.4,43.4c1.3-10.5,7.1-15.8,17.4-15.8h3.1c9,0,13.6,4.1,13.6,12.4s0,2.1-.2,3.3l-.7,5.5c-1.3,10.5-7.1,15.8-17.4,15.8h-3.1c-9,0-13.6-4.1-13.6-12.4s0-2.1.2-3.3l.7-5.5ZM67.1,57.6c5.2,0,8.2-2.9,8.9-8.6l.7-5.9c0-.9.1-1.5.1-1.8,0-4.5-2.3-6.7-6.8-6.7h-3.1c-5.2,0-8.2,2.9-8.9,8.6l-.7,5.9c0,.9-.1,1.5-.1,1.8,0,4.5,2.3,6.7,6.8,6.7h3.1ZM82.2,14.4c-.5,2.9-3.1,5.1-6.1,5-4.5-.1-7.5-.2-9.1-.2-7.7,0-13.4,1.8-17.2,5.5-3.8,3.7-6.2,9.7-7.2,18l-6.5,52c-.4,3-2.9,5.2-5.9,5.2h-8.6c-3.6,0-6.4-3.1-5.9-6.7l6.2-50c1.8-15.2,6.4-26.2,13.7-33C42.9,3.4,54.1,0,69.3,0s5.9,0,8.5.1c3.6.1,6.3,3.4,5.7,7l-1.2,7.3Z" fill="#2c8b30"/>
</svg>