<svg xmlns="http://www.w3.org/2000/svg" viewBox="0 0 100 100">
  <path d="M46.2,80.1l-24.2-14v-32.3l-9.4-5.4v43.1l24.2,14,9.4-5.4Z" fill="#0854c1"/>
  <path d="M78,66.1l-28,16.1-9.4,5.4,9.4,5.4,37.3-21.5-9.4-5.4Z" fill="#005eeb"/>
  <path d="M50,17.7l9.4-5.4-9.4-5.4L12.7,28.4l9.4,5.4,27.9-16.1h0Z" fill="#005eeb"/>
  <path d="M63.1,14.5l-9.4,5.4,24.2,14v32.3l9.4,5.4V28.4l-24.2-14Z" fill="#0854c1"/>
  <path d="M50,1.3l42.1,24.3v48.7l-42.1,24.3L7.9,74.3V25.6L50,1.3ZM50,0L6.7,25v50l43.3,25,43.3-25V25L50,0Z" fill="#005eeb"/>
  <path d="M51.4,26.7l2.9,1.7v43.8l-2.9,1.7V26.7Z" fill="#0854c1"/>
  <path d="M51.4,26.7l-14.1,8.1v5.5h5v28.3l9.1,5.3V26.7Z" fill="#005eeb"/>
</svg>