<svg xmlns="http://www.w3.org/2000/svg" viewBox="0 0 100 100">
  <path d="M68.3,18.4c.9-.2.6,0,.9.5,2.4,4.4,3.7,9.3,8.7,11.9.2-8.2-2.3-16.2-5.2-23.7,32.4-4.1,37.3,42.5,7.4,49.4l-11.6,12c-.4,0-3.1-6.9-3-7.8.2-2.4,5.5-8.5,5.2-10.4s-2.3-3.6-2.9-4.8c-4.4-8.8-4.1-18.7.6-27.2ZM19.9,56.5l11.8,12.1,2.8-7.8-5.5-10.1c6.1-8.3,8.2-18.8,4.4-28.6l-2.5-4.1c.5,2.3-7.4,14.1-9.2,12.4.5-4.8,1-9.3,2.3-14s3.3-9,2.9-9.3C-5.2,3.1-9.9,50.1,19.9,56.5ZM40.3,57.6c-1.1,1.6-2,4.2-2.8,6.1-2.3,5.4-4.2,11.1-6,16.7.2,1.1.7,1.8,1.5,2.4,2.7,2.3,11.5,7.8,14.7,9.4s1.4.9,2.3.9,1.6-.5,2.3-.9c3.3-1.7,11.7-6.9,14.5-9.2s1.7-1.3,1.9-2.6l-8.5-22.4c-2-2.7-5-4-7.6-6.1l-2.8-3.4c-1.4,4.6-7.1,5.5-9.6,9.1ZM57,43.9c-2.1,0-3.8,1.7-3.8,3.8s1.7,3.8,3.8,3.8,3.8-1.7,3.8-3.8-1.7-3.8-3.8-3.8ZM43.3,43.9c-2.1,0-3.8,1.7-3.8,3.8s1.7,3.8,3.8,3.8,3.8-1.7,3.8-3.8-1.7-3.8-3.8-3.8Z" fill="#db2d07"/>
</svg>