<svg xmlns="http://www.w3.org/2000/svg" viewBox="0 0 128 128"><path d="M70.1,125.2c3,.9,2.9,2.8-.4,2.8-35.7,0-64.7-28.7-64.7-64S34,0,69.7,0s4,1.8,1.3,2.6c-26.9,7.8-46.5,32.3-46.5,61.4s19.2,53.1,45.6,61.2ZM36.7,79c-.2-1.7-.2-3.4-.2-5.2,0-28,22.8-50.8,50.9-50.8s34.6,11.8,35.6,11.1c1.1-.9-9.7-24.4-40.9-24.4S31.1,32.4,31.1,60.5s1.2,12.7,3.5,18.4c.9,2.4,2.4,2.4,2.1,0h0ZM58,42.4c13.2-5.8,29.9-5.9,46.2-.2,11,3.8,17.3,9.3,17.8,9,.9-.4-6.4-11.8-19.5-16.8-15.8-6-33-2.9-45.4,6.9-1.3,1.1-.8,1.8.8,1.1h0Z" fill="#00afeb"/></svg>