<svg xmlns="http://www.w3.org/2000/svg" viewBox="0 0 100 100">
  <rect x="33.4" y="45.9" width="33.4" height="7.6" fill="#ff6a00"/>
  <path d="M83.4,18.5h-22l5.4,7.6,15.9,5.1c2.9,1,4.8,3.8,4.8,6.7v24.2c0,2.9-1.9,5.7-4.8,6.7l-15.9,5.1-5.4,7.6h22c9.2,0,16.6-7.3,16.6-16.6v-29.6c0-9.2-7.3-16.9-16.6-16.9Z" fill="#ff6a00"/>
  <path d="M17.2,68.8c-2.9-1-4.8-3.8-4.8-6.7v-24.2c0-2.9,1.9-5.7,4.8-6.7l15.9-5.1,5.4-7.6h-22C7.3,18.5,0,26.1,0,35.4v29.3c0,9.2,7.3,16.6,16.6,16.6h22l-5.4-7.6s-15.9-4.8-15.9-4.8Z" fill="#ff6a00"/>
</svg>