<svg xmlns="http://www.w3.org/2000/svg" viewBox="0 0 100 100">
  <path d="M91.9,56.3c4.3-.3,7.7,2.5,8,6.7.3,4.4-2.8,8-7,8.4-4.1.3-7.7-2.8-8-6.9-.3-4.4,2.6-7.7,7-8.2Z" fill="#86da2f"/>
  <path d="M40.2,91.2c0-4.3,3.3-7.5,7.2-7.5s7.7,3.6,7.7,7.7-3.3,7.4-7,7.5c-4.8,0-7.9-2.9-7.9-7.7Z" fill="#24c2ff"/>
  <path d="M51.8,43.4c-.7.3-1-.2-1.1-.7-6.1-11.3-4.3-25.6,6.4-34.1,2.8-2.3,8-2.8,10.3-.5,1,.8,1.1,1.8,1.3,2.9.3,2.5.8,4.9,2.5,6.9,1.8,2.1,4.1,2.9,6.7,2.8,2.3,0,4.6-.3,6.1,2.3.8,1.5.5,7.2-.8,8.4-.7.5-1.1.2-1.6,0-3.8-1.5-7.7-1.5-11.6-.8-1.3.2-2-.2-2-1.6-.2-2.5-.7-4.8-2-6.9-2.5-4.4-7-4.6-10-.5-2.5,3.3-3.1,7.2-3.8,11.1-.7,3.4-.5,7-.3,10.7,0,0-.2,0,0,0Z" fill="#ffcb12"/>
  <path d="M55.9,45.8c-.3-.5-.2-1,.3-1.3,9.3-8.5,23.3-10.2,34.1-1.8,2.8,2.3,4.6,7,3.1,9.8-.7,1.1-1.5,1.6-2.5,2-2.3,1-4.4,2-5.9,4.1-1.5,2.1-1.8,4.6-1.1,7.2.5,2.1,1.3,4.4-.8,6.4-1.1,1.1-6.7,2.1-8.2,1.1-.7-.5-.5-1-.3-1.6.5-4.1-.5-7.9-2-11.5-.5-1.3-.3-2,1-2.3,2.3-.7,4.4-1.8,6.1-3.4,3.6-3.4,2.8-7.9-2-9.8-3.8-1.6-7.7-1.3-11.5-1-3.6.2-7,1.1-10.3,2.1Z" fill="#86da2f"/>
  <path d="M53.8,50.1c.5-.5.8-.3,1.3,0,10.8,6.6,16.4,19.5,11.5,32.1-1.3,3.3-5.6,6.6-8.7,5.7-1.3-.3-2-1-2.6-1.8-1.5-2-3.1-3.8-5.6-4.6-2.6-.8-4.9-.3-7.2,1-2,1.1-3.9,2.6-6.4,1.1-1.5-.8-3.9-5.9-3.4-7.5.3-.7,1-.7,1.6-.7,4.1-.7,7.4-2.6,10.5-5.2,1-.8,1.8-.8,2.6.3,1.3,2,2.9,3.6,5.1,4.8,4.3,2.5,8.4.3,8.8-4.6.5-4.1-1-7.7-2.3-11.3-1.5-3.3-3.3-6.4-5.2-9.3Z" fill="#24c2ff"/>
  <path d="M48.5,51.1c-.7,3.3-2.1,6.4-4.1,9.2-5.9,8.8-14.4,12.5-24.9,11.5-3.8-.3-6.9-3.4-7.2-6.6-.2-1.3.2-2.3,1-3.3,1.1-1.5,2.1-2.8,2.6-4.6,1-3.6-.3-6.6-2.9-9.2-3.6-3.6-3.1-6.9,1.1-9.5.5-.3,1.1-.7,1.8-1,1-.5,1.8-.5,2.1.7,1.5,3.8,4.4,6.6,7.7,8.8,1.1,1,1.1,1.6.2,2.8-2,2.1-3.1,4.8-3.3,7.7-.3,3.6,1.8,5.9,5.4,5.9s4.4-.8,6.4-1.8c5.1-2.6,9-6.4,12.8-10.3.5-.2.7-.5,1.3-.3Z" fill="#0069da"/>
  <path d="M21.7,16.7c.3,0,1.1.2,2,.3,6.1,1.1,9.8-1,11.8-6.7,1.3-3.8,4.1-4.9,7.7-2.9.2,0,.2.2.3.2,3.8,2.1,3.8,2.5,1.5,5.7-2,2.6-2.9,5.6-3.4,8.7-.3,1.8-1,2.1-2.6,1.5-2.6-1-5.4-1-8.2,0-3.1,1-4.4,3.8-3.4,6.9,1.3,4.1,4.9,5.9,8,8s6.7,3.3,10.2,4.8c.5.2,1.3.2,1.1,1-.2.5-.8.5-1.5.5-7.4.3-14.4-.8-20.2-5.7-5.4-4.4-9.3-9.8-8.7-17.4.5-2.5,2.3-4.3,5.4-4.8Z" fill="#ff4649"/>
  <path d="M8.2,62.7c-3.9.5-7.9-2.8-8.2-6.9-.3-3.9,2.9-7.9,6.7-8.2,4.3-.5,8.2,2.5,8.5,6.4.2,3.8-2.3,8.4-7,8.7Z" fill="#0069da"/>
  <path d="M77,4.4c4.1-.3,8,2.9,8.4,7,.3,3.9-2.9,7.7-6.9,8-4.3.3-8-2.8-8.4-6.9-.3-4.1,2.6-7.9,6.9-8.2Z" fill="#ffcb12"/>
  <path d="M34.3,7.5c.5,4.3-2.5,7.9-6.9,8.5-3.8.5-7.7-2.6-8.2-6.2-.5-4.8,2.1-8.2,6.6-8.7,4.1-.5,8,2.6,8.5,6.4Z" fill="#ff4649"/>
</svg>