<svg xmlns="http://www.w3.org/2000/svg" viewBox="0 0 100 100">
  <path d="M36.3,60.6v-10.5l-7.6,7.6c.8.6,1.6,1,2.3,1.4.7.4,1.4.7,2,.9.6.2,1.2.4,1.8.5.5,0,1,.1,1.5.1M75.1,59.8s0,0,.2.2c.1,0,.3.2.6.3.3.1.6.2,1,.3.4,0,.9.1,1.4.1s.9,0,1.5-.1c.5,0,1.1-.2,1.8-.5.6-.2,1.3-.5,2.1-.9.7-.4,1.5-.9,2.3-1.4l-5.8-5.6-19.1-19.2-8.4,8.4-11.3-11.6-28.3,28c.8.6,1.6,1.1,2.3,1.4.7.4,1.4.7,2.1.9.6.2,1.2.4,1.8.5.5,0,1,.1,1.5.1s1,0,1.4-.1c.4,0,.7-.2,1-.3.3-.1.5-.2.6-.3.1,0,.2-.1.2-.2l12.8-12.8,4.6-4.4,12.7,12.7,4.4,4.6s0,0,.2.2c.1,0,.3.2.6.3.3.1.6.2,1,.3.4,0,.9.1,1.4.1s.9,0,1.5-.1c.5,0,1.1-.2,1.8-.5.6-.2,1.3-.5,2.1-.9.7-.4,1.5-.9,2.3-1.4l-10.2-10,1.9-1.9,8.8,8.8,5.1,5.1M75,6.7l25,43.3-25,43.3H25L0,50,25,6.7s50,0,50,0Z" fill="#0d597f"/>
  <path d="M59.4,47.9l-6.7-6.6.5-.5,6.7,6.6-.5.5Z" fill="#0d597f"/>
</svg>