<svg xmlns="http://www.w3.org/2000/svg" viewBox="0 0 100 100">
  <path d="M76.7,25c-13.9,6.7-11.7,1-22.4-7.7-7.1-5.8-12.8-7-17.1-3.6-2.5,1.7-5,6.3-7.5,13.8-3.7,11.3-13.9,17.4-21.4,20s-6.4,11.8,0,16.9c6.4,5.1,12.3,1.5,12.3,14.8v.8c0,12.9.2,21.2,11.7,19.2,11.7-2,13.3-7.7,26.2-6.7,12.8,1,16.6,10.2,26.2,6.7s5.3-25.6,2.7-33.8c-2.7-8.2,1.1-5.1,7.5-22,6.4-16.9-4.3-25.1-18.2-18.4ZM57.2,41.2h0c1.8-.5,3.6.6,4,2.3l2.2,8.2c.5,1.8-.6,3.6-2.3,4-1.8.5-3.6-.6-4-2.3l-2.2-8.2c-.5-1.8.6-3.6,2.3-4ZM39.1,61.3c-1.8.5-3.6-.6-4-2.3l-1.8-6.8c-.5-1.8.6-3.6,2.3-4,1.8-.5,3.6.6,4,2.3l1.8,6.8c.5,1.8-.6,3.6-2.3,4ZM63.8,62c-1.4,3.3-3.8,5.9-7.2,7.6-3.5,1.8-7.6,2-12.2.8-1.5-.4-2.4-1.9-2-3.4.4-1.5,1.9-2.4,3.4-2,3.4.9,6,.7,8.2-.4,2.2-1.1,3.7-2.7,4.5-4.7.6-1.4,2.2-2.1,3.7-1.5,1.4.6,2.1,2.2,1.5,3.7Z" fill="#6c23ff"/>
  <path d="M81.9,10.4l-5.6-2.2c-.6-.2-1-.7-1.2-1.2l-2.2-5.6C72.5.5,71.7,0,70.9,0h0c-.8,0-1.6.5-2,1.4l-2.2,5.6c-.2.6-.7,1-1.2,1.2l-5.6,2.2c-1.8.7-1.8,3.3,0,4l5.6,2.2c.6.2,1,.7,1.2,1.2l2.2,5.6c.7,1.8,3.3,1.8,4,0l2.2-5.6c.2-.6.7-1,1.2-1.2l5.6-2.2c1.8-.7,1.8-3.3,0-4Z" fill="#ffae52"/>
</svg>