<svg xmlns="http://www.w3.org/2000/svg" viewBox="0 0 100 100">
  <path d="M100,41.4l-.2-2.8c-1-9.8-4.7-19.4-11.4-26.7-.9-1-1.8-2-3.1-2.5-2.2-.9-4.7-.6-6.5.9-6.8,6.7-13.5,13.6-20.4,20.3-1.4,1.1-2.3,1.1-4,.4-1.2-.5-2.4-1.3-3.7-1.5-.6-2.4-.6-5.1.9-7.2,3.7-4.2,9.5-7.3,8.3-13.8-.6-3.4-3.4-6.2-6.8-6.8-.2,0-.5,0-.8-.1h-1.5c-10.8.6-21.7,6.1-29.1,13.9-8.3,8.8-12.3,19.8-12.2,31.9,0,1.5.1,1.8-.5,3.2-1.2,2.6-3.5,4.8-5.1,7.1-2,2.9-3.1,5.7-3.7,9.2-2.9,19,14.1,35,32.9,30.9,6.7-1.5,12-5.8,17.9-9.1,7,.4,13.9-.5,20.5-2.8,17.5-6.3,27.8-22.1,28.4-40.5,0-1.3,0-2.6,0-4ZM77.2,71.5c-13.7,10.5-36.7,9.5-48.7-3.2-1.4-1.5-2.3-3.1-4.4-3.5-3.3-.6-6.3,2-6.1,5.4.1,1.9,1.5,3.2,2.6,4.5,4.4,4.8,10,8.5,16.1,10.9,0,0,0,0-.1.1-3,2.1-7.6,3-11.2,2.6-10.4-1.2-17.6-11.7-14.6-21.9.8-2.7,3.4-5.2,5-7.4,2.4-3.3,4.1-6.7,4-10.9,0-2.3,0-4.2.2-6.5,1.9-14.5,13.1-26.4,27.4-29.3-1.4,1.6-3.1,2.9-4.3,4.6-2.3,3.4-3.1,8-2.6,12.1-3,.5-6.1,1.3-8.7,2.9-1.8,1.1-4.2,3.2-4.7,5.3-1,4.4,3.8,7.9,7.7,5.4.7-.4.9-.8,1.4-1.4,2.3-2.4,8.5-2.8,11.5-2.2,1,.2,1.9.8,2.9,1.2,5.7,2.3,10.6,1.5,15.2-2.6l17-16.9c3,3.9,5,8.5,6.1,13.2,3.1,13.3-.5,28.9-11.7,37.4Z" fill="#2e2e2e"/>
</svg>