<svg xmlns="http://www.w3.org/2000/svg" viewBox="0 0 128 128"><path d="M122.7,45.9c-4.8-7.6-12.3-12.8-21.1-14.8-2-.4-4.1-.7-6.1-.8-10.3-12.8-25.4-20-41.8-20C24.1,10.3,0,34.4,0,64s24.1,53.7,53.7,53.7,31.6-7.3,41.8-20c5.9-.2,11.8-2,16.9-5.3,7.6-4.8,12.8-12.3,14.8-21.1,1.9-8.8.3-17.8-4.5-25.4h0ZM53.7,112.2c-26.6,0-48.2-21.6-48.2-48.2S27.1,15.8,53.7,15.8s25.9,5.4,34.9,15c-4.4.8-8.6,2.4-12.4,4.8-1.2.8-2.3,1.6-3.4,2.5-5.5-4.1-12.2-6.3-19.1-6.3-17.7,0-32.2,14.4-32.2,32.2s14.4,32.2,32.2,32.2,13.6-2.2,19.1-6.3c4.1,3.4,8.9,5.8,14.3,7,.5.1,1,.2,1.6.3-9.1,9.6-21.5,15-34.9,15h0s0,0,0,0ZM65.9,82.1c.9,1.4,1.8,2.7,2.9,3.9-4.4,3.1-9.7,4.7-15.1,4.7-14.7,0-26.7-12-26.7-26.7s12-26.7,26.7-26.7,10.7,1.7,15.1,4.7c-3.6,4.2-6.1,9.2-7.4,14.7-1.9,8.8-.3,17.8,4.5,25.4,0,0,0,0,0,0ZM121.8,70.1c-1.6,7.3-6,13.6-12.4,17.7-3.1,2-6.5,3.3-10.1,4l-23-13.6-.8,1.2,16.7,12.8c-1.3-.1-2.7-.3-4-.6-7.3-1.6-13.6-6-17.7-12.4-4-6.3-5.4-13.9-3.8-21.2,1.6-7.3,6-13.6,12.4-17.7,3.9-2.5,8.2-3.9,12.7-4.3l-16.6,12.4.8,1.3,23-13.4c.4,0,.8.2,1.2.2,7.3,1.6,13.6,6,17.7,12.4,4,6.3,5.4,13.9,3.8,21.2,0,0,0,0,0,0ZM78.5,54.3l25.5-8.7-1.8-4.3-24.3,11.7.6,1.4ZM80,59.3l26.7-3.6-.9-4.6-26.1,6.7.3,1.5ZM80.4,64.6l26.9,1.7v-4.7s-26.9,1.5-26.9,1.5v1.5ZM79.7,69.8l26.1,6.9.9-4.6-26.7-3.8-.3,1.5ZM78.1,74.8l24.2,11.9,1.8-4.3-25.4-8.9-.6,1.4Z" fill="#ffad5b"/></svg>