<svg xmlns="http://www.w3.org/2000/svg" viewBox="0 0 100 100">
  <rect width="100" height="100" fill="#f5c371"/>
  <path d="M92.1,77.5h7.9v22.5h-50v-22.5h42.1Z" fill="#33aca8"/>
  <path d="M92.1,77.6h7.9V0h-50v77.6h42.2Z" fill="#f79066"/>
  <path d="M7.8,77.6H0v22.4h50v-22.4H7.8Z" fill="#5bbe6f"/>
  <rect x="6.3" y="7.7" width="87.3" height="84.6" rx="12.2" ry="12.2" fill="#f5c371"/>
  <path d="M81.4,92.3H18.5c-6.7,0-12.2-5.5-12.2-12.2V19.9c0-6.7,5.5-12.2,12.2-12.2h62.9c6.7,0,12.2,5.5,12.2,12.2v60.1c0,6.7-5.5,12.2-12.2,12.2ZM18.5,10.4c-5.2,0-9.5,4.3-9.5,9.5v60.1c0,5.2,4.3,9.5,9.5,9.5h62.9c5.2,0,9.5-4.3,9.5-9.5V19.9c0-5.2-4.3-9.5-9.5-9.5H18.5Z" fill="#514654"/>
  <path d="M100,74.4c-.5.7-1.1,1.4-1.8,1.9-.7.5-1.3.8-1.9.8-1.1,0-2.2-.8-3.3-2.1l-.3.3v3.8c1,.7,2.2,1.2,3.6,1.2s2.7-.6,3.7-1.3v-4.5Z" fill="#514654"/>
  <path d="M6.9,75c-1.1,1.3-2.2,2.1-3.3,2.1-.5,0-1.2-.2-1.9-.8-.7-.5-1.3-1.2-1.8-1.9v4.5c1,.7,2.2,1.3,3.6,1.3s2.6-.5,3.6-1.2v-3.8l-.3-.3Z" fill="#514654"/>
  <path d="M64.7,28.1h-28c-6.2,0-11.3,5.1-11.3,11.3v19.9c0,3.3,1.4,6.2,3.6,8.3v6.4c0,1.2.7,2.3,1.8,2.9,1.1.5,2.4.4,3.4-.4l7.1-5.8h23.5c6.2,0,11.3-5.1,11.3-11.3v-19.9c0-6.2-5.1-11.3-11.3-11.3ZM64.7,64.2h-24.6c-.7,0-1.4.3-2,.7l-2.7,2.3v-1.2c0-1.1-.5-2-1.4-2.6-1.3-.9-2.2-2.4-2.2-4.1v-19.9c0-2.7,2.2-5,5-5h28c2.7,0,5,2.2,5,5v19.9c0,2.7-2.2,5-5,5Z" fill="#514654"/>
  <path d="M64.7,31.2c4.5,0,8.1,3.6,8.1,8.1v19.9c0,4.5-3.6,8.1-8.1,8.1h-24.6l-7.9,6.6v-7.9c-2.2-1.5-3.6-3.9-3.6-6.8v-19.9c0-4.5,3.6-8.1,8.1-8.1h28Z" fill="#f3e5da"/>
  <circle cx="43.6" cy="49.1" r="2.5" fill="#514654" stroke="#514654" stroke-width=".5"/>
  <circle cx="57.7" cy="49.1" r="2.5" fill="#514654" stroke="#514654" stroke-width=".5"/>
  <path d="M50,0v9.3" fill="none" stroke="#514654" stroke-width=".5"/>
  <path d="M50,91.4v8.6" fill="none" stroke="#514654" stroke-width=".5"/>
</svg>