<svg xmlns="http://www.w3.org/2000/svg" viewBox="0 0 100 100">
  <path d="M23.1,43.2c6.9-4.8,16.8-7.9,27.9-7.9s21,3.1,27.9,7.9c3.5,2.4,6.1,5.2,7.9,8q-.5-10.3,2.6-13.2c-1.4-1.3-3-2.5-4.6-3.6-8.9-6.1-20.9-9.7-33.9-9.7s-25,3.6-33.9,9.7c-8.9,6.1-15.1,15.1-15.1,25.7s6.2,19.6,15.1,25.7c8.9,6.1,20.9,9.7,33.9,9.7s25-3.6,33.9-9.7c8.9-6.1,15.1-15.1,15.1-25.7s-2.5-12.8-6.6-17.9c-.2,4.7-1.9,9.2-4.6,13.4.5,1.5.7,3,.7,4.6,0,6-3.6,12.1-10.5,16.9-6.9,4.8-16.8,7.9-27.9,7.9s-21-3.1-27.9-7.9c-6.9-4.8-10.5-10.9-10.5-16.9,0-6,3.6-12.1,10.5-16.9Z" fill="#3762ff"/>
  <path d="M12.5,47.7c-2.8,8-2.2,15.3,1.5,20.5,3.7,5.2,10.2,8.2,18.7,8.2s18.3-3.1,27.4-9.5c9.1-6.5,15.2-14.8,18-22.8,2.8-8,2.2-15.3-1.5-20.5-3.7-5.2-10.2-8.2-18.7-8.2s-18.3,3.1-27.4,9.5c-9.1,6.5-15.2,14.8-18,22.8ZM2.4,44.1c3.6-10.4,11.3-20.4,22-28,10.6-7.6,22.6-11.5,33.6-11.5s21.3,4,27.5,12.8c6.2,8.8,6.5,20,2.9,30.3-3.6,10.4-11.3,20.5-22,28-10.7,7.6-22.6,11.5-33.6,11.5-10.9,0-21.3-4-27.5-12.8-6.2-8.8-6.5-20-2.9-30.3h0Z" fill="#1041f3"/>
</svg>