<svg xmlns="http://www.w3.org/2000/svg" viewBox="0 0 100 100"><ellipse cx="50" cy="50" rx="25" ry="24.8" fill="#fff"/><path d="M50,25.2h43.3C79.5,1.5,48.9-6.6,25,7.1c-7.6,4.4-13.9,10.6-18.3,18.2l21.6,37.2h0c-6.9-11.8-2.9-27,9.1-33.8,3.8-2.2,8.1-3.3,12.6-3.3Z" fill="#da3126"/><ellipse cx="50" cy="50" rx="19.8" ry="19.6" fill="#1a73e8"/><path d="M71.6,62.4l-21.6,37.2c27.6,0,50-22.2,50-49.6,0-8.7-2.3-17.3-6.7-24.8h-43.3c13.8,0,25,11.1,25,24.7,0,4.4-1.2,8.7-3.4,12.5Z" fill="#fbbc04"/><path d="M28.4,62.4L6.7,25.2C-7.1,48.9,1.1,79.3,25,92.9c7.6,4.4,16.2,6.6,25,6.6l21.6-37.2h0c-6.9,11.8-22.1,15.9-34.1,9.1-3.8-2.2-7-5.3-9.2-9.1Z" fill="#34a853"/></svg>