<svg xmlns="http://www.w3.org/2000/svg" viewBox="0 0 100 100">
  <path d="M68.3,66.5l.5-1.3c.6-1.6.4-3-.6-4.1-.9-1-2.5-1.6-4.4-1.6l-36.1-.3c-.2,0-.4,0-.6-.2-.1-.1-.2-.3,0-.5.1-.3.5-.5.8-.5l36.4-.3c4.3-.1,9-2.8,10.6-6l2.1-4.1c0-.1,0-.2,0-.3s0-.1,0-.2c-2.3-7.9-11.8-13.9-23.1-13.9s-19.3,5-22.4,12.1c-2.1-1.1-4.7-1.8-7.5-1.6-5,.4-9,3.4-9.5,7.1-.1,1,0,1.9.3,2.8-8.2.2-14.7,5.2-14.7,11.4s0,1.1.2,1.6c0,.3.3.5.7.5h66.6s0,0,0,0c.4,0,.7-.2.8-.5Z" fill="#f6821f"/>
  <path d="M80.3,47.8c-.3,0-.7,0-1,0,0,0-.1,0-.2,0-.2,0-.3.2-.4.3l-1.4,3.7c-.6,1.6-.4,3,.6,4.1.9,1,2.5,1.6,4.4,1.6l7.7.3c.2,0,.4,0,.5.2.1.1.2.3,0,.5-.1.3-.5.5-.8.5l-8,.3c-4.3.2-9,2.8-10.7,6l-.6,1.1c-.1.2,0,.4.4.4h27.5c.3,0,.6-.2.7-.4.5-1.3.7-2.6.7-4,0-8.1-8.8-14.8-19.7-14.8Z" fill="#fbad41"/>
</svg>