<svg xmlns="http://www.w3.org/2000/svg" viewBox="0 0 100 100">
  <defs>
    <linearGradient id="gradient" x1="81" y1="121" x2="81" y2="-79" gradientTransform="translate(9.5 60.5) scale(.5 -.5)" gradientUnits="userSpaceOnUse">
      <stop offset="0" stop-color="#b1a7ff"/>
      <stop offset=".5" stop-color="#7a9dff"/>
      <stop offset="1" stop-color="#3941ff"/>
    </linearGradient>
  </defs>
  <path d="M33.7,1.9C37.7.3,42.1-.3,46.4.2c5.6.6,10.5,3,14.8,7.1,0,0,.1,0,.2.1,0,0,.2,0,.2,0,5.6-1.5,11.6-.9,16.9,1.5h.3c0,.1.6.4.6.4,5.5,2.8,9.9,7.5,12.2,13.3,1.2,2.8,1.7,5.8,1.7,8.9,0,2.3-.2,4.6-.7,6.8,0,.2,0,.5.2.6,3.3,3.4,5.5,7.4,6.6,12.1,1.6,7.9,0,15.1-4.9,21.4l-.8.9c-3.2,3.7-7.5,6.4-12.2,7.7-.2,0-.4.2-.4.4-1.1,3.1-2.1,5.7-4.1,8.3-5,6.6-12.3,10.3-20.6,10.2-6.6,0-12.4-2.4-17.5-7.2-.2-.1-.4-.2-.6-.1-2.2.7-4.3.8-6.7.8-3.8,0-7.4-.9-10.8-2.6-3.5-1.7-6.6-4.3-8.9-7.4-.8-1.1-1.7-2.2-2.3-3.4-.8-1.7-1.5-3.5-2.1-5.3-1.1-4.2-1.1-8.6,0-12.8,0,0,0-.2,0-.3,0-.1,0-.2-.1-.3-2.6-2.6-4.5-5.7-5.7-9.2-.8-2.1-1.3-4.4-1.4-6.6-.2-3,0-6,.8-8.9,1.9-6.2,5.5-11,10.7-14.5,1.2-.8,2.3-1.4,3.3-1.8,1.2-.5,2.4-.9,3.6-1.3.2,0,.3-.2.4-.4.9-3.3,2.5-6.3,4.6-9,2.7-3.4,6.2-6.1,10.2-7.7ZM53,60.6c-2,.1-3.4,1.8-3.3,3.7.1,1.8,1.5,3.2,3.3,3.3h20.2c2,.1,3.6-1.4,3.7-3.3s-1.4-3.6-3.3-3.7c-.1,0-.3,0-.4,0h-20.2ZM30.3,34.6c-1-1.7-3.2-2.2-4.9-1.2-1.6,1-2.1,3-1.3,4.7l7.1,12.4-7,11.9c-1,1.7-.4,3.8,1.2,4.8,1.7,1,3.8.4,4.8-1.2l8.1-13.6c.6-1.1.7-2.5,0-3.6l-8.1-14.1Z" fill="url(#gradient)"/>
</svg>