<svg xmlns="http://www.w3.org/2000/svg" viewBox="0 0 100 100">
  <path d="M77.8,41.5c-2,.7-4.3,2-8.7,4.5l-25.4,14.6c-4.4,2.5-6.6,3.8-8.2,5.2-6.6,5.8-9,14.9-6.2,23.2.7,2,2,4.3,4.5,8.7.5.8.9,1.6,1.3,2.3h43.3c11.9,0,21.6-9.7,21.6-21.6v-31.8c-5.8-5.7-14.4-7.8-22.2-5.1ZM61,93.9c-2.4,1.4-5.5.6-6.8-1.8l-5.4-9.3c-1.4-2.4-.6-5.5,1.8-6.8,2.4-1.4,5.5-.6,6.8,1.8l5.4,9.3c1.4,2.4.6,5.5-1.8,6.8ZM88,78.2c-2.4,1.4-5.5.6-6.8-1.8l-5.4-9.3c-1.4-2.4-.6-5.5,1.8-6.8,2.4-1.4,5.5-.6,6.8,1.8l5.4,9.3c1.4,2.4.6,5.5-1.8,6.8Z" fill="#6c4dff"/>
  <path d="M13.5,98.4c-.7-4,0-7.4,1.9-9.7.7-.8.7-.8.5-2.1-.2-2.1-.3-5.1-.2-7.1v-1.9c0,0-2.7-4.9-2.7-4.9-4.3-7.7-7-14.1-8.1-19-.6-2.7-.5-3.9.2-4.8.4-.5,1.8-1.1,3.4-1.4,4.1-.7,13.2,0,23.2,1.7l1,.2,2.3-2c3.8-3.4,6.3-5.3,11-8.2,4.9-3,10.4-5.5,16.5-7.5l2-.6,1.1-2.9c3.9-10.3,7.9-17.9,10.7-20.4,1-.9,1-.9,1.8-1,1.2,0,2.2.5,4,2.1,4.2,3.9,10.2,11.8,13.8,18.6l1.4,2.6,2,1c.1,0,.3.2.5.2v-9.8c0-11.9-9.7-21.6-21.6-21.6H21.6C9.7,0,0,9.7,0,21.6v56.8c0,9.1,5.6,16.8,13.5,20Z" fill="#6c4dff"/>
  <path d="M97.5,30.2l-1.4-2.6c-3.7-6.8-9.6-14.7-13.8-18.6-1.8-1.7-2.9-2.2-4-2.1-.7,0-.8,0-1.8,1-2.8,2.5-6.8,10.1-10.7,20.4l-1.1,2.9-2,.6c-6.2,2-11.7,4.5-16.5,7.5-4.7,2.9-7.2,4.8-11,8.2l-2.3,2-1-.2c-10.1-1.8-19.1-2.4-23.2-1.7-1.6.3-3,.9-3.4,1.4-.7.9-.7,2.1-.2,4.8,1.1,4.9,3.8,11.3,8.1,19l2.8,4.9v1.9c-.2,2,0,5.1.2,7.1.1,1.3.1,1.3-.5,2.1-2,2.3-2.6,5.7-1.9,9.7,2.5,1,5.2,1.6,8.1,1.6h13.6c-.4-.7-.8-1.4-1.3-2.3-2.5-4.4-3.8-6.6-4.5-8.7-2.8-8.3-.3-17.4,6.2-23.2,1.6-1.4,3.8-2.7,8.2-5.2l25.4-14.6c4.4-2.5,6.6-3.8,8.7-4.5,7.8-2.6,16.4-.6,22.2,5.1v-15.2c-.2,0-.3-.2-.5-.2l-2-1Z" fill="#fff"/>
  <path d="M57.4,77.7c-1.4-2.4-4.4-3.2-6.8-1.8-2.4,1.4-3.2,4.4-1.8,6.8l5.4,9.3c1.4,2.4,4.4,3.2,6.8,1.8,2.4-1.4,3.2-4.4,1.8-6.8l-5.4-9.3Z" fill="#fff"/>
  <path d="M84.5,62.1c-1.4-2.4-4.4-3.2-6.8-1.8-2.4,1.4-3.2,4.4-1.8,6.8l5.4,9.3c1.4,2.4,4.4,3.2,6.8,1.8,2.4-1.4,3.2-4.4,1.8-6.8l-5.4-9.3Z" fill="#fff"/>
</svg>