<svg xmlns="http://www.w3.org/2000/svg" viewBox="0 0 100 100">
  <path d="M89.6,16.8C73.8-2.1,45.7-4.6,26.8,11.3c-12.8,10.7-18,27.2-15.1,42.5v.5c.1,0,.2,0,.2,0,12.8-4.8,17.2-14.4,24.7-26.7,10-16.5,29.7-15.7,38.8-3,14.3,20,11.1,48.3,2.7,59.1,2.1-1.2,4.1-2.5,6-4.2,18.8-15.8,21.3-43.9,5.5-62.8h0Z" fill="#644dff" fill-rule="evenodd"/>
  <path d="M75.3,24.6c-9.1-12.7-28.8-13.5-38.8,3-7.5,12.3-11.8,21.9-24.7,26.7,0,0,0,0,0,0,1.5,7.1,6,14.5,15.2,17.6,10.5,3.6,15.7-1.8,22.8-.3,6.4,1.4,8.7,5.3,12.1,9.2,3.9,4.3,10.6,5.4,15.3,3.3.3-.2.5-.3.8-.5,8.4-10.8,11.5-39.1-2.7-59.1h0Z" fill="#fff"/>
  <path d="M65.9,38.4c1.5,5.1,1.6,9.8-1.6,10.5-3.1.7-4.7-3-6.2-8.1-1.5-5.1-2.3-8.9,1-9.9,3.2-1,5.3,2.5,6.8,7.5h0Z" fill="#644dff"/>
  <path d="M76,35.9c1.6,4.7,1.5,9.2-.9,9.7-2.6.5-3.9-3-5.5-7.7s-2.9-8.1-.5-9.2c2.6-1.3,5.3,2.6,6.8,7.3Z" fill="#644dff"/>
  <path d="M49.6,48.6c.1-1.8,3.2-2.7,3.5-1,1.1,6.1,8.4,10.6,13.2,6.9,1.4-1.1,3,1.9,2.2,2.8-6.4,6.1-19.6-.2-18.9-8.8Z" fill="#644dff"/>
  <path d="M78.1,83.7c-.3.2-.5.3-.8.5-1.6.7-3.5,1.1-5.4,1-3.6,0-7.4-1.5-9.9-4.3-3.5-3.9-5.8-7.9-12.1-9.2-.9-.2-1.7-.3-2.6-.3-4.2,0-8,1.9-13.2,1.8-2.1,0-4.4-.4-7-1.3-1.1-.4-2.2-.8-3.2-1.4-.2-.1-.5-.2-.7-.4,0,0,0,0,0,0-.2-.1-.4-.3-.7-.4,0,0,0,0,0,0-.2-.1-.4-.3-.6-.4,0,0,0,0,0,0-.2-.1-.4-.3-.6-.4,0,0,0,0,0,0-.2-.1-.4-.3-.6-.4,0,0,0,0,0,0-.2-.1-.4-.3-.6-.4,0,0,0,0,0,0-.2-.2-.4-.3-.5-.5,0,0,0,0,0,0-.2-.2-.3-.3-.5-.5,0,0,0,0,0,0-.2-.2-.3-.3-.5-.5,0,0,0,0,0,0-.2-.2-.3-.3-.5-.5,0,0,0,0,0,0-.2-.2-.3-.4-.5-.5,0,0,0,0,0,0-.2-.2-.3-.4-.5-.6h0c-2.6-3.3-4.1-7.1-4.8-10.9-2.5-13.1,1-27,10-37.4C8.7,24.1,0,38.3,0,54.6,0,79.2,19.9,99.2,44.5,99.2s25.8-6.1,33.9-15.7c-.1,0-.3.2-.4.2Z" fill="#ff4cd2"/>
</svg>