<svg xmlns="http://www.w3.org/2000/svg" viewBox="0 0 100 100">
  <path d="M64.6,27.9c7.8-1.6,15.7,2.6,18.7,9.9h0c9.6,2.4,16.7,10.9,16.7,21,0,11.9-9.9,21.6-22.1,21.6-9.2,0-17.1-5.5-20.4-13.3-1-2.4-1.6-5-1.7-7.7h-5.6c-.4,0-.6-.5-.3-.7l11.4-11.1c.2-.2.6-.2.8,0l11.4,11.1c.3.3,0,.7-.3.7h-5.9c.2,1.4.6,2.7,1.3,4,3.2,5.7,10.7,7.8,16.5,4.4,5.1-2.9,7.2-9.3,4.9-14.5-2.4-5.5-8.6-8.1-14.1-6.7,1.2-3.6-.4-7.6-3.9-9.6-3.5-1.9-7.8-1.1-10.4,1.7h0s0,0,0,0c-2.8-6.6-9.8-10.8-17.5-10-8.2.9-14.3,7.6-14.8,15.4-4.1-2.2-9.3-2.2-13.7.5-4.9,3.1-7.2,9.1-5.6,14.5,1.8,6,7.2,9.5,12.9,9.5h29.8c.2,0,.4.1.5.3,1.4,3.2,3.4,6,5.9,8.4.2.2,0,.6-.2.6H23s0,0,0,0h0C10.3,77.9,0,67.9,0,55.5c0-12.4,10.3-22.4,22.9-22.4h0c4.3-8,12.8-13.4,22.7-13.4,7.5,0,14.3,3.2,18.9,8.2Z" fill="#df0428" fill-rule="evenodd"/>
</svg>