<svg xmlns="http://www.w3.org/2000/svg" viewBox="0 0 100 100">
  <path d="M67.1,4.2c-7.2-2.6-14.5-3.2-21.7-2.6-8.3.6-12.3,3.1-12.1,2.7-13.5,4.7-25,14.8-30.3,29-9.4,25.3,3.9,53.2,29.9,62.4,25.9,9.2,54.6-3.8,64.1-29.1,9.4-25.3-3.9-53.2-29.9-62.4ZM34.6,91.1c-2.8-1-5.3-2.2-7.8-3.7,12.1.9,27.9-1.8,38.5-11.5,0,0,20.3-15.8,5.6-41.6,0,0,2.4,10.4-.6,19,0,0-2.9,11.7-15.7,15.1-18.8,5-40.3-7.8-49.2-14-.7-6.4,0-13,2.3-19.4,3.6-9.5,10.3-17,18.5-22-2,13.9-.4,26.8,1.9,32.1,3.1,7.2,8.5,15.6,19.1,16.7,10.6,1.1,16.4-8.6,16.4-8.6,5.4-8,6.3-19.6,6.2-19.8,0-.3-1.4-1-1.4-1-3.7,14.4-9.7,19.2-9.7,19.2-9.5,8.9-16.2,2.7-16.2,2.7-7.2-7.6-2.2-19.8-2.2-19.8,2.8-8.4,11.1-20.6,20.4-26.8,1.6.4,3.1.6,4.7,1.2,5.7,2,10.6,5,14.8,8.8-6.8,2.4-17.9,7.6-17.9,7.6-17.5,7.2-18.7,18-18.7,18-1.8,11.2,7.3,6.5,7.3,6.5,9.4-4.4,14-18.3,14-18.3-2.9-.5-5.2.3-5.2.3-3.7,9-11.4,12.7-11.4,12.7-3,1.5-3.7-1.2-3.7-1.2-.5-2,2.2-2.4,2.2-2.4,4.2-1.6,6.8-5.8,7.4-7.6.6-1.7,1.7-1.9,1.7-1.9,5.7-1.8,10.9-2.2,10.9-2.2,7.1-.8,17.9,2.4,17.9,2.4,2.4,1,4.8,1.7,6.8,2.2,4,9.7,4.6,20.7.7,31.2-8.5,22.7-34.3,34.5-57.7,26.2h0Z" fill="#00b7ff" fill-rule="evenodd" isolation="isolate"/>
</svg>