<svg xmlns="http://www.w3.org/2000/svg" viewBox="0 0 100 100">
  <path d="M49.3,3.6c5.4,0,10.6.8,15.5,2.3,4.7,1.4,8.9,3.5,12.5,6.1,7.1,5.2,11,12,11,19.2s-5,15.7-13.7,21l-2.9,1.8,1.7,3c.9,1.6,1.3,3.3,1.3,5,0,3.3-1.7,6.4-4.7,8.9-3.3,2.6-7.8,4.1-12.5,4.1s-9.2-1.4-12.5-4.1c-3.1-2.4-4.7-5.6-4.7-8.9s0-.5,0-.7l.2-3.1-3-.7c-7.8-1.8-14.9-5.4-19.7-10.2-4.8-4.7-7.4-10.3-7.4-16.1s3.9-14,11-19.2c3.6-2.6,7.8-4.7,12.5-6.1,4.9-1.5,10.1-2.3,15.5-2.3M49.3,0C25.8,0,6.8,14,6.8,31.2s12.6,25.8,29.9,29.8c0,.3,0,.6,0,1,0,9.1,9.3,16.5,20.8,16.5s20.8-7.4,20.8-16.5-.6-4.7-1.8-6.7c9.4-5.7,15.4-14.3,15.4-24C91.9,14,72.8,0,49.3,0ZM81.4,84.9c4.5,0,8.2,2.7,8.2,5.8s-3.8,5.8-8.2,5.8-8.2-2.7-8.2-5.8,3.8-5.8,8.2-5.8M81.4,81.3c-6.5,0-11.8,4.2-11.8,9.4s5.3,9.4,11.8,9.4,11.8-4.2,11.8-9.4-5.3-9.4-11.8-9.4Z" fill="#f4a62f"/>
</svg>