<svg xmlns="http://www.w3.org/2000/svg" viewBox="0 0 100 100">
  <path d="M98.4,43c-2.5-1.7-8.9-2.4-13.6-1.1-.3-4.7-2.7-8.6-7.1-12l-1.6-1.1-1.1,1.6c-2.1,3.2-3,7.6-2.7,11.5.3,2.4,1.1,5.1,2.7,7.1-6.1,3.5-11.7,2.7-36.6,2.7H0c-.1,5.6.8,16.4,7.7,25.2.8,1,1.6,1.9,2.5,2.8,5.6,5.6,14,9.7,26.7,9.7,19.3,0,35.8-10.4,45.8-35.6,3.3,0,12,.6,16.3-7.7.1-.1,1.1-2.2,1.1-2.2l-1.6-1.1h0ZM25.1,37.8h-10.8v10.8h10.8v-10.8ZM39,37.8h-10.8v10.8h10.8v-10.8ZM53,37.8h-10.8v10.8h10.8v-10.8ZM67,37.8h-10.8v10.8h10.8v-10.8ZM11.1,37.8H.3v10.8h10.8s0-10.8,0-10.8ZM25.1,24.2h-10.8v10.8h10.8v-10.8ZM39,24.2h-10.8v10.8h10.8v-10.8ZM53,24.2h-10.8v10.8h10.8v-10.8ZM53,10.5h-10.8v10.8h10.8v-10.8Z" fill="#1d63ed"/>
</svg>