<svg xmlns="http://www.w3.org/2000/svg" viewBox="0 0 100 100">
  <defs>
    <linearGradient id="gradient" x1="-44.1" y1="167.5" x2="-11.8" y2="136.6" gradientTransform="translate(94.9 217.6) scale(1 -1)" gradientUnits="userSpaceOnUse">
      <stop offset="0" stop-color="#74c2ff"/>
      <stop offset="1" stop-color="#86e6a9"/>
    </linearGradient>
  </defs>
  <path d="M69.9,29c4.1,4.2,5.8,6,10.7,13.2,5,7.2,9.2,20.5-2.4,29.5-1.4,1.1-3.1,2.2-4.9,3.3-12.8,7.2-33.7,11.3-47.7,1.3-16-11.5-14.8-36.6,2.6-52,17.5-15.4,37.6.5,41.6,4.7Z" fill="url(#gradient)"/>
  <path d="M46.1,96.6c-11,0-20.8-3-28.8-8.6-5.3-3.8-9.5-8.7-12.5-14.5C2,68.1.4,62.1,0,55.8c-.4-7.5,1.1-15.4,4.3-22.6,3.2-7.4,8.2-14.1,14.4-19.6C30,3.7,44.1.9,58.6,5.7c9.4,3.1,17.5,9.1,21.5,13.3,4.5,4.6,6.7,7,12.3,15,2.6,3.8,7.1,11.7,7.6,21.6.5,10.8-4.1,20.5-12.9,27.4-2,1.6-4.2,3-6.7,4.4-8.8,5-19.2,8.2-29.3,8.9-1.7.1-3.3.2-5,.2ZM44.8,32c-2.6,0-4.8,1-7.1,3-6,5.3-9.4,12.5-9,19.3.2,3.1,1.2,7.4,5.3,10.3,4.6,3.3,10.6,3.5,14.9,3.2,5.9-.5,12.4-2.4,17.4-5.3,1.2-.7,2.3-1.4,3.2-2.1,1.8-1.4,2-2.4,1.9-3.5,0-1.9-1.1-4.5-2.5-6.5-4.4-6.4-5.5-7.5-9.2-11.3h0c-.8-.9-5-4.4-10.1-6.1-1.7-.6-3.3-.9-4.7-.9Z" fill="#f2f2f2" opacity=".5"/>
</svg>