<svg xmlns="http://www.w3.org/2000/svg" viewBox="0 0 100 100">
  <path d="M47,100l-1.7-.2c-4.7-.5-9.3-1.7-13.7-3.5-3.4-1.4-6.6-3.3-9.5-5.6-.6-.6-1.3-1.1-1.9-1.7-9.9-8.3-16.1-20.2-17.1-33.1v-1.7c-.1,0,0-3.2,0-3.2v-3.2c0,0,.2-1.4.2-1.4,1.7-15,10.4-28.3,23.5-35.8l1.3-.7,1.3-1.3c3.9-4.2,9-7.1,14.5-8.5h.7c0-.1,8.4-.1,8.4-.1l1.2.4,1.3.4,1.1.6c1.2.6,2.3,1.4,3.3,2.4l.6.6h.3c0,0,1.1-.4,1.1-.4l.9-.2h1.8l.7.3.7.3,1.1.9c1,.9,2,1.7,3.2,2.2,1.7.9,3.2,2,4.5,3.4.6.7,1.3,1.3,2,1.9,21.8,15.2,27.1,45.2,11.9,66.9-2.2,3.2-4.8,6.1-7.8,8.7-.4.4-.9.8-1.2,1.2-.3.3-.7.7-1.1.9-6.8,5.2-14.8,8.4-23.3,9.2l-1.8.2h-6.2ZM55.1,50.8c.2-1.2,0-2.4-.4-1.8-.1.5-.1,1.1,0,1.6,0,.3.4.4.4.2h0ZM65.2,47.2c.2-.1.3-.4.1-.6,0-.1-.3-.2-.4-.2-.3,0-.5.2-.5.4,0,.2,0,.3.2.4.2.2.4.2.6,0h0ZM39.1,45.1c0,0,0-.2,0-.3h0c0-.1-.1,0-.1,0,0,0-.1.2-.1.3v.2h.2c0,0,.2,0,.2-.2h0ZM53,27.8c0-.1.1-.3.1-.5v-.2h-.4v.9h.1c0,0,.2,0,.2-.2h0ZM56.2,27.3v-.2h-1.8v.5h1.8v-.2ZM54.9,26.1h.2c0,0-.1-.2-.1-.2-.1,0,0-.4.1-.4s.2-.1.3-.2v-.2c.1,0,.4,0,.4,0h.3s0,.3,0,.3v.3h.5v-.2c0-.2,0-.4.2-.5.2-.4.2-.6,0-.6h-.2v-.3c0-.2,0-.3.2-.4.3-.2-.1-.7-.4-.5-.1,0-.3,0-.4,0h-.9c0,0-.6.2-.6.2v.4h.5c.6,0,.6,0,.6.3s-.3.3-.4,0c0,0-.1-.2-.2-.2h-.1v.3c0,0,.1.3.1.3h-.2c-.2.2-.4.2-.6.2h-.4.1c.2.3.2.7,0,.7,0,0-.2.2-.2.3v.2h.6c.3-.1.5-.2.7-.2h0ZM53.1,25.8v-.4h-.9v.9h.9v-.5ZM54,24.6v-.2h-.4v.5h.4v-.2ZM57.7,22.8v-.2h-.7v.5h.7v-.2Z" fill="#cae3fd"/>
  <path d="M46.4,0l-1.5.2-1.5.2-1.4.4c-1.9.6-3.7,1.4-5.4,2.4-3.3,1.9-6.2,4.3-8.6,7.2-.4.5-.8,1-1.2,1.5-2.2,2.9-4,6.1-5.4,9.4-.2.4-.3.8-.5,1.2-1.9,4.7-3.2,9.6-4,14.5-.6,4.8-.7,9.7-.4,14.6,0,.2,0,.9.1,1.6s.1,2.2.2,3.3.2,3.5.3,5.1c0,2.4.2,4.8.5,7.1v.3c.1,0,.9.3.9.3.7.3,1.4.5,2.2.6l2.3.5c.5.1,1.6.3,2.6.5s2.4.4,3.3.6c.8.2,1.6.3,2.4.4h.7s0-.8,0-.8v-.8c0,0,1.9,0,1.9,0,1,0,2.3,0,2.8.1s1.7.1,2.6.2,2,0,2.4.1h.7v.9c.1,3.3-1,6.6-3.1,9.2l-.7.7h-.3c-.6.1-1.2.4-1.7.8-2.2,1.6-4.6,2.9-7.1,4-2.6,1-5,2.4-7.2,4.1v.2c0,0,.2.3.2.3.4.4.9.7,1.3,1,7,4.7,15.1,7.5,23.6,8,2,.1,4,0,6-.1.6,0,1.1-.1,1.7-.2,3-.3,6-.9,9-1.8,5.3-1.7,10.2-4.3,14.6-7.7l.5-.4v-.2c-.2-.6-.5-1.1-.9-1.6l-.9-1.4-.8-.7c-1.5-1.3-3.4-2-5.3-2-2.8-.4-4.2-.6-5.3-.8l-2.1-.4-1.1-.2-.9-.4c-.5-.2-1-.4-1.5-.6l-.7-.2-.5-.5-.5-.5-.5-.9-.5-.9-.3-1.1c-.4-1.7-.5-3.4-.4-5.1h.1c0-.1.7,0,.7,0,.4,0,2,.2,3.6.3l4.5.4h1.5c0,.1,3,0,3,0,4-.2,3.7,0,3.5-1.4,0-1.2-.1-2.3-.1-3.5v-2.7l.3-1.8c.2-1,.4-2.4.6-3l.3-1.2,1.6-.2,1.6-.2,1.1-.3c1.1-.3,2-.8,2.9-1.5l.7-.6.4-.6c.8-1.2,1.2-2.6,1.2-4.1v-.9l-.2-.7c-.1-.5-.3-.9-.5-1.3l-.4-.7-.8-.8-.8-.8-.8-.6c-1.3-.9-1.3-.9-1.3-1.1.1-.3.3-.6.4-.9.6-1.1,1.1-2.3,1.3-3.5l.2-1v-2.6c0,0,.1-2.6.1-2.6v-1.2c-.2-.9-.3-1.7-.5-2.5-.2-1.2-.4-1.9-1.2-5-.2-.8-.3-1.6-.4-2.4l-.2-1.6-.4-1.6c-.4-1.7-1-3.4-1.9-4.9l-.8-1.4-.7-.9c-1.9-2.4-4.4-4.3-7.1-5.7l-.9-.5-1.1-1-1-1-.6-.3-.6-.3h-2.2l-.8.3c-1,.3-1.1.3-1.3,0-.4-.4-.9-.8-1.3-1.1l-1.1-.9-1.3-.7-1.3-.7-1.3-.4-1.4-.3h-3c0,0-3-.1-3-.1h0ZM45.9,43.9h.1c.2,0,.5,1.1.5,1.8,0,.3,0,.6,0,.8v.2c0,0-.2.5-.2.5,0,.2-.2.4-.4.6-.5.3-.5.2-.2-.7l.2-.7v-.9c0-.4,0-.9,0-1.3,0,0,0-.4,0-.4ZM38.9,44.5c.2,0,.4,0,.5.3v.2c0,0,0,.2,0,.2-.3.4-.7.2-.7-.3,0-.2.1-.4.3-.5h0ZM71.1,46v.2c.5.6.6,1.3.4,2,0,.3-.2.6-.4.8l-.3.3v-.4c.2-.5.2-1.1.2-1.6v-1.2ZM64.7,46.3h.3c.3,0,.6.3.6.6,0,.1,0,.2-.1.3-.2.3-.6.3-.8.1,0,0-.2-.2-.2-.3v-.2c0,0,0-.3,0-.3l.2-.3h0ZM54.8,48.9c.3-.1.4.8.3,1.9,0,.2-.4,0-.4-.2-.1-.5-.1-1.1,0-1.6,0,0,0,0,.1-.1h0ZM53.8,96.9s-.1.2-.4.5c-.6.7-.7.7-.4,0,.2-.3.5-.5.8-.6h0Z" fill="#eec5b9"/>
  <path d="M46.8,99.8c-8.3-.6-16.3-3.4-23.2-8.1-1.1-.8-1.4-1-1.3-1.3,2.2-1.6,4.7-3,7.2-4.1,2.5-1.1,4.8-2.4,7-3.9.4-.4,1-.6,1.6-.7h.4l.6-.5c2.2-2.5,3.4-5.7,3.3-8.9v-1.2c0,0,0,0,0,0-.8-.1-1.6-.2-2.4-.2-1.2,0-2.7-.1-3.4-.2s-2-.1-2.9-.1h-1.8v.8c0,0-.1.8-.1.8h-.7c-.8-.1-1.6-.2-2.4-.4-1-.2-1.9-.4-2.9-.6-.7-.1-2.5-.5-4-.8l-2.8-.6-.6-.3-.6-.3-.2-.7c-.3-1.5-.5-3.1-.4-4.7-.1-3.4-.3-6.9-.6-10.3l-.2-3.3v-2.6c0-3.4.2-6.8.8-10.1.1-.6.2-1.2.2-1.9,0-.7.1-1.4.3-2.1l.5-2.3c.9-3.9,2.1-7.7,3.8-11.3C26,10.4,33.9,3.3,43.6.4l1-.2h3.7c0,0,3.7-.1,3.7-.1l1.5.4,1.5.4,1.2.6c1.3.6,2.4,1.4,3.4,2.4l.8.7,1-.3,1-.3h2.2l.7.3.7.3.8.8.8.8,1.5.8c6.2,2.9,10.4,8.9,10.8,15.8v1.4c.1,0,.5,1.4.5,1.4.6,1.8,1,3.7,1.4,5.6l.3,1.5v7.3c-.4,1.5-.9,2.9-1.7,4.2-.1.2-.2.4-.3.7v.2l.9.6c.9.6,1.7,1.3,2.3,2.2,0,0-.3,0-.7-.2l-.7-.3h-.3c0,0-.3.1-.3.1l-.2.5c-.1.3-.2.6-.3.8,0,.2-.1.4-.2.6,0,.2-.2.4-.3.6-.1.1-.2.3-.3.5,0,.1,0,.3-.1.4-.5.9-.9,1.9-1.2,2.9-.1.4-.2.8-.4,1.2,0,.1-.1.3,0,.4,0,.2,0,.4-.1.6l-.2.5v.2c.2.1.2.3.3.5v.2c0,0,.8,0,.8,0,1.7,0,3.4-.9,4.5-2.2l.4-.5h0c0,.4-.1.6-.3.8l-.3.6-.6.6c-1.7,1.5-3.8,2.3-6.1,2.5-.4,0-.8.1-1.2.3-.5,1.5-.8,3-1,4.5l-.2,1.5v2.7c0,1.5,0,3.1.1,3.5.2,1.3.5,1.2-3.5,1.4h-3c0,.1-1.5,0-1.5,0l-4.5-.4c-1.2,0-2.4-.2-3.6-.3-.3,0-.6,0-.8,0h-.1c0,0,0,1.8,0,1.8v1.7c0,0,.3,1.2.3,1.2l.2,1.2.4.9.4.9.6.7.6.7h.4c.7,0,1.3.3,1.8.6l.9.4,1.1.2,2.1.4c1.1.2,2.5.4,5.3.8,2,0,3.9.7,5.3,2l.8.7.9,1.4c.3.5.6,1,.9,1.5-2.2,2.1-4.8,3.9-7.6,5.2-5.2,2.7-10.8,4.4-16.6,5-.6,0-1.1,0-1.7.2l-.9.2h-2.6c-1.4,0-2.8,0-3.1,0h0ZM54.9,98.9l.2-.2h-.1c0-.1-.1-.3-.1-.3h0c0,.2-.1.3-.2.5v.3c0,0,0,0,0,0,.1,0,.2-.1.3-.2h0ZM53.8,97.1c.6-.3.6-.4.1-.4-.7,0-1.3.6-1.3,1.3,0,.5.1.4.4-.1l.3-.5.5-.2ZM54.9,94c1.9,0,3.7-.7,5.3-1.9l.7-.5.5-.7.5-.7.3-.9c.3-1,.4-1.9.3-2.9v-.3c0,0-1.2-.6-1.2-.6-.6-.3-1.3-.6-1.9-1-.4-.2-.8-.4-1.2-.6-.2-.1-.5-.3-.7-.4-.1-.1-.3-.2-.5-.3-.2,0-.4,0-.5-.2-.2,0-.4-.2-.6-.3l-.4-.2c-.2-.1-.4-.2-.6-.3-.3-.2-.5-.3-.8-.4-.3-.1-.5-.3-.7-.5-.2-.1-.3-.2-.5-.3-.2,0-.3-.2-.4-.3-.1-.1-.3-.2-.5-.3-.2,0-.3-.1-.5-.2l-.2-.2h-.3c-.2,0-.4,0-.5,0h-.2c0,0,.2-.2.2-.2h.2c0-.1-.4,0-.4,0l-1.6.2h-1.2c0,.1,0,.3,0,.3v.2c0,0-.4,0-.4,0-.2,0-.3.1-.3.2s0,0,0,0c-.5.1-.9.3-1.2.7-.2.1-.3.3-.5.4-.2.1-.3.2-.5.4-.2.2-.5.4-.8.5-.2,0-.5.2-.7.4,0,.1-.2.2-.4.3-.3,0-.5.2-.7.4-.2.2-.5.3-.7.4-.6.4-1.1.9-1.6,1.5l-.4.4v.3c1,2.3,2.7,4.2,4.9,5.5.6.3,1.3.6,2,.9l1.4.5,1.3.3,1.6.3c1.7.1,3.4.1,5.1,0h0ZM55,70.4h.8c0-.1,1.7-1,1.7-1,.7-.3,1.5-.8,2.1-1.2.2-.2.5-.4.7-.5.3-.2.7-.5,1-.8.5-.5,1-.9,1.7-1.2.3-.1.6-.3.8-.5.2-.1.3-.2.5-.3.2-.1.4-.3.6-.5.3-.3.6-.6.7-.8.1-.1.2-.3.3-.5,0-.3.3-.7.5-.7,0,0,.1,0,.1-.2,0-.2.5-.8.9-.9.2,0,.3-.2.3-.4,0-.3.2-.5.4-.8l.4-.7c0-.1.2-.3.3-.4.2-.1.3-.7.2-.8,0,0-.1-.2,0-.3v-.2l-.3-.3-.3-.3h0c0-.1,0-.3,0-.3h-.2c-.1,0-.2,0-.3-.2-.1-.1-.3-.2-.4-.3h-.4c0-.1-.1-.4-.1-.4,0-.1-.2-.3-.3-.3h-.2l-.2-.4c-.1-.4-.4-.7-.7-.8-.2,0-.3-.2-.3-.3s0-.4-.2-.8l-.2-.6.2-.2c.2-.3.2-.5-.3-.7-.8-.4-1.4-1.1-1.8-1.9l-.4-.7-.2-.8c0-.5-.2-1-.2-1.5v-.7h0c-.3.6-.5,1.2-.6,1.8v.6c0,0-.4,0-.4,0h-.3c0,0-.1,0-.1,0-.1-.3-.2-.6-.2-.9,0-.3,0-.6-.1-.9,0,0,0-.2,0-.3,0-.2,0-.4-.2-.5l-.2-.3v-.4c.2-.2.3-.4.3-.6,0-.1,0-.3.2-.4l.2-.2v-.8h.2c.1-.2.3-.2.4-.2h.2c0,0,0-.4,0-.4l.4-.4.4-.4h.4c0,0,.4-.1.4-.1l.2-.3.2-.3.8-.2,1.1-.3c.2,0,.3,0,.5,0,.1,0,.3,0,.4,0l.2-.2h.7c.3,0,.5,0,.8,0,0,0,.2,0,.3,0h.2c0,0,0-.3,0-.3h.2c.1,0,.3,0,.3-.2v-.2h1l.4-.3c.4-.3.7-.4.5,0v.2c0,0,0,0,0,0,0,0,.1,0,.2-.1,0,0,.2,0,.4,0h.3s0-.2,0-.2v-.3h.3c.3,0,.3-.2,0-.3-.1,0-.2-.1-.2-.2,0-.2-.8-.3-1.8-.4-.3,0-.6,0-.9-.1h0c0,0-.7,0-.7,0-.4,0-.8,0-1.2,0-.3,0-.7,0-1,.2l-.5.2h-1.9l-.3-.2c-.2-.2-.4-.4-.6-.6l-.3-.4v-.9l.2-.4c.5-1,1.5-1.6,2.6-1.7l.8-.2h2.8l1.6.3c.9.2,1.9.4,2.4.4h.8c0,0,.3,0,.3,0h.3v-1.4l-.2-.2-.2-.2v-.8l-.3-.8c-.2-.4-.4-.8-.7-1.1-.3-.4-.6-.8-.9-1.2-1.3-1.7-2.8-3.2-4.4-4.7-1.3-1.2-2.8-2.3-4.3-3.2-.9-.6-1.7-1.2-2.5-1.8l-.4-.4h-.6s-.6,0-.6,0l-1.4.3c-3,.6-5.9,1.9-8.3,3.8-.4.3-.7.6-1.1.9-1.1.9-2.1,1.9-2.8,3.1-.2.3-.4.5-.6.7-.3.4-.6.8-.8,1.3l-.4.8v1c-.3,1.4-.2,1.5,1.1,1.7,2.6.5,4.3,1.7,4.3,3.1v.5l-.2.4-.2.4h-.7c-.5-.1-1-.2-1.5-.4-.6-.2-1.2-.4-1.8-.5l-1.1-.3h-.4c-.6.1-.9.3-1,.6v.3c-.1,0,0,.5,0,.5,0,.2,0,.4.2.6,0,0,.1.2.2.3.1.3.4.6.7.8.8.4,1.5,1,2.2,1.6.4.5.9.8,1.5,1.1h.2l.2.5c.1.3.3.5.5.8.6,1,.9,2.3.8,3.5v1.2c-.1,0-.2.2-.2.2l-.5-.5-.5-.5v-.5c-.4-.9-.9-1.8-1.6-2.5l-.4-.4v.3c0,0,.3,1,.3,1v.6c.1,0,0,.7,0,.7v.7c0,0-.4.9-.4.9l-.3.9-.5.6c-.5.5-1,.9-1.5,1.3l-1,.7v.4c0,.2,0,.5,0,.7v.3h-.3c-.3.1-.7.3-1,.5l-.7.5h-.6v.2c0,.1,0,.2-.2.3-.5.4-.9.8-1.2,1.3,0,.3-.3.7-.5.9h-.2c0,.1.1.4.1.4v.2c.1,0,0,.2,0,.2-.2.3-.2.5.2.9.1.1.3.3.3.5,0,.2.2.4.4.6.4.6.7,1.2,1,1.8l.6,1.3h.2c0,0,.2.1.2.1v.6l.8.8c.3.3.6.6.8.9,0,0,0,0,0,0s.5.3.5.4c.5.7,1,1.3,1.7,1.8.4.3.7.6,1,.9l.3.4.7.3c.3.1.5.3.8.4.7.6,1.6,1,2.5,1.2l1.7.5c1.2.3,2.5.4,3.8.2h0ZM52.6,65.2l-.9-.2-.6-.3c-.4-.2-.7-.4-1-.7l-.4-.4-.2-.5-.2-.5h.1c.2-.2.4-.3.7-.2h.5c-.2-.3-.5-.4-.8-.5-1.4-.4-2.5-1-2.5-1.4h0c0-.1.5,0,.5,0,.3,0,1,0,1.8.1h1.3c0,0,1.3-.2,1.3-.2.7-.1,1.4-.2,2-.2h.8l.4-.2c.3-.1.6-.2.9-.2h.5l.4.3c.4.3.8.5,1.2.7l.8.4h2c0,.1,0,.3,0,.3l-.5.3c-.2.1-.4.3-.6.3-.2,0-.3.2-.4.3l-.3.3v.4s0,.4,0,.4l-.5.5c-.4.3-.8.6-1.2.9l-.6.4h-4.3ZM54.5,56.9h-.9c0,0-.5-.3-.5-.3-.2,0-.5-.2-.7-.4l-.2-.2v-.2c.2-.4,2-.8,3.4-.8h.6l.2-.2c.3-.3,1.1.5,1.2,1.2v.3c0,0-.2.3-.2.3-.5.5-1.1.5-3,.4h0ZM43.9,68.9c-1.5-1.2-3-2.3-4.5-3.3-.4-.2-.9-.6-1.1-.8-.8-.7-1.7-1.3-2.7-1.8h-.2l.2.4c.9,1.1,2,2.1,3.2,3,1.6,1,3.3,1.9,5.1,2.6h.2,0ZM74.7,52.4l.4-.8v-.4c0-.2,0-.5.2-.7,0-.2.1-.4.2-.6,0-.2,0-.4.2-.6,0-.2.1-.4.1-.6,0-.1,0-.3,0-.4,0-.5.1-1.1.1-1.6v-1.5s-.4,0-.4,0c-.3,0-.7.2-1,.3l-.6.2-.3.9c-.4,1.2-.9,2.4-1.7,3.5-.5.6-.5.7-.2.9.3.2.6.5.8.8l.9,1,.3.3h.2s.2,0,.2,0l.4-.7ZM71,50c.2-.2.5-.5.6-.8l.3-.5v-.8c0,0,.1-.8.1-.8l-.3-.6c-.3-.5-.7-1-.8-1,0,.5,0,.9,0,1.4v1.4s-.2.9-.2.9c-.4,1.3-.3,1.5.4.8h0ZM65.4,47.4h.2v-.8l-.2-.2c-.2-.2-.6-.2-.8,0,0,0,0,0,0,0l-.2.2v.7h.2c.3.3.6.3.8.1h0ZM39.3,45.3v-.2c.1,0,0-.3,0-.3-.1-.5-.8-.5-.9,0v.3c0,0,0,.2,0,.2v.2c.1,0,.4,0,.4,0,.2,0,.3,0,.4-.2ZM73,39.4c.1,0,.3-.2.4-.2h.2c0,0-.8,0-.8,0v-.2c-.1,0-.2-.2-.3-.2,0,0-.2,0-.2.2s0,.2.1.2.1,0,.1.2c0,.2,0,.2.4,0h0ZM84.2,52.3c0-.5,0-1.1,0-1.6v-.8s0,.2,0,.2c.1.4.2.9.2,1.4v1.1c0,0,0,.2,0,.2v.2c-.1,0-.1-.8-.1-.8Z" fill="#ddafa2"/>
  <path d="M48.2,99.9c-8.7-.3-17.2-3.1-24.4-8.1-1.2-.9-1.4-1-1.3-1.2,2.2-1.6,4.6-3,7.2-4.1,2.9-1.5,5.6-2.9,5.9-3.1l1-.8c.3-.2.6-.4.9-.6l.4-.2h.3c0,.1.3.3.3.3l.8-.8c2.2-2.3,3.4-5.4,3.3-8.7v-1.7c.1,0,0-.1,0-.1h-.1c0-.1-2.4-.2-2.4-.2-1.3,0-2.9-.2-3.5-.2s-1.9-.1-2.9-.1h-1.8s0,1.6,0,1.6h-.8c-.7-.2-1.4-.3-2.1-.4-1-.2-2.1-.4-3.1-.6-1.4-.3-2.7-.5-4-.8l-2.3-.5-.6-.3-.6-.3-.3-1.1-.3-1.1v-2c0-1.5,0-3-.2-4.6l-.3-4.6c0-1.2-.1-2.4-.2-3.6-.2-3.7-.1-7.4.2-11,.6-3.6,1.4-7.2,2.6-10.7,1.6-4.5,3.4-9,5.6-13.3.6-1.1,1.2-2.2,2-3.3.9-1,.6-1.1-.5,0l-.9.8h-.2c0-.1-.2-.2-.2-.2v-.3c.9-1.8,2.1-3.4,3.5-4.9,1.4-1.6,3-3,4.8-4.2l1.4-1,2-1.1,2-1.1,1.8-.6,1.8-.6,1.2-.2,1.2-.2h6.4l1.4.4,1.4.4,1.3.7c1.2.5,2.2,1.3,3.1,2.1l1.1.9.9-.3.9-.3h2.4l.7.4c.6.4,1.1.9,1.5,1.5l.2.3,1.6.8c1,.5,1.9,1,2.8,1.6l1.2.8,1.1,1.1c2.4,2.2,4.1,4.9,5,8l.3,1v1.7c0,0,.2,1.7.2,1.7l.3.8c.3.8.5,1.6.8,2.3.6,2,1.1,4,1.4,6.1v1c.1,0,.1,6,.1,6v.9c-.2.4-.3.8-.4,1.2-.3,1-.8,2-1.2,2.9-.2.2-.3.5-.3.8v.3l.3.3.3.3-.3.3-.3.3v.4c-.2.4-.3.8-.4,1.1l-.3.8-.4.4c-.1.2-.3.3-.5.4h-.2v-.4c0-.2.1-1.1.2-1.9l.2-1.5v-4.2l-.4-1.4c-2.4-7.7-7.5-14.2-14.4-18.4-.9-.6-1.8-1.2-2.6-1.9l-.7-.6h-.6c0,0-.6-.1-.6-.1l-1.4.2c-4.7.7-9.1,3-12.4,6.5-.2.2-.7.8-1,1.1-.8.9-1.5,1.8-2,2.9l-.8,1.5v1.2h.4c.2.1,1.1.3,1.9.4l1.4.2,1,.3,1,.3.6.4.6.4.3.5.3.5v.7l-.2.3-.2.3h-.2c-.5,0-.9-.2-1.4-.4-1.4-.5-2.8-.9-4.3-1.1h-.9c0,0-.9,0-.9,0h-.9c0,0-.3.4-.3.4-.2.2-.3.5-.5.8l-.2.5v1.4l.3.5c.1.2.2.3.4.5,1.8.2,3.6.8,5.1,1.8l.9.6.7.8.7.8.5.9.5.9v.8c.1,0,.2.8.2.8v.4c0,0-.2.4-.2.4h-.2c-.2-.3-.4-.6-.6-1.4-.3-1.1-1.8-3.1-2.4-3.1h-.2l.3.8.3.8v1.9l-.3.9-.3.9-.5.6c-.5.7-1.3,1.2-2.1,1.5l-.5.2h-1.2c0,0-1.2-.2-1.2-.2l-.5.2-.5.2h-.2c0-.1-.2-.2-.2-.2v-.4s0-.4,0-.4l-.2-.2-.2-.2-.3.3c-.2.3-.4.6-.6.9-.1.3-.3.6-.6.9-1,1.5-1.4,3.3-1.1,5,.1.3.2.6.3.9.3.9.6,1.8.9,2.7.3.5.5.9.7,1.5,0,.3.1.5.3.8l.3.6v.2c-.2.4-1.2-.1-2.8-1.2-.2-.2-.5-.3-.8-.4h-.1v.6l.3.5c1.8,2.3,4.1,4.1,6.7,5.4.5.3,1.1.5,1.6.9,1.7.9,3.4,1.6,5.2,2.1l2.4.8,1.2.2c1.8.3,3.6.2,5.3-.3.2,0,.8-.3,1.4-.6,1.9-.7,3.6-1.6,5.4-2.6.6-.4,1.2-.7,1.3-.7,1.6-1,3.1-2,4.5-3.2,1.4-1.3,2.7-2.7,3.9-4.2.3-.4.6-.8,1-1.1.2-.1.4-.3.5-.5.3-.5.5-.6.8-.4.2,0,.4.1.6.1.4,0,.9.3.8.4-.3,0-.6.1-.9.1-.3,0-.6,0-1,.1h-.2v.4c0,.5-.2,1-.3,1.5-.8,3.5-1,7.1-.7,10.6v.9c.1,0,0,.1,0,.1h-.1c0,.1-2.9.3-2.9.3h-2.9c0,.1-1.3,0-1.3,0-1.1,0-5.7-.4-8.9-.7h-.8c0,0,0,.1,0,.1,0,1.6.1,3.3.4,4.9l.2,1.1.4.8c.3.8.8,1.6,1.5,2.1l.4.3h.4c0,0,.4-.1.4-.1l1.2.6c.5.2,1,.4,1.5.6.1,0,.9.1,1.7.3,1.6.3,4.3.7,6.5,1,1.8,0,3.6.6,5,1.9l1,.9.4.7c.3.4.5.9.8,1.3.6.9.6.9-1.7,2.5-5.7,4.1-12.2,6.8-19.1,8-2.6.4-3.2.4-2.8,0,.1-.2.2-.3.3-.6v-.3c0,0-.1-.3-.1-.3l-.2-.3h-.2c-.2.3-.3.5-.5.7-.1.2-.3.5-.4.7,0,0-.1.2-.2.3-1.9.4-3.8.6-5.7.4h0ZM53.1,98.7c0-.2.1-.5.2-.7l.2-.5.5-.2c.2-.1.4-.2.7-.2.2,0,.3-.1,0-.3h-.1c0-.1-1-.1-1-.1l-.4.2c-.2.2-.4.4-.5.6l-.2.4v.4c.1.7.6,1,.6.4h0ZM55,94.2c4.9-.5,7.1-2.7,7.6-7v-.7c0,0,0-.8,0-.8v-.8c-.1,0-.4-.3-.4-.3-.7-.6-1.5-1.2-2.3-1.7-.4-.2-.7-.5-1.1-.8-.3-.2-.5-.4-.8-.6-.3-.3-.6-.6-.9-1-.3-.4-.7-.8-1.1-1.1-.3-.2-.5-.4-.8-.6-.1-.1-.3-.2-.5-.3-.5-.2-.9-.5-1.3-.8,0,0-.2-.1-.3-.1-.1,0-.3,0-.4-.2-.5-.3-1.1-.6-1.6-.8-.2,0-.3,0-.4-.2-.8-.4-1.5-.6-2.4-.9-.3,0-.6,0-.9-.2l-.7-.2-.4.3c-.7.5-1.4,1.2-1.9,1.9,0,.2-.2.4-.3.5-.1,0-.2.2-.3.3-.1.2-.3.4-.4.6-.2.3-.5.6-.7.9-1,1.2-2,2.3-3.2,3.3-.7.4-1.2,1-1.7,1.7l-.2.4v.5c1.1,2.3,2.7,4.3,4.6,5.8,1.1.8,2.3,1.4,3.5,1.8l1.4.5,1.2.2,1.4.3c1.7,0,3.5,0,5.2,0h0ZM39.3,45.4c.3-.2.3-.7,0-.9,0,0,0,0,0,0-.3-.3-.4-.3-.7,0-.6.6.1,1.5.7.9h0ZM52.8,64.9h-.7c0-.1-.7-.4-.7-.4-.4-.2-.7-.4-1-.7l-.3-.3h.1c.2-.3.4-.3.5-.4l.4-.2h1.3c0,.1,1.3.2,1.3.2h.8c.4-.2.8-.2,1.2-.2h.4v-.2s0-.2,0-.2h-.4c-.4,0-.8,0-1.2-.1-.4,0-1.4-.2-2.2-.3-2.7-.3-5.1-1.1-4.9-1.5h0c0,0,.6,0,.6,0l.6.2h3.2l.6-.2.6-.2h2.5l.4.2c.4.2.8.3,1.3.4l.9.2h2.2,0c-.5.5-1,.8-1.7.9-1.1.3-1.6.8-1,.9h.2s0,.2,0,.2v.2s-.3.4-.3.4c-.3.3-.6.5-.9.7l-.6.3h-1.4c-.7,0-1.4,0-2.2-.1h0ZM68.7,52.3l-.5-.3h-.5c0,.1-.5.2-.5.2h-.7c-.5-.2-1-.3-1.5-.5l-.7-.2-.5-.5c-.3-.3-.6-.7-.8-1.1l-.4-.6-.2-.8-.2-.8v-1c0,0,.1-1,.1-1h-.1c-.2,0-.7.9-.9,1.7,0,.3-.2.6-.4.9h-.1s0-.8,0-.8v-.8s.4-.7.4-.7c1.1-2,2.9-3.6,5.1-4.3l.8-.2h1.2c0,0,1.2-.1,1.2-.1h.8c.3.2.6.3.9.4.2.1.3.2.5.3l.4.2.3-.3c.1-.1.3-.2.5-.3h.1v.6c0,0-.2.6-.2.6l.8.5c.6.5,1.3.8,2.1,1h.3v.2c0,.3-.4.6-1.4.9l-.9.3v.2c-.3.3-.4.7-.5,1,0,.4-.2.7-.4,1.1-.2.3-.4.6-.5.8,0,.2-.2.4-.4.6h-.1v-.2c.1,0,.2-.4.3-.7v-.5c.1,0,0-.8,0-.8,0-.5-.2-1-.3-1.4l-.2-.7-.3-.3c-.3-.3-1.1-.6-1.3-.5,0,.3.1.6.2.9l.3.9v1.2s0,1.2,0,1.2l-.3.6c-.2.5-.5,1-.8,1.4l-.6.8h.2c.1.1.3.2.4.3l.2.2v.6h-.3c-.3,0-.5-.2-.8-.3h0ZM65.4,47.5l.2-.2v-.8l-.2-.2c-.2-.3-.7-.3-.9,0,0,0,0,0,0,0l-.2.2v.8l.2.2c.3.2.7.2,1,0ZM71,52c-.2-.1-.3-.3-.5-.5v-.2c0,0,.2-.2.2-.2,0,0,.2-.2.3-.2.4.1.7.4,1,.7v.2s-.2.2-.2.2c-.3.3-.3.3-.7,0h0ZM75.3,38.8c-1.2-.7-2.6-1.2-4-1.5l-.8-.2h-3.7l-1.4.3c-.6.1-1.2.2-1.8.3h-.3l-.2-.2-.2-.2v-1l.3-.4c.4-.6,1.1-1.1,1.8-1.3l.6-.2h1.4c0,0,1.4-.1,1.4-.1l1.2.2c.6.1,1.7.3,2.3.5l1.1.3.9.5c1,.6,1.9,1.3,2.7,2.1l.4.4v.3c0,.7-.5.7-1.5.2h0Z" fill="#c68878"/>
  <path d="M46.1,99.7c-5.4-.5-10.7-1.9-15.7-4.1-2.9-1.2-5.6-2.9-8-4.9v-.2l.8-.6c.5-.3,3.3-1.8,6.2-3.3s5.5-2.8,5.7-3c.2-.2.5-.3.7-.5.2-.1.4-.3.6-.5.4-.5,1.5-.9,1.5-.6,0,.2-.2.3-.3.4-.4.4-.6,1-.5,1.6v.7l.2.6c1.2,2.6,3.1,4.9,5.4,6.6,1.7,1,3.5,1.7,5.4,2l1.6.3h.6c0,.1,2.2,0,2.2,0,6.9-.2,9.6-2.2,10-7.3v-.8c0,0,0-.7,0-.7-.3-1.3-.9-2.5-1.9-3.4l-.4-.4h.7l1,.5,1,.5h.7c.4.1,1.2.3,1.8.4,1.3.3,2.5.5,5.1.8,1.5,0,2.9.4,4.3.9l.6.3.6.6c.3.3.8.7.9.8.3.3.5.6.8,1,.3.4.6.9.8,1.3l.4.5v.2c-2,1.6-4,3-6.1,4.2-5.1,2.9-10.7,4.8-16.5,5.6-1.3.2-1.4.1-1.1-.3l.2-.3v-.5c0-.6-.2-1.1-.7-1.5l-.3-.3h-.4c-.6,0-1.1.3-1.4.8l-.2.4v.9l.2.3c0,.1.2.3.3.3h.1s0-.3,0-.3c0-.5.3-1,.7-1.4.6-.4.9-.3.6.4v.3h-.3c-.2,0-.3,0-.4.2l-.2.2v.9s-.5.2-.5.2l-.5.2h-2.7c-1.5,0-3.2,0-3.8,0h0ZM51.7,73.3h-.8c0,0-.4-.5-.4-.5-.2-.2-.4-.3-.6-.5-.5-.3,0-.4.9-.1.8.2,1.7.3,2.6.3.3,0,.6,0,.9.2,0,0,.2,0,.2,0h0c0,0,0,0,0,0h0c0,.1.5.1.5.1h0c0-.1,0-.3,0-.3h.2c0,0,.2.1.2.1v.2c0,0-.2.2-.2.2h-.2c-.1,0-.2,0-.3,0h-.1c0,0,0,0,0,0,0,0-.1,0-.3,0-.7,0-1.5.1-2.2,0h0ZM66.3,72.8l-3.6-.3c-1.9,0-3.8-.3-5.7-.6h-.1c0-.1.2-.3.2-.3.4-.2.8-.4,1.2-.5,4-1.7,7.8-3.9,11.2-6.6,1.5-1.3,2.8-2.8,3.9-4.3l.7-.9h.3c.1-.1.3-.1.4,0h.2v.4c0,.4-.1.8-.2,1.2-.2.7-.3,1.5-.5,2.3l-.2,1.4v2.8c0,0-.2,2.8-.2,2.8v.8c.2.4.2,1,.2,1.3v.5h-.1c-.5,0-6.2.3-6.4.3h-1.2c0-.1,0-.1,0-.1ZM30.5,71.8c-.7-.1-1.3-.2-1.9-.4-.7-.2-1.5-.3-2.3-.5-1.6-.3-3.2-.6-4.8-1l-1.8-.4-.4-.2-.4-.2-.3-1-.3-1v-2.3c0-2.6-.2-6.8-.4-8.5-.2-2.2-.4-5.3-.4-8.6v-3.4l.2-1.8c.1-1.9.5-3.8.9-5.6.2-.8.5-2,.7-2.7s.5-2,.8-2.9l.6-2c0-.2.3-.8.5-1.3.3-.7.5-1.3.8-2,.3-.7.5-1.3.8-2,.2-.5.6-1.4.8-2,1.2-3.8,3.2-7.2,5.8-10.2.9-1,.9-1,0-.8l-.7.2-.2-.2c-.3-.5,0-1,1.9-2.9,2.1-2.2,4.6-3.9,7.3-5.3l1.8-.9,1.8-.6,1.8-.6,1.4-.2,1.4-.2h3.2s3.2,0,3.2,0l1.2.3,1.2.3,1.4.7,1.4.7.9.8,1.3,1.1c.5.4.4.4,1.2,0l.6-.3h1.1c1.5-.1,1.5,0,2.5.7l.8.7v.3s0,.3,0,.3l2.1,1.1,2.1,1.1.8.6,1.2.9c2.8,2.3,4.8,5.4,5.8,8.9l.2.7v1.5s0,1.5,0,1.5l.2.7c.1.4.5,1.4.8,2.2.7,2,1.3,4.1,1.6,6.3l.2,1.2v7.4c-.5,1.3-.9,2.6-1.5,3.8l-.4.8v.4c-.1,1.3-.6,2.5-1.3,3.6l-.3.2h0c0-.9,0-1.7.2-2.5l.3-2.2v-1.9c0,0-.1-1.9-.1-1.9l-.3-1.2c-2.5-7.6-7.6-14.1-14.5-18.2-.8-.5-1.6-1.1-2.4-1.7l-.6-.5h-.5c0,0-.5-.2-.5-.2h-1.7c0,.1-1.7.2-1.7.2l-1.3.3-1.3.3-1.6.7c-1.7.7-3.4,1.7-5,2.7l-1.3.9-1.1,1.2c-.9,1-1.8,2.1-2.6,3.2-.2.2-.3.4-.5.6-.6.7-1,1.5-1.3,2.4l-.2.6h.2c.3.3.7.3,1,.3.5,0,1.6.1,2.5.2l1.6.2.9.3c1.9.6,2.9,1.5,2.8,2.6v.3s-.3.2-.3.2l-.3.2-.8-.3c-.8-.3-1.6-.5-2.4-.8l-1.6-.5h-1.9c0,0-1.9-.1-1.9-.1h-.5c-.3.2-.6.4-.8.5l-.3.3-.2.5c-.1.4-.2.8-.3,1.1v.6c-.1,0,0,.4,0,.4v.4c.1,0,.4.1.4.1h.2c0,.1.9.2.9.2,1.7,0,3.5.4,5,1.2l.9.5,1.1,1.1,1.1,1.1.5.9.4.9v.8c.2.3.2.7.1,1v.2c0,0-.2-.2-.2-.2-.2-.2-.3-.5-.3-.8-.4-1.3-1.2-2.4-2.3-3.1-.5-.4-.6-.3-.3.3.2.4.3.8.4,1.2v.7c.1,0,0,.8,0,.8v.8c0,0-.4.7-.4.7-.5,1.2-1.5,2.2-2.7,2.6l-.5.2h-1.1c0-.1-1.1-.3-1.1-.3h-.4c0,.1-.4.3-.4.3h-.2c0-.2-.2-.4-.2-.5v-.2l-.6-.6-.6-.6-.4-.8-.4-.8v-1.2c0-.5,0-1.1.1-1.6.1-.5,0-.6-.2-.2-.4,1-.6,2.1-.5,3.2v.9h-.1c-.3-.2-.5-.4-.7-.6l-.6-.6-.4-1.1c-.5-1.2-.5-1.3-.6-.8-.1.7,0,1.4.2,2,.2.7.3,1.4.4,2.2v1.1c.1,0,0,1.6,0,1.6v1.6c-.1,0,0,1.3,0,1.3v1.3c0,0,.3.8.3.8.4,1.2.7,2.4.8,3.6,0,0-.1.2-.3.3l-.3.2-.4-.2-.4-.2h-.1c0,0-.1.2-.1.2v.4c0,0,.1.4.1.4l.4.5c1.9,2.5,4.3,4.5,7.1,5.9l1.4.7.2.3.2.3v.6c0,.3-.1.5-.2.8v.2c-.1,0-2.3,0-2.3,0-1.2,0-2.6-.1-3.1-.2s-1.9-.1-3.1-.2h-2.2c0,0,0,1.6,0,1.6h-.2c-.4,0-.7,0-1.1-.1h0ZM39.3,45.5l.2-.2v-.7l-.2-.2c-.1,0-.3-.1-.5-.2h-.3l-.2.3c-.5.7.3,1.6.9,1h0ZM55.9,62.2c-2.3,0-4.7-.3-6.9-1,0,0,6.7.3,7.6.4.7,0,1.4.1,2.1.1h1.2-.2c-.6.4-1.3.5-2,.5-.6,0-1.3,0-1.9,0h0ZM68.9,52.1v-.2c-.1,0,0-.1,0-.1h.1c0-.1.2,0,.2,0h.2v.5h-.2c-.1,0-.3,0-.4-.2h0ZM65.8,51.8c-.3,0-.7-.2-1-.3l-.5-.2-.5-.5c-.6-.6-1-1.4-1.2-2.3v-.6c-.1,0,0-1.3,0-1.3v-1.3c0,0-.3.3-.3.3-.4.5-.8,1.2-1,1.8,0,0,0,.2-.1.2h-.1c0,0,0-.5,0-.5v-.6c0,0,.4-.7.4-.7l.3-.7.7-.7c1.1-1.3,2.6-2.2,4.2-2.8l.7-.2h3.2l.8.4.8.4.3-.2.4-.2h0s0,.4,0,.4v.4c0,0,.2.3.2.3.8.6,1.7,1.1,2.6,1.4.7,0,.2.6-.9.9-.3,0-.7.2-1,.4l-.2.2-.2.9c-.2.9-.4,1.2-.6,1.2h-.1v-.5c-.2-.9-.5-1.7-.9-2.5l-.3-.5-.8-.4c-.3-.1-.6-.3-.9-.4.1.3.3.6.4,1l.5,1v.8c.1,0,.2.8.2.8v.8c-.3,1-.8,2-1.5,2.7l-.6.6-.5.2-.5.2h-.8c-.4,0-.8,0-1.2-.1h0ZM65.3,47.6c.4-.2.6-.6.4-1,0,0-.1-.2-.2-.3l-.2-.3h-.8l-.2.2-.2.2v.3c0,.4.3.8.8.8.2,0,.3,0,.5-.1h0ZM70.9,51.7c-.3-.3,0-.6.4-.4h.3c0,.1,0,.3,0,.3v.2s-.3,0-.3,0c-.1,0-.3,0-.4-.1h0ZM36,49.6c-.2-.3,0-.8.4-.9,0,0,.2,0,.3,0h.3l.2.2.2.2v.2c-.5.4-1.3.7-1.4.3h0ZM75.6,38.7c-2-1.2-4.3-1.8-6.6-2h-.8c0,0-.9,0-.9,0-.7.1-1.3.2-2,.4-.6.1-1.3.3-1.6.3h-.5c0,0-.2,0-.2,0h-.2c0-.1,0-.7,0-.7v-.5c0,0,.5-.5.5-.5.5-.6,1.2-.9,2-1.1l.7-.2h2.3l1.3.2c2.2.2,4.2,1.2,5.8,2.6l1.1.9v.3c.2.5-.3.6-.9.2h0Z" fill="#a66a5d"/>
  <path d="M48.4,99.7c-6.6-.2-13.1-1.9-19-4.8-2.3-1.1-4.5-2.5-6.6-4l-.2-.2h0c1.3-1.1,2.8-1.9,4.4-2.5.4-.1.8-.3,1.1-.5.3-.2,1.3-.7,2.4-1.3s2.1-1.1,2.3-1.2c.4-.2.8-.5,1.2-.6.4-.2.7-.3,1-.6.2-.2.5-.4.7-.6.4-.2.7-.5,1-.8.2-.2.4-.3.7-.4h.2l-.3.3c-.4.5-.4.7-.4,1.7v.8c0,0,.5.9.5.9,2,4.2,6,7.3,10.6,8.2l1.5.3c.9,0,1.7.1,2.6.1h2.1l1.1-.2c4.9-.7,7.2-3,7.4-7.5v-1c0,0,0-.7,0-.7-.1-.5-.3-.9-.5-1.4l-.3-.7-.6-.6-.6-.6h.2c.4.1.8.3,1.1.5l.9.5h.4c.5,0,1,.1,1.4.2,2.3.5,4.7.8,7,1.1,1.7,0,3.4.5,4.6,1.8l.9.9.4.7c.2.4.6.9.8,1.2.2.2.3.4.4.7v.2l-.5.4c-6.5,5-14.1,8.2-22.2,9.3h-.8c0,0,0-.2,0-.2,0-.2.1-.5.1-.7v-.4c0,0,0-.4,0-.4-.1-.3-.3-.5-.5-.8l-.4-.4h-.5c0,0-.5-.1-.5-.1l-.4.2c-.3.1-.5.3-.7.6l-.3.4v1.2l.2.4.2.4h0c-1.5.2-2.9.3-4.4.2h0ZM66.6,72.7c-3.1,0-6.2-.4-9.3-.9h0c0,0,.9-.5.9-.5,4-1.7,7.8-4,11.2-6.7,1.4-1.2,2.7-2.6,3.8-4.1l.9-1.2h.7v.3c0,.4-.1.7-.2,1.1-.2.8-.4,1.7-.5,2.5l-.3,1.7v2.6c0,1.4,0,3.1,0,3.8v1.2c0,0,0,0,0,0-1,0-2.1.1-3.1.1-1.3,0-2.5,0-2.6,0s-.8,0-1.5,0h0ZM30.2,71.6c-.7-.1-1.6-.3-2.1-.4s-1.1-.3-1.7-.4c-1-.2-3.6-.7-5-1.1l-1.1-.3-.3-.2-.3-.2v-.3c0-.3-.2-.6-.3-.9l-.2-.7v-2.7c0,0,.2-2.7.2-2.7v-.7c-.3-1.7-.5-3.4-.6-5.2,0-.8-.1-1.7-.2-2.5-.1-.7-.2-1.4-.2-2.1v-3c-.1-3.2.1-6.4.7-9.5.2-1.4.5-2.8.9-4.2.2-.7.4-1.4.6-2.1.1-.6.5-1.8.9-2.7s.8-2.2,1-2.7.5-1.3.6-1.6c.3-.7,1.1-2.7,1.4-3.9.5-1.6,1.2-3.1,1.9-4.6l.6-1.3,1-1.5,1-1.5,1.4-1.4c.5-.6,1.1-1.1,1.7-1.6.8-.5,1.4-1,2-1.7,0-.2-.4,0-1.2.4l-.9.5h-.5c0,0-.5.1-.5.1h-.2c-.1-.3-.2-.4-.2-.6v-.3l.8-.8c1.8-1.8,3.8-3.3,6.1-4.3l2-1,1.8-.6,1.8-.6,1.4-.2,1.4-.2h2.5c1.8-.1,3.5,0,5.2.6l1.2.4,1.3.7,1.3.7,1.1.9c.6.5,1.2,1,1.7,1.5.2.3.5.5.8.7.1,0,.2,0,.3.2.1.2.4.2.6,0,0,0,0,0,0,0l.2-.2-.5-.4-.5-.4.3-.2c.4-.3.9-.4,2-.3h.9c0,0,.6.6.6.6l.6.6v.3c0,0,0,.3,0,.3l.6.3,2.1,1,1.6.7.8.6,1.4,1c2.8,2.2,4.9,5.2,5.9,8.6v.6c.1,0,.1.7.1.7,0,.5,0,1.1,0,1.6v.8l.5,1.1c1.9,3.9,2.9,8.2,2.9,12.5v2.3c0,0,0,1.2,0,1.2l-.2,1.2-.4,1.4c-.2.7-.5,1.5-.8,2.2-.2.3-.3.7-.4,1-.2,1.2-.6,2.4-1.2,3.5h-.1v-.5c.3-1.5.5-3.5.5-4.8v-1.5c0,0-.1-.9-.1-.9-2.2-8.2-7.5-15.3-14.8-19.6-1.2-.8-2.4-1.6-2.6-1.9-.2-.2-.5-.4-.8-.6h-.3c0-.1-2.2,0-2.2,0-2.6,0-5.1.5-7.5,1.6-1.5.6-2.8,1.4-4.1,2.3-.5.4-1.1.8-1.7,1.2-2.2,1.6-4.1,3.7-5.6,6l-.5,1c-.1.3-.2.6-.2,1v.6s.3,0,.3,0c.2,0,1.2,0,2.3.1h1.9c0,0,1.2.3,1.2.3l1.2.2.7.3c.9.4,1.7.9,2.5,1.4l.3.2v.9h-.2c0,.1-.2.2-.2.2l-.7-.3c-1.4-.5-2.8-.9-4.2-1.2-.8,0-1.7-.1-2.5-.1h-1.9l-1.1.2c-.5,0-.9.2-1.3.3-.9.7-1.4,1.7-1.6,2.8-.1.5-.3,1.1-.5,1.6-.1.3-.2.5-.3.8.8,0,1.6-.2,2.4-.6,0-.9.1-.9.5-.5l.3.4h.3c.1,0,.6-.1,1-.2h.7c0,0,1,0,1,0,2.3,0,4.5,1.1,6,2.8l.7.7.5,1,.5,1v.7c0,0,.1.7.1.7l-.2-.6c-.4-1.3-1.3-2.5-2.5-3.2l-.7-.5v.2c0,.3,0,.5.2.7.9,1.8.6,4.1-.7,5.6l-.5.6-.7.3-.7.3h-1.8s-1.8,0-1.8,0v-.2c-.2-.3-.5-.6-.7-.8-.6-.6-1-1.3-1.2-2.2v-.6c-.1,0,0-.9,0-.9,0-.9.3-1.7.7-2.4.5-.9.5-.9,0-.9h-.5l-.4.3-.4.3-.4.9c-.3.5-.5,1.1-.6,1.7,0,.3-.2.6-.3.8h0c0,.1-.3-.6-.3-.6l-.3-.7v-1c-.1,0-.2-1-.2-1h-.5s-.5,0-.5,0l-.2.3c-.8,4.1-.9,8.4-.2,12.6l.2,1.2v.7s0,.7,0,.7h-.3c-.2,0-.3.2-.4.3v.2c-.1,0,0,.4,0,.4v.4c0,0,.5.8.5.8.9,1.4,2,2.7,3.3,3.9l1.4,1.3,1.1.7c.6.4,1.7,1.1,2.5,1.5l1.5.7v.3c.1.3.1.6,0,.9v.6c0,0-2,0-2,0-1.1,0-2.4,0-2.9-.1s-2-.1-3.3-.2h-2.4c0,0,0,0,0,0,0,.3-.1.5,0,.8v.6h-.1c-.4,0-.9,0-1.3-.2h0ZM39.5,45.5l.2-.4v-.3c-.1-.4-.4-.6-.8-.7h-.3l-.3.2-.3.2v.9l.2.2c.2.1.4.2.6.2h.3l.2-.4ZM66.2,51.8l-1-.2-.8-.2-.5-.5c-1.2-1.2-1.7-3-1.3-4.7,0-.2.1-.5.2-.7v-.4c0,0,0,0,0,0-.2,0-.4.2-.6.4l-.4.4.2-.4c1.4-2.2,3.8-3.6,6.4-3.8h.9c0,0,.8,0,.8,0,.5,0,1,.2,1.5.5.3.2.6.3.9.3h.2v.2s0,.2,0,.2l1.1.7c.5.3,1,.6,1.6.8.7.2.6.4-.6.8-1,.3-1.1.4-1.4,1.5-.3,1.2-.5,1.2-.6.3,0-.4-.2-.8-.3-1.1l-.2-.6-.7-.8-.7-.8-.7-.2c-.4-.2-.8-.3-1.3-.2h-.2l.5.6c.7.7,1.1,1.6,1.3,2.6v.7c.1,0,0,.9,0,.9v.9c-.1,0-.5.8-.5.8-.4.8-1,1.5-1.9,2l-.6.3h-.6c-.2,0-.5,0-.7,0h0ZM65.6,47.5l.3-.3v-.3c0-.5-.3-.8-.8-1h-.3c0,0-.3,0-.3,0-.5.2-.7.8-.5,1.3,0,.2.2.4.4.5l.3.2h.3c.2-.1.4-.2.6-.4h0Z" fill="#47332f"/>
</svg>