<svg xmlns="http://www.w3.org/2000/svg" viewBox="0 0 100 100">
  <path d="M17,11.1c0,2.4.9,5,2.4,6.8-1.5,1.8-2.4,4.4-2.4,6.8,0,5.4,3.2,10.6,8.7,10.6l1-6.9c-1.7,0-2.8-2-2.8-3.7s1.2-3.2,2.8-3.3h.3c1.6,0,6.8,0,6.8,0v-6.9h-6.9c-1.6,0-3-1.7-3-3.3s1.2-3.7,2.8-3.7l-1-6.9c-5.4,0-8.7,5.1-8.7,10.6Z" fill="#22a1e9"/>
  <path d="M28,96.9l.7.8c.4.5,1.1.7,1.8.4s1.7-.6,1.8-.7h0c9.7-3.9,10.2-11.3,10.1-15.1s.5-1.4,1.1-1.6c32.6-10.1,46.2-26.5,46.1-45.6,0-12.7-5.5-21.1-12.9-26.7-1.2-.9-2.4-1.7-3.7-2.4s-.1,0-.2,0C61.6.8,46.5,1.7,38.5,1.9s-1.6.8-1.6,1.7l1,33c1.1,23,2.6,29.8-1,35.6s-1.3.9-2.1.6c-2.5-1.2-5.5-1.8-8.2-2.1-5.2-.3-11,.6-15.3,2.7h-.3c-1,.6-1.2,1.9-.5,2.7h0s0,0,0,0c4.1,3.9,8.7,6.3,14,6.9s1.6,1,1.4,2c-.9,4.4,0,9.7,2,11.8h0Z" fill="#22a1e9"/>
  <path d="M30,100c-.9,0-1.8-.4-2.5-1.1l-.7-.8c-2.3-2.6-3.4-8.4-2.4-13.2-5.6-.7-10.5-3.1-14.9-7.3,0,0-.1-.1-.2-.2-.7-.8-1-1.8-.8-2.8s.8-1.9,1.8-2.4h.3c4.4-2.3,10.4-3.4,16.1-3h0c3.3.3,6.4,1,8.8,2.2,2.5-4,2.2-8.8,1.4-21.3-.2-3.8-.5-8.1-.7-13.2h0s-1-33.1-1-33.1c0-.9.3-1.7.9-2.4.6-.6,1.4-1,2.3-1,.5,0,1.1,0,1.7,0,8.5-.3,22.6-.7,33.7,4.2.1,0,.3.1.4.2,1.3.8,2.6,1.6,3.8,2.6,9,6.8,13.6,16.2,13.6,28.1,0,10.4-3.8,19.6-11.3,27.4-7.9,8.2-20,14.9-36,19.9,0,3.1.1,12.2-11.2,16.6h0c-.1,0-.4.2-2,.8-.4.1-.8.2-1.2.2ZM29.2,95.7l.7.8c1.4-.5,1.6-.6,1.7-.6h.2c8.2-3.3,9.1-9,9.1-13.6,0-1.5.9-2.8,2.3-3.2,29.8-9.2,45-24,44.9-44,0-10.7-4.1-19.3-12.2-25.4-1.1-.8-2.3-1.6-3.5-2.3-10.4-4.6-24-4.1-32.2-3.9-.6,0-1.1,0-1.6,0l1,32.9c.2,5.1.5,9.4.7,13.2.8,13.1,1.1,18.5-2,23.4-.9,1.4-2.7,2-4.3,1.2-2-1-4.7-1.7-7.6-1.9-5.2-.3-10.5.6-14.4,2.5h-.2c3.9,3.8,8.1,5.8,13,6.4.9.1,1.8.6,2.3,1.4.5.8.8,1.7.6,2.7-.8,4,.1,8.6,1.5,10.2Z" fill="#000014"/>
</svg>