<svg xmlns="http://www.w3.org/2000/svg" viewBox="0 0 100 100">
  <path d="M96,15.2C89.1,1.3,71.5-4,57.6,3.2L16.6,24.6l9.2,17.7-9.3,4.8c-13.7,7.1-19.6,24.4-12.3,38.1,5,9.4,14.7,14.9,24.7,14.9s8.7-1,12.8-3.1l41.6-21.6-9.2-17.6,9.8-5.1c13.5-7,18.9-23.7,12.1-37.2h0ZM36.9,87.6c-10,5.2-22.7-.2-25.3-12.1-.3-1.4-.4-2.9-.3-4.3.4-6.5,4-11.9,9.5-14.7l9.8-5.1,4.1,7.8c4.3,8.2,14.4,11.4,22.7,7.2l7.7-4,4.4,8.5-32.4,16.8h0ZM51.5,42c3.2.6,5.7,3.1,6.3,6.3,1.1,5.7-3.8,10.5-9.4,9.5-3.2-.6-5.7-3.2-6.3-6.3-1.1-5.7,3.8-10.5,9.4-9.4h0ZM78.7,43.5l-9.4,4.9-4.1-7.8c-4.3-8.2-14.4-11.4-22.7-7.2l-7.7,4-4.4-8.5L62.9,12.1c8.5-4.4,19-1.2,23.5,7.2,4.7,8.6,1,19.6-7.8,24.2h0Z"/>
</svg>