<svg xmlns="http://www.w3.org/2000/svg" viewBox="0 0 100 100">
  <path d="M77.3,77.9v-7c0-1.1,6-8.1,5.5-10.6-2.2-1.6-5.2-2.9-6.4-5.5-4.9-10.7,9.9-20,10.7-30.4s-.9-7.1-2.1-10.9c.7-.2.9.3,1.3.6,9.2,7.1,14.5,21,13.6,32.4-.8,11.8-9.3,26.9-20.8,31.3-.8.3-1,.3-1.9,0ZM76.5,20.7c0,2.1,1.7,4.9,3,6.6s3.1,2.4,3,3.8-4.4,6.9-5.1,7.7-.9,1.2-1.7,1.1c-1.2-5.7-2.1-12.7-.2-18.3s0-1,1-.9ZM17.2,59.6c-.7.9,2.3,6.4,2.9,7.5s1.9,2.1,2.1,3,.7,5.8.5,6.7-.5,1.4-1,1.4-5.1-2.8-5.9-3.4C-5.2,60-5,28.7,14.8,13c-.1,2.4-1.7,4.4-1.9,7-1.1,11.1,5.9,15,10,23.7s1.6,13.7-5.7,15.8ZM24,39.9c-1,.3-.7-.2-1-.5-.8-.9-5.9-8.1-5.8-8.6,2.9-2.9,5.7-6.3,6.4-10.5.9.3.9,1.4,1.1,2.1,1.4,5.7,1.2,11.9-.7,17.5ZM46.2,34.4c2.5-.5,4.8,0,7.3-.2.3-3.4,4.8-15.8,7.7-17.1s0,3.6-.3,4.8c-1.3,3.6-3,10.3-2.2,14s3,2.5,4.1,3.6,1.7,2.3,2.3,3.2c7.6,10.9,10.1,24.7,9.6,37.8-14.8,8.9-34.1,8.4-49.2.4-.7-13.4,2.2-29,10.7-39.7s5.3-4.7,5.5-5.6c.9-5-1.9-13.4-4.2-17.9,2.1-2.1,3.5,1.5,4.5,3.2,2.3,4,4.3,9,4.5,13.7ZM43.9,47.7c-5.2-5-10.8,5-6.1,10.5,5.3,6.2,11.2-5.6,6.1-10.5ZM56.1,59c4.7,4.5,10.4-4.8,6.3-10.3-5-6.8-11.8,5-6.3,10.3Z" fill="#ff3511"/>
  <path d="M43.9,47.7c5.1,4.9-.8,16.7-6.1,10.5-4.8-5.6.9-15.5,6.1-10.5ZM40.6,52.4c-4.6-1.5-4.4,6.4-.2,5s1.1-3.9.2-5ZM56.1,59c-5.6-5.3,1.2-17.1,6.3-10.3,4.1,5.5-1.5,14.8-6.3,10.3ZM56.7,52.3c-2.4,1.1-1.6,6.1,1.1,5.4s1.7-6.2-1.1-5.4Z" fill="#020636"/>
</svg>