<svg xmlns="http://www.w3.org/2000/svg" viewBox="0 0 100 100">
  <defs>
    <linearGradient id="gradient" x1="16" y1="92.6" x2="78.4" y2="18.2" gradientTransform="translate(0 102) scale(1 -1)" gradientUnits="userSpaceOnUse">
      <stop offset="0" stop-color="#0df"/>
      <stop offset="1" stop-color="#0c60f2"/>
    </linearGradient>
  </defs>
  <path d="M99.2,58.9c.5-2.9.8-5.9.8-8.9s-.2-5.1-.6-7.6c-.1-1-1-1.6-1.9-1.6h-32.2c-1.1,0-1.8-1-1.5-2l3.8-14.2c.3-1,1.2-1.8,2.3-1.8h19.1c1.3,0,2-1.4,1.3-2.4C81.2,8,66.5,0,50,0,22.4,0,0,22.4,0,50s4.6,24.1,12.3,32.8c.8.9,2.3.5,2.6-.7l11.1-41.5c.2-.8-.4-1.5-1.2-1.5h-9.6c-1.1,0-1.8-1-1.5-2l3.1-11.7c.2-.9,1-1.5,1.9-1.5,10.5-.2,20.8-3,30-8,.9-.5,2.1.3,1.8,1.4l-20.3,76.3c-.3,1.1.3,2.3,1.4,2.8,5.7,2.3,11.9,3.5,18.4,3.5,15.8,0,29.9-7.3,39-18.7.8-1,0-2.5-1.2-2.5h-32.6c-1.1,0-1.8-1-1.5-2l3.8-14.2c.3-1,1.2-1.8,2.3-1.8h37.2c1.1,0,2.1-.8,2.3-1.9Z" fill="url(#gradient)"/>
</svg>