<svg xmlns="http://www.w3.org/2000/svg" viewBox="0 0 100 100">
  <path d="M7.6,20.6c-1.2.5-1.8,1.9-1.4,3.1l29.4,74.7c.5,1.2,1.9,1.8,3.1,1.4l53.6-21.1c1.2-.5,1.8-1.9,1.4-3.1L64.3.9c-.1-.3-.3-.6-.6-.9l-.4,60.8h-8.3c0,0,.4-59,.4-59L7.6,20.6ZM16.8,24.4l27-10.6c1.3-.5,2.7.1,3.2,1.4.5,1.3-.1,2.7-1.4,3.2l-27,10.6c-1.3.5-2.7-.1-3.2-1.4-.5-1.3.1-2.7,1.4-3.2h0ZM20.7,34.3l27-10.6c1.3-.5,2.7.1,3.2,1.4.5,1.3-.1,2.7-1.4,3.2l-27,10.6c-1.3.5-2.7-.1-3.2-1.4-.5-1.3.1-2.7,1.4-3.2h0ZM24.6,44.3l19.4-7.6c1.3-.5,2.7.1,3.2,1.4.5,1.3-.1,2.7-1.4,3.2l-19.4,7.6c-1.3.5-2.7-.1-3.2-1.4-.5-1.3.1-2.7,1.4-3.2h0ZM55,62.4h8.3s-4.2,10.2-4.2,10.2l-4.2-10.2Z" fill="#ed2f00"/>
</svg>