<svg xmlns="http://www.w3.org/2000/svg" viewBox="0 0 100 100">
  <path d="M99.8,47.5c-.5-.5-49.6-41-49.6-41,0,0-1-.9-1.8,0L.1,66.8s-.3.7,0,1c.3.3,28.8,23.9,28.8,23.9,0,0,1.4.7,1.4-1,0,0-3.1-8.2-.9-17.5,0,0,1-7.1,6.2-14.8.6-.8,6.3-10.1,17.7-16.7,0,0,4.9-3.6,14.8-4.7,0,0,9.1-.7,13,2.1,2.2,1.1,5.5,4,6.4,6.9,1.2,3.1.7,6.8-2.7,12.1-2.9,5.1-9.1,8.7-12.4,10-3.1,1.5-9.2,4.5-21.9,5.8-.2.1-.7,0-.9.7-.2.7-1,4-.9,7.7.6,4.1.5,6.7,3.7,9.6,0,0,3.6,3.1,9.8,1.9,0,0,9.7-1.1,16.3-12.6,5.2-8.4,21.2-32.3,21.2-32.3,0,0,.5-.6,0-1.2M67.8,60.4c3.1-6.4,1.4-9,1.4-9,0,0-.9-2.3-3.4-3-2.3-.4-5.4-.5-10.2,6.6-5.1,9-7.1,17.2-7.2,17.5,0,.7.3,1.1,1.2,1,9.5-1.4,15.8-8.8,18.1-13.2" fill="#ff6c39" fill-rule="evenodd"/>
</svg>