<svg xmlns="http://www.w3.org/2000/svg" viewBox="0 0 100 100">
  <path d="M52.2,88.9v11c1.7-.3,3.4-.9,4.8-1.7l31.5-18c4.4-2.6,7.1-7.1,7.1-12.3v-35.8c0-1.6-.3-3.1-.9-4.7l-9.6,5.6-26.4,15.1c-5.4,3.9-6.6,7.4-6.7,11.7v29.1ZM83.2,29.1l9.6-5.6c-1.1-1.6-2.6-2.9-4.1-3.7L57.1,1.9c-4.4-2.6-9.8-2.4-14.1,0L11.6,19.8c-1.7,1-3.1,2.3-4.3,3.9l9.6,5.6,26.4,15.1c3.1,2,5.3,4,6.7,6.3,1.4-2.3,3.6-4.3,6.7-6.3l26.5-15.3ZM14.8,33.1l-9.7-5.6c-.6,1.4-.9,3-.9,4.6v35.9c0,5,2.7,9.7,7.1,12.3l31.4,18c1.4.9,3.1,1.4,4.8,1.7v-40.2c-.1-4.3-1.3-7.8-6.7-11.7l-26.1-15Z" fill="#a5de37"/>
  <path d="M94.9,27.4l-9.6,5.6c.3,1,.6,2.1.6,3.3v27.7c0,4-2.1,7.8-5.7,9.8l-24.2,13.8c-1.1.6-2.3,1-3.6,1.3v11c1.7-.3,3.4-.9,4.8-1.7l31.4-18c4.4-2.6,7.1-7.1,7.1-12.3v-35.8c0-1.6-.3-3.1-.9-4.7ZM20.1,26.4l24.1-13.8c3.6-2,8-2,11.4,0l24.2,13.8c1.3.7,2.3,1.7,3.1,2.7l9.6-5.6c-1.1-1.6-2.6-2.9-4.1-3.7L57.1,1.9c-4.4-2.6-9.8-2.4-14.1,0L11.6,19.8c-1.7,1-3.1,2.3-4.3,3.9l9.6,5.6c1-1.1,2-2.1,3.3-2.9ZM44.2,87.6l-24.1-13.8c-3.6-2-5.7-5.8-5.7-9.8v-27.7c0-1.1.1-2.1.4-3.1l-9.7-5.6c-.6,1.4-.9,3-.9,4.6v35.9c0,5,2.7,9.7,7.1,12.3l31.4,18c1.4.9,3.1,1.4,4.8,1.7v-11c-1.1-.4-2.3-.9-3.4-1.4Z" fill="#c8f178"/>
</svg>