<svg xmlns="http://www.w3.org/2000/svg" viewBox="0 0 100 100">
  <path d="M0,50C0,22.4,22.4,0,50,0s50,22.4,50,50-22.4,50-50,50H11.4C5.1,100,0,94.9,0,88.7h0v-38.7h0ZM76.5,35.9c0-8.9-7.9-15.3-16.3-15.3s-14.7,5.9-15.6,13.4c0,.8,0,1.1,0,1.9,0,4.7,0,9.6-.2,14.4.2,5.8.2,11.6,0,17.1,0,6-4.3,10.2-10,10.2s-10.2-4.5-10.2-10.2c.1-6.2,5-10.1,10.8-10.3h5.9v-8.4h-5.9c-10.5,0-18.9,8.2-19.2,18.7,0,10.2,8.4,18.5,18.5,18.5s17.6-7.5,18.4-16.9v-11.9s7.3,0,7.3,0c5.6,0,5.6-8.4,0-8.3h-7.2c0-1.4,0-2.8,0-4.2,0-2.8,0-5.7,0-8.5,0-3.7,3.5-7,7.4-7s8,1.9,8,7,0,1.1,0,1.4c-.4,2.3,1.2,4.6,3.5,4.9,2.4.3,4.5-1.4,4.7-3.7.1-.9.2-1.8.2-2.6h0Z" fill="#51a2da"/>
</svg>