<svg xmlns="http://www.w3.org/2000/svg" viewBox="0 0 100 100">
  <path d="M52,52l.2-.2c.2-.2.3-.3.5-.5l.3-.3,1-1,5.9-5.9,1.5-1.5c.3-.3.6-.5.9-.8,2.4-2.2,5.2-4.1,8.1-5.5,1.5-.7,3-1.3,4.5-1.8-2.1-8.1-5.9-15.7-11.1-22.3-1-1.3-2.6-2-4.2-2H16.8c-.8,0-1.1,1-.5,1.4,14.6,10.7,26.8,24.5,35.6,40.4,0,0,0,0,.1,0Z" fill="#00d6b9"/>
  <path d="M35,89.8c22.2,0,42.5-12.4,52.5-32.2-.9,1.7-2,3.3-3.2,4.8-1,1.1-2.1,2.2-3.3,3.1-.9.7-1.8,1.3-2.7,1.8-1,.6-2.1,1.1-3.2,1.5-2.7,1-5.5,1.4-8.4,1.4-.8,0-1.6,0-2.3-.1-1.1-.1-2.2-.3-3.2-.6-.3,0-.5-.1-.8-.2-.7-.2-1.5-.4-2.2-.6-.4-.1-.7-.2-1.1-.3-.5-.2-1.1-.3-1.6-.5l-1.3-.4-1.3-.4-.9-.3c-.4-.1-.7-.2-1-.4-.2,0-.5-.2-.7-.3-.5-.2-1-.4-1.5-.5-.3-.1-.6-.2-.8-.3l-1.1-.4c-.4-.2-.8-.3-1.2-.5l-.8-.3c-.3-.1-.6-.3-1-.4l-.7-.3c-.3-.1-.5-.2-.8-.3l-.7-.3-.6-.3-.6-.3c-.2,0-.4-.2-.6-.3-.3-.1-.5-.3-.8-.4-.3-.1-.5-.3-.8-.4-.3-.1-.6-.3-.9-.4-13.5-6.6-25.6-15.6-35.9-26.5-.3-.3-.8-.3-1.1,0C0,34.2,0,34.4,0,34.6v40.9c0,1.8.9,3.5,2.4,4.4,9.6,6.4,21,9.8,32.6,9.8Z" fill="#3370ff"/>
  <path d="M100,36.4c-4.6-2.3-9.7-3.5-14.9-3.4-3.4,0-6.9.5-10.2,1.6-.2,0-.5.2-.7.2-1.3.4-2.6,1-3.8,1.6-.8.4-1.7.8-2.5,1.3-.8.5-1.6,1-2.4,1.5-.5.4-1.1.8-1.6,1.2-.6.5-1.1.9-1.7,1.4-.3.3-.6.5-.9.8l-1.5,1.5-5.9,5.9-1,1-.3.3c-.2.2-.3.3-.5.5l-.3.2c-.1.1-.2.2-.4.4-.1.1-.3.3-.4.4-3.7,3.4-7.8,6.3-12.2,8.6.3.1.5.3.8.4l.6.3c.2,0,.4.2.6.3l.6.3.7.3.8.3.7.3c.3.1.6.3,1,.4.2.1.5.2.8.3.4.2.8.3,1.2.5.4.1.7.3,1.1.4l.8.3c.5.2,1,.4,1.5.5.3,0,.5.2.7.3.4.1.7.2,1,.4l.9.3,1.3.4,1.3.4c.5.2,1.1.3,1.6.5l1.1.3c.7.2,1.5.4,2.2.6.3,0,.5.1.8.2.5.1,1,.2,1.5.3.6,0,1.2.2,1.7.3,1.5.2,2.9.2,4.4,0,2.1-.1,4.3-.6,6.3-1.3,1.1-.4,2.2-.9,3.2-1.5.3-.2.5-.3.8-.5.7-.4,1.3-.9,1.9-1.3.9-.7,1.8-1.5,2.6-2.3.6-.6,1.1-1.2,1.6-1.9.9-1.2,1.7-2.4,2.3-3.7l.6-1.1,5.2-10.3h0c1.7-3.6,4-6.9,6.8-9.7Z" fill="#133c9a"/>
</svg>