<svg xmlns="http://www.w3.org/2000/svg" viewBox="0 0 100 100">
  <path d="M89.9,11.3c0-1.3,6,5.4,7.8,8.6,1.4,2.7,2,4.6,2.2,8.7.3,4.6.1,5.4-1.4,8.1-1.1,1.9-2.7,3.5-4.6,4.6l-2.9,1.7-27.9.3-27.9.3-.2,15.8c0,8.7,0,16.5.2,17.3.3,1.4.7,1.5,3.6,1.3l3.2-.2.4-4.9c.3-4.1.7-5.2,2.2-6.7,1.5-1.5,2.5-1.8,7.3-2.1l5.6-.3.2-4c.2-4.7,1-6.7,3.3-7.7,1.9-.9,27.1-1,27.1-.1,0,1.1-6.3,6.3-9.6,7.9-2,.9-4.9,1.8-6.6,2l-3.2.4-.3,4.6c-.2,3.7-.5,4.9-1.9,6.3-1.5,1.5-2,1.7-7.5,1.7h-5.9v5.4c0,4.9-.2,5.6-1.7,7.1-1.5,1.6-1.9,1.7-11.4,1.7h-9.7l-2.4-2.1c-1.3-1.1-2.7-3.2-3.1-4.5-.5-1.6-.6-9.3-.5-22.1l.2-19.6,2-2.9c1.1-1.5,3.2-3.5,4.7-4.2,2.6-1.3,3.8-1.4,29.2-1.6,29.1-.3,28.3-.1,31-4.5,1.7-2.8,1.7-6.9,0-11.8-.5-1.4-1-2.9-1.3-4.4h0ZM10.3,11.1c.1.1-.3,2-1.1,4-1.5,4.3-1.7,8.9-.5,11.6,1,2.3,4.4,4.3,8.2,4.8,1.7.3,3.1.5,3.1.7s-.7,1.3-1.6,2.6c-.9,1.3-1.9,3.8-2.2,5.4-.3,2.5-.6,3-2.1,3-6.3,0-12.2-4-13.7-9.4-1.6-5.9.7-13.2,5.9-18.9,2.1-2.2,3.8-3.9,4-3.8h0Z" fill="#3374db"/>
</svg>