<svg xmlns="http://www.w3.org/2000/svg" viewBox="0 0 128 128"><path d="M64,0C93.2,0,116.9,23.4,116.9,52.2s-11.1,37.4-28.5,46.3c-3,1.5-6.6.4-8.1-2.6-1.5-3-.4-6.6,2.6-8.1,13.4-6.9,21.9-20.5,21.9-35.6,0-22.1-18.2-40.1-40.8-40.1S23.2,30.1,23.2,52.2s8.9,29.3,22.8,36c3,1.5,4.3,5.1,2.8,8.1-1.5,3-5.1,4.3-8.1,2.8-17.9-8.7-29.6-26.8-29.6-46.9C11.1,23.4,34.8,0,64,0Z" fill="#0cf1f2"/><path d="M64,22.3c16.7,0,30.2,13.5,30.2,30.2s-10.4,26.8-24.2,29.6v39.9c0,3.3-2.7,6-6,6.1-3.2,0-5.9-2.5-6.1-5.8v-.3s0-39.9,0-39.9c-13.8-2.8-24.2-15-24.2-29.6s13.5-30.2,30.2-30.2ZM64,34.3c-10,0-18.1,8.1-18.1,18.1s8.1,18.1,18.1,18.1,18.1-8.1,18.1-18.1-8.1-18.1-18.1-18.1Z" fill="#4599ff"/></svg>