<svg xmlns="http://www.w3.org/2000/svg" viewBox="0 0 100 100"><path d="M98.9,2.5c5.3,5.3-9.4,28.6-11.9,31.1-2.5,2.5-8.8.2-14.1-5.1-5.3-5.3-7.6-11.6-5.1-14.1,2.5-2.5,25.8-17.2,31.1-11.9M24.5,8.1C16.4,3.5,4.9-1.6,1.2,2c-3.7,3.7,1.6,15.5,6.2,23.6,4.1-7.2,10-13.2,17-17.6" fill="#b5010f"/><path d="M90.8,31.7c.7,2.5.6,4.6-.6,5.8-2.8,2.8-10.4-.2-17.3-6.7-.5-.4-1-.9-1.4-1.3-2.5-2.5-4.4-5.1-5.7-7.6-2.4-4.3-3-8.1-1.2-10,1-1,2.6-1.3,4.5-.9,1.3-.8,2.8-1.7,4.4-2.6-6.6-3.5-14.2-5.4-22.2-5.4-26.6,0-48.1,21.5-48.1,48.1s21.5,48.1,48.1,48.1,48.1-21.5,48.1-48.1-2.3-16.6-6.2-23.6c-.9,1.6-1.7,3-2.4,4.2" fill="#b5010f"/></svg>