<svg xmlns="http://www.w3.org/2000/svg" viewBox="0 0 128 128"><path d="M102,41c2.6-3.6,1.8-8.5-1.8-11.1,0,0-.1,0-.2-.1-3.6-2.5-8.6-1.6-11.2,1.9-3.8,5.2-7.9,8.8-12.6,10.9-4,1.6-8.3,2.6-12.6,2.7-4.1-.1-8.2-1.1-12-2.7-4.9-2.2-9-5.7-12.5-10.9-2.5-3.7-7.6-4.6-11.2-2-3.7,2.5-4.6,7.6-2,11.2,0,0,0,0,0,.1,7.9,11.5,21.9,17.2,23.5,17.8-6.3,4.7-13.2,10.9-16.1,19.4-3.3,8.8-3.3,18.5,0,27.4,3.2,8.3,9.3,15.1,17.2,19.1,8.8,4.4,19.7,4.4,29.5,0,10.4-4.7,17-13.2,18.1-22.7,1.1-10.1-3.8-19.1-12.3-23-8.8-3.8-18.6-1.1-25.4,7.1-2.7,3.5-2.1,8.5,1.3,11.2,3.5,2.7,8.5,2.1,11.2-1.3,0,0,0,0,0,0,1.9-2.5,4.1-3.3,6.3-2.5,1.6.8,3.3,3,3,6.8-.3,3.8-3.6,7.4-8.8,9.8-5.5,2.5-11.5,2.5-15.6.3-4.4-2.3-7.8-6.1-9.6-10.7-2-5.1-2-10.8,0-15.9,1.9-5.2,6.6-9.8,15-15,3.5-2.2,7.4-4.4,10.9-6.3-.2.3,19.4-10.4,27.6-21.6ZM63.5,0C53.2,0,44.9,8.3,44.9,18.6s8.3,18.6,18.6,18.6,18.6-8.3,18.6-18.6h0C82,8.3,73.7,0,63.5,0ZM63.5,24.1c-3,0-5.4-2.5-5.4-5.5,0-3,2.5-5.4,5.5-5.4,3,0,5.4,2.5,5.4,5.5,0,3-2.5,5.5-5.5,5.5,0,0,0,0,0,0Z"/></svg>