<svg xmlns="http://www.w3.org/2000/svg" viewBox="0 0 100 100">
  <path d="M62,6.2l-1,.7c1.9.3,3.7,1,5.5,1.6,3.7,1.2,9.4,4.2,13,6.9,9.9,7.3,22,29.2,20.5,41.6-.6,4.9-3.5,7.4-5.1,11.3s-.7,3-1.3,4.5c-5,13.2-18,21.1-31.4,23.7s-6.7,0-10.9-.2-7.1.7-12-2-2.7-2.1-3.4-2.4c-1.7-.6-4.9-.7-6.9-1.3-10.5-2.8-15.1-6.1-21.3-15S0,60.3,0,56.4c0-5.6,3.9-13.1,7.2-17.4s1.9-1.6,2.2-2.3c.7-1.5,1-5.6,1.6-7.7,1.7-5.8,6.6-12.6,11.3-16.4S39.3,3.6,44.1,3.2s11.8,2.4,17.9,3ZM52.4,6.2c-6.1.6-13,.7-18.9,2.2s-4.8,3-7.5,4.2-1.2-.1-1.7,0c-4.6,1.3-10.4,11.1-12.3,15.4l1,.2c.4,2.4-1.3,4.3-1.7,6.5,8.2-10.4,15.8-21.9,29.2-26s7.2-1.2,10.9-1.8,1-.1.9-.6ZM47.9,8c-6.9.5-13.1,4-18.6,7.9s-7.3,5.7-7.8,7.3,0,.6.5.5l3.6-1.9c-.6.4-5.3,4.4-4.8,5,2-.4,2.8-2.4,4.1-3.6,5.1-4.9,10.9-10,17.2-13.2l5.7-2ZM69.1,15.7c.2-.1.3-.9.6-.9s4.8,3.2,6.2,3.3.7,0,1.1-.4c-3.7-2.7-8-6-12.4-7.5s-19.6-1.7-24.7,1.5-2.7,1.6-1.9,3c-1,0-5.8,3.4-5.8,4s1.4.1,1.7,0c1.1-.5,4.1-2.4,5.1-2.5s1.1.6,1.9.6c2.9,0,8.2-1.8,11.7-2s5.8-.2,8.2,0,7.7,1.3,8.3.9ZM55.3,85.6c-1.6.2-3.5,0-5.1,0s-1.3-.3-1.2-.7c4.1.5,8.8-.6,12.8-1.7,9.1-2.6,21-12,26.5-19.7,9.5-13.4-1.6-39.3-16.3-45.2-19.5-7.9-45.6,2.3-58.8,17.7-4.7,5.5-1.6,16.3,1,22.3s10.1,18.3,14.6,21.3,5.6,2.1,7.9,2.6c0,.6-.8.4-1.2.3-1.1,0-2.2-.7-3.3-.5,1.8,1.2,7,7,8.8,7.3s4-.3,5.4-.3c3.7.2,7.2.8,10.9.3,13.2-1.9,25-10.9,30-23.2-4.5,4-8.3,8.8-13.4,12.1s-13.4,6.9-18.6,7.4ZM11,66.8c-2-1.7-4.3-6.3-4.7-8.8-.7-4.1,0-10,.6-14.1l-2.6,5.4c-1.8,4.9-2.2,10.1-1,15.2s6.2,12,8,14.6c4.6,6.3,14.2,11,22,11-1.4-1.6-3-3.1-4.2-4.9s-2.6-5.6-3.9-7.1c-1.8-2.1-6.9-5.3-9.2-7.2-3.3-2.8-6.3-8.1-8.1-12-.7,0-.3,1.1-.2,1.4.7,2.2,2.8,4.1,3.3,6.5ZM8.2,47.1c-.2,1.5,0,3.8,0,5.5,0,3,2.8,10.3,4.5,12.9l3.4,3.8c-4.5-6.9-7.4-14.8-7.2-23.1-.3-.1-.7.7-.7.9ZM95.5,65.1c4.2-4.8,5.4-13.2,1.5-18.5l-1.5,18.5ZM3.4,48.7c-.9-.2-.9.8-1.2,1.4-1,2.4-1.9,6.2-.7,8.5l1.9-9.9ZM15.1,64.1c.3-.3-2.9-8.2-3.4-9.1s-.6-1.6-1.4-1.5c-.4.4,1.3,5.8,1.6,6.7s2.1,4.9,3.1,3.9ZM86.3,75.8c0,0,.7.4,1.3.2,1.8-.8,4.3-5.6,4-7.7-3.1,6.1-7.3,9.5-12.9,13.1s-7.8,3.9-7.5,5.2.9.7,1.4.4c4-2.4,8.2-4.7,11.5-8.1s2.1-2.9,2.3-3ZM89.7,77.1c.8.9,3.2-3.9,2.7-4.8-.8.2-2.9,4.6-2.7,4.8ZM55.8,90.4l-13-.7c.2.5,1.5.7,2.1.8,3.5,1,6,1.7,9.6.7s1.5,0,1.3-.9Z"/>
</svg>