<svg xmlns="http://www.w3.org/2000/svg" viewBox="0 0 100 100"><path d="M62.1,73.4l-20.2-9.7c-2-1-2.8-3.4-1.9-5.4l9.7-20.2c1-2,3.4-2.8,5.4-1.9,2.7,1.3,4.3,2.1,4.3,2.1v-17.4s2.6,0,2.6,0v18.6s9.1,3.8,13.2,6.4c.6.4,1.6,1.1,2.1,2.3.3,1,.3,2.1-.2,3.1l-9.7,20.2c-1,2-3.4,2.9-5.4,1.9Z" fill="#fff"/><path d="M98.2,20.2c-.7-.7-1.5-.6-1.5-.6,0,0-18.6,1-28.3,1.3-2.1,0-4.2,0-6.3.1v18.6c-.9-.4-1.8-.8-2.6-1.3,0-5.8,0-17.4,0-17.4-4.6,0-14.2-.3-14.2-.3,0,0-22.5-1.1-24.9-1.4-1.6,0-3.6-.3-6.2.2-1.4.3-5.3,1.2-8.6,4.3C-1.7,30.2.1,40.4.4,41.9c.3,1.9,1.1,7,5,11.5,7.3,8.9,23,8.7,23,8.7,0,0,1.9,4.6,4.9,8.8,4,5.3,8.1,9.4,12,9.9,10,0,30,0,30,0,0,0,1.9,0,4.5-1.6,2.2-1.4,4.2-3.7,4.2-3.7,0,0,2.1-2.2,4.9-7.2.9-1.5,1.6-3,2.2-4.5,0,0,8.8-18.6,8.8-36.8-.2-5.5-1.5-6.5-1.8-6.8ZM19.1,52.7c-4.1-1.4-5.9-3-5.9-3,0,0-3-2.1-4.6-6.3-2.6-7-.2-11.3-.2-11.3,0,0,1.3-3.6,6.1-4.8,2.2-.6,4.9-.5,4.9-.5,0,0,1.1,9.4,2.5,15,1.1,4.6,3.9,12.4,3.9,12.4,0,0-4.2-.5-6.8-1.4ZM66.8,69.8s-1,2.3-3.1,2.4c-.9,0-1.6-.2-1.6-.2,0,0,0,0-.8-.3l-18-8.7s-1.7-.9-2-2.5c-.3-1.3.4-2.9.4-2.9l8.6-17.8s.8-1.5,1.9-2.1c0,0,.4-.2.7-.2,1.3-.3,2.9.4,2.9.4l17.6,8.5s2,.9,2.4,2.6c.3,1.2,0,2.2-.3,2.7-1,2.4-8.7,18-8.7,18Z" fill="#609926"/><path d="M51.1,56.9c-1.3,0-2.4.9-2.8,2.2s.3,2.6,1.4,3.2c1.2.6,2.8.3,3.6-.9.8-1.1.7-2.7-.3-3.7l3.8-7.8c.2,0,.6,0,1,0,.7-.1,1.1-.6,1.1-.6.7.3,1.4.6,2.1,1,.8.4,1.5.8,2.1,1.2.1,0,.3.2.4.3.3.2.5.5.7.9.3.9-.3,2.4-.3,2.4-.4,1.2-2.9,6.5-2.9,6.5-1.3,0-2.4.8-2.8,2-.4,1.3.2,2.8,1.4,3.4s2.8.3,3.6-.8c.8-1.1.7-2.6-.2-3.6.3-.6.6-1.2.9-1.8.8-1.7,2.1-4.8,2.1-4.8.1-.3.9-1.6.4-3.4-.4-1.8-2-2.7-2-2.7-1.9-1.3-4.6-2.4-4.6-2.4,0,0,0-.7-.2-1.1-.2-.5-.4-.8-.6-1,.7-1.5,1.5-3.1,2.2-4.6-.7-.3-1.3-.6-1.9-1-.8,1.6-1.5,3.1-2.3,4.7-1.1,0-2.1.6-2.6,1.5-.5,1-.4,2.2.3,3.1-1.3,2.7-2.6,5.3-3.9,8Z" fill="#609926"/></svg>