<svg xmlns="http://www.w3.org/2000/svg" viewBox="0 0 100 100">
  <circle cx="50" cy="50" r="50" fill="#c71d23"/>
  <path d="M75.3,44.4h-28.4c-1.4,0-2.5,1.1-2.5,2.5v6.2c0,1.4,1.1,2.5,2.5,2.5,0,0,0,0,0,0h17.3c1.4,0,2.5,1.1,2.5,2.5,0,0,0,0,0,0v.6h0v.6c0,4.1-3.3,7.4-7.4,7.4h-23.5c-1.4,0-2.5-1.1-2.5-2.5v-23.5c0-4.1,3.3-7.4,7.4-7.4,0,0,0,0,0,0h34.6c1.4,0,2.5-1.1,2.5-2.5v-6.2c0-1.4-1.1-2.5-2.5-2.5,0,0,0,0,0,0h-34.6c-10.2,0-18.5,8.3-18.5,18.5v34.6c0,1.4,1.1,2.5,2.5,2.5h36.4c9.2,0,16.7-7.5,16.7-16.7v-14.2c0-1.4-1.1-2.5-2.5-2.5Z" fill="#fff" fill-rule="evenodd"/>
</svg>