<svg xmlns="http://www.w3.org/2000/svg" viewBox="0 0 100 100">
  <path d="M42.3,72.4c-12.9-1.6-22-10.8-22-22.9s1.8-10.2,4.7-13.7c-1.3-3.2-1.1-10.1.4-12.9,3.9-.5,9.2,1.6,12.3,4.4,3.7-1.2,7.6-1.8,12.4-1.8s8.7.6,12.2,1.7c3-2.7,8.4-4.8,12.3-4.3,1.4,2.6,1.6,9.5.3,12.8,3.1,3.7,4.8,8.7,4.8,13.8,0,12-9.1,21.1-22.2,22.8,3.3,2.1,5.6,6.8,5.6,12.2v10.2c0,2.9,2.4,4.6,5.4,3.4,17.7-6.7,31.5-24.4,31.5-46.3S77.5,1.6,49.9,1.6,0,24.1,0,51.8s13.8,39.7,32.3,46.4c2.6,1,5.2-.8,5.2-3.4v-7.8c-1.5.6-3.1,1-4.7,1-6.4,0-10.3-3.5-13-10.1-1.1-2.6-2.2-4.2-4.5-4.5-1.2-.1-1.6-.6-1.6-1.2,0-1.2,2-2,3.9-2,2.8,0,5.3,1.8,7.8,5.4,2,2.8,4,4.1,6.4,4.1s4-.9,6.2-3.1c1.7-1.7,2.9-3.1,4.1-4.1"/>
</svg>