<svg xmlns="http://www.w3.org/2000/svg" viewBox="0 0 100 100">
  <path d="M13.2,80.4h23.1s-4.6,5-4.6,5H11.5s-4.5-4.9-4.5-4.9v-6.7l6.1,6.6ZM70,85.4h0l-4.6-5h4.6v5ZM64,85.4h-26.4l13.2-15,13.2,15ZM94.6,80.5l-4.5,4.9h-1.3v-5.3l5.8-6.3v6.7ZM78.6,67c.5-.3,1.1-.3,1.6,0,.5.3.8.9.8,1.5v9.1c0,.5-.2.9-.5,1.2-.3.3-.7.5-1.1.5-.4,0-.8-.2-1.1-.5-.3-.3-.5-.8-.5-1.2v-9.1c0-.6.3-1.2.8-1.5ZM11.7,17.8c1.6,25,12.4,28.1,20.7,28.1h38.2c1.8-.1,3.6.6,4.8,2,2.1,2.5,2.1,6.8,2,8.4-4.3,1-7.5,5.1-7.5,9.9v10.4h-7.4l-11.7-12.6-11.9,12.6H14.7l-7.6-8.2v-5.7h5.8v-16.4h-5.8v-23.6l4.6-4.9ZM94.6,22.7v12.5h-7.2s0,15.2,0,15.2h7.2v18.1l-5.8,6.3v-8.5c0-4.7-3-8.8-7.3-9.8,0-2.3,0-7.7-3-11.3-2-2.4-4.9-3.6-7.8-3.5h-38.2c-4.9,0-16,0-16.8-27h71.5l7.6,8.2ZM10.3,60.7h-3.3v-3.5h3.3v3.5ZM4.9,56.1v3.5H1.6v-3.5h3.3ZM11,54.6h-5.4v-5.8h5.4v5.8ZM3.3,51.5H0v-3.5h3.3v3.5ZM94.6,48.5h-3.3v-3.5h3.3v3.5ZM100,44.5h-3.3v-3.5h3.3v3.5ZM94.6,43.3h-5.4v-5.8h5.4v5.8ZM100,37.9h-3.3v-3.5h3.3v3.5Z" fill="#5f79ff"/>
</svg>