<svg xmlns="http://www.w3.org/2000/svg" viewBox="0 0 128 128"><path d="M97.4,38.1c2.9,4.5,4.3,10.2,3.6,16.2-1.4,11.2-10.2,20-21.4,21.4-8.1,1-15.4-1.9-20.7-7.1s-8.1-12.6-7.1-20.7c1.4-10.9,10.5-20,21.4-21.4,5.9-.7,11.6.7,16.2,3.6l13.8-12.6c-13.1-4-42-12.1-63.9,13.5-12.8,15.2-20,66.5-20,66.5l-18.1,5.2c-1.4.5-1.7,2.6,0,3.1l9.7,3.8c3.6,1.4,6.2,4,7.6,7.6l3.8,9.7c.5,1.4,2.6,1.4,3.1-.2l5.2-17.8s51.5-7.1,66.5-20c25.7-21.9,17.3-50.8,13.3-63.9l-13.1,13.1Z" fill="#2c79f7"/><path d="M76.7,36.2c-8.3,0-15.2,6.9-15.2,15.2s6.9,15.2,15.2,15.2,15.2-6.9,15.2-15.2-1.7-8.1-4.5-10.7c-2.9-2.9-6.4-4.5-10.7-4.5Z" fill="#2c79f7"/><circle cx="119.7" cy="8.4" r="8.3" fill="#2c79f7" isolation="isolate" opacity=".6"/></svg>