<svg xmlns="http://www.w3.org/2000/svg" viewBox="0 0 100 100">
  <path d="M87.4,38.3c-2-7.2-6.1-13.6-11.6-18.5l-12.1,12.1c4.4,3.6,7.4,8.9,7.9,14.9v4c0,0,.1,0,.2,0,6.1,0,11.1,5,11.1,11.1s-5,11.1-11.1,11.1-.1,0-.2,0h0s-17.5,0-17.5,0h-4.1v17.1h21.6c0,0,.1,0,.2,0,15.5,0,28.2-12.6,28.2-28.2s-5-18.4-12.6-23.5Z" fill="#1976d2"/>
  <path d="M50,10c-21.4,0-38.8,17.4-38.8,38.8s0,1.2,0,1.8h17.1c0-.6,0-1.2,0-1.8,0-12,9.7-21.7,21.7-21.7s9.9,1.8,13.7,4.9l12.1-12.1c-6.9-6.1-15.9-9.9-25.8-9.9Z" fill="#ff3d00"/>
  <path d="M28.2,72.9h0c-1.6,0-3.1-.4-4.5-1l-12.4,12.4c4.7,3.6,10.6,5.7,16.9,5.7h21.8v-17.1h-21.8Z" fill="#4caf50"/>
  <path d="M17.1,61.8c0-6.1,5-11.1,11.1-11.1s8.4,2.7,10.1,6.6l12.4-12.4c-5.2-6.8-13.3-11.3-22.5-11.3-15.5,0-28.2,12.6-28.2,28.2s4.4,17.3,11.3,22.5l12.4-12.4c-3.9-1.7-6.6-5.6-6.6-10.1Z" fill="#ffc107"/>
</svg>