<svg xmlns="http://www.w3.org/2000/svg" viewBox="0 0 128 128"><path d="M74.3,125c-33.6,0-61-27.4-61-61s.4-8.2,1.2-12.2l-3-.6c-.8,4.2-1.3,8.5-1.3,12.8,0,35.3,28.6,64,64,64,2.3,0,4.6-.1,6.9-.4l-.3-3c-2.2.2-4.4.4-6.6.4h0ZM74.3,3c7.6,0,15,1.4,22.1,4.1l1.1-2.8C74-4.7,47.5.7,29.5,18.3l2.1,2.2C43,9.3,58.3,3,74.3,3h0ZM74.3,13.3c9.1,0,18,2.5,25.9,7.1l1.5-2.6c-8.3-4.9-17.8-7.5-27.4-7.5-28,0-51.1,21.5-53.5,48.9l3,.3c2.3-25.8,24.1-46.2,50.5-46.2M74.3,114.7c-25.2,0-46.2-18.5-50.1-42.6l-3,.5c4.1,25.6,26.3,45.2,53,45.2,8.1,0,16-1.8,23.3-5.3l-1.3-2.7c-6.9,3.3-14.4,5-22,5M114.7,65.7c-.9,21.5-18.7,38.7-40.4,38.7-5.5,0-11-1.1-16-3.3l-1.2,2.8c5.4,2.4,11.3,3.6,17.2,3.6,23.4,0,42.5-18.5,43.4-41.7h-3,0ZM74.3,23.6v-3c-23.9,0-43.4,19.5-43.4,43.4s1.3,12.4,3.9,18l2.7-1.3c-2.4-5.3-3.7-11-3.6-16.8,0-22.3,18.1-40.4,40.4-40.4h0ZM74.3,33.9c9.3,0,18.2,4.3,23.9,11.8h3.7c-6.1-9.2-16.5-14.8-27.6-14.8-18.3,0-33.1,14.9-33.1,33.1s14.8,33.1,33.1,33.1,32.2-13.9,33.1-31.4h-22.5v3h19.2c-2.6,16.4-18,27.6-34.5,25-16.4-2.6-27.6-18-25-34.5,2.3-14.6,14.9-25.4,29.7-25.4h0Z" fill="#121212"/></svg>