<svg xmlns="http://www.w3.org/2000/svg" viewBox="0 0 100 100">
  <path d="M38.6,63.6l33.2-24.6c1.6-1.2,4-.7,4.7,1.1,4.1,9.9,2.3,21.7-5.9,29.9-8.1,8.1-19.4,9.9-29.8,5.9l-11.3,5.2c16.2,11.1,35.9,8.3,48.2-4,9.8-9.8,12.8-23.1,10-35.1h0c-4.1-17.6,1-24.7,11.5-39.1.2-.3.5-.7.7-1l-13.8,13.8h0s-47.6,47.9-47.6,47.9M31.8,69.6c-11.6-11.1-9.6-28.3.3-38.3,7.3-7.3,19.4-10.3,29.9-5.9l11.3-5.2c-2.3-1.7-4.9-3.1-7.6-4.2-14-5.7-30-2.5-40.6,8.2-10.6,10.6-13.9,26.8-8.2,40.7,4.3,10.4-2.7,17.7-9.7,25.1-2.5,2.6-5,5.2-7,8l31.7-28.4" fill-rule="evenodd"/>
</svg>