<svg xmlns="http://www.w3.org/2000/svg" viewBox="0 0 100 100">
  <path d="M69.7,94c0,1.6.6,3.1,1.7,4.2,1.1,1.1,2.6,1.7,4.2,1.7,2.1,0,4.5,0,6.7,0,3.3,0,5.9-2.7,5.9-6V6c0-1.6-.6-3.1-1.7-4.2-1.1-1.1-2.6-1.7-4.2-1.7h-6.7c-1.6,0-3.1.6-4.2,1.7-1.1,1.1-1.7,2.6-1.7,4.2,0,17.8,0,70.3,0,88.1Z" fill="#003580"/>
  <path d="M82.3,36.9c1.6,0,3.1.6,4.2,1.7,1.1,1.1,1.7,2.6,1.7,4.2v51.2c0,1.6-.6,3.1-1.7,4.2-1.1,1.1-2.6,1.7-4.2,1.7h-6.7c-1.6,0-3.1-.6-4.2-1.7s-1.7-2.6-1.7-4.2v-29.2c0-1.6-.6-3.1-1.7-4.2-1.1-1.1-2.6-1.7-4.2-1.7H11.7v-21.9h70.6Z" fill="#0051b0"/>
  <path d="M11.7,94c0,1.6.6,3.1,1.7,4.2,1.1,1.1,2.6,1.7,4.2,1.7,2.1,0,4.5,0,6.7,0,3.3,0,5.9-2.7,5.9-6V6C30.3,2.7,27.7,0,24.4,0,22.2,0,19.8,0,17.7,0c-1.6,0-3.1.6-4.2,1.7-1.1,1.1-1.7,2.6-1.7,4.2,0,0,0,88.1,0,88.1Z" fill="#066dda"/>
</svg>