<svg xmlns="http://www.w3.org/2000/svg" viewBox="0 0 100 100">
  <path d="M73.5,50c3.9,0,7.9,0,11.8,0l2.4-11.8h12.3c-1.7,7.7-2.9,15.5-6,22.9-8.4,19.8-27.9,34-49.3,35.9l-.4.2h-5.1l2.4-11.6h-12.1l2.4-11.8c4.1,0,8.2,0,12.3,0s7.9,0,11.8,0l2.4-11.8c0,0,.2,0,.2,0,3.9,0,7.9.1,11.8-.1l2.6-11.7c0,0,.2,0,.2,0Z" fill="#071afe"/>
  <path d="M61.2,50c.8-4,1.5-7.9,2.4-11.8h12.3l-2.4,11.8c0,0-.2,0-.2,0-4,0-8,0-12.1,0Z" fill="#5c69fe"/>
  <path d="M71.3,2.8l-2.4,11.6h-12.3s-2.4,11.8-2.4,11.8h-12c0,0-2.5,11.9-2.5,11.9h-12.1c0,.1-2.6,11.9-2.6,11.9h12.1l-2.4,11.8c4,0,8,0,12.1,0-.8,4-1.7,7.9-2.4,11.8-4.1,0-8.2,0-12.3,0l-2.4,11.8h12.1l-2.4,11.6c-1.5,0-3.1.1-4.6,0-12.1-.9-23.9-8-29.8-18.6s-5.7-27.3.1-40.4h10.4c0-.1,2.6-11.7,2.6-11.7h12.1c0-.1,2.4-11.9,2.4-11.9h12c0,0,2.2-10.7,2.2-10.7l5.3-1h19.3Z" fill="#5c69fe"/>
  <path d="M61.2,50c-.8,4-1.4,7.9-2.4,11.8,0,0-.2,0-.2,0-3.9,0-7.9,0-11.8,0,0-.3,0-.8,0-1.3.7-3.5,1.5-7,2.3-10.5,4-.2,8.1,0,12.1-.1Z" fill="#5c69fe"/>
  <path d="M46.7,3.8l-2.2,10.6h-12c0,0-2.4,11.9-2.4,11.9h-12.1c0,.1-2.6,11.8-2.6,11.8H5C12.8,20.7,28,8.1,46.7,3.8Z" fill="#808afe"/>
</svg>