<svg xmlns="http://www.w3.org/2000/svg" viewBox="0 0 128 128"><path d="M128,118.33c0,4.4-3.6,8-8,8H8c-4.4,0-8-3.6-8-8v-48c0-4.4,2.54-10.54,5.66-13.66L58.34,3.99c3.11-3.11,8.2-3.11,11.31,0l52.69,52.69c3.11,3.11,5.66,9.26,5.66,13.66v48h0Z" fill="#f2f4f9"/><path d="M122.34,56.68L69.66,3.99c-3.11-3.11-8.2-3.11-11.31,0L5.66,56.68c-3.11,3.11-5.66,9.26-5.66,13.66v48c0,4.4,3.6,8,8,8h49.21l-21.67-21.67c-1.11.38-2.3.6-3.54.6-6.03,0-10.93-4.91-10.93-10.93s4.91-10.93,10.93-10.93,10.93,4.91,10.93,10.93c0,1.24-.22,2.43-.6,3.55l16.87,16.87v-61.8c-3.63-1.78-6.13-5.5-6.13-9.81,0-6.03,4.91-10.93,10.93-10.93s10.93,4.91,10.93,10.93c0,4.3-2.51,8.03-6.13,9.81v43.34l16.78-16.78c-.33-1.05-.51-2.15-.51-3.31,0-6.03,4.91-10.93,10.93-10.93s10.93,4.91,10.93,10.93-4.91,10.93-10.93,10.93c-1.33,0-2.6-.25-3.78-.69l-23.42,23.42v16.47h51.2c4.4,0,8-3.6,8-8v-48c0-4.4-2.54-10.54-5.66-13.66h0Z" fill="#18bcf2"/></svg>