<svg xmlns="http://www.w3.org/2000/svg" viewBox="0 0 100 100">
  <polygon points="12.5 89.4 5 89.4 5 82.8 1.7 82.8 1.7 99.1 5 99.1 5 92.5 12.5 92.5 12.5 99.1 15.8 99.1 15.8 82.8 12.5 82.8 12.5 89.4" fill-rule="evenodd"/>
  <path d="M31.1,92.2c0,2.6-1.3,4-3.7,4s-3.7-1.5-3.7-4.2v-9.2h-3.3v9.3c0,4.6,2.5,7.2,7,7.2s7-2.7,7-7.3v-9.2h-3.3v9.3Z" fill-rule="evenodd"/>
  <polygon points="69.2 94 65.6 82.8 62.9 82.8 59.2 94 55.6 82.8 52 82.8 57.7 99.1 60.5 99.1 64.1 88.4 67.9 99.1 70.6 99.1 76.3 82.8 72.8 82.8 69.2 94" fill-rule="evenodd"/>
  <polygon points="82.2 92.1 88.2 92.1 88.2 89.2 82.2 89.2 82.2 85.8 90.9 85.8 90.9 82.8 78.9 82.8 78.9 99.1 91.2 99.1 91.2 96.1 82.2 96.1 82.2 92.1" fill-rule="evenodd"/>
  <rect x="95.2" y="82.8" width="3.3" height="16.2"/>
  <path d="M46.1,82.8h-2.9l-7.2,16.3h3.4l1.4-3.1v-.2h7.5l1.5,3.4h3.5l-7.1-16.2h0ZM47.1,92.8h-5l.2-.4h0l2.3-5.5,2.4,5.5h0v.4Z"/>
  <path d="M13.4,39.2c7.4,7.2,25.3,16.2,29.4,18.3,0,0,.3,0,.4,0,0,0,.2-.1,0-.4h0C31.9,32.3,16.4,13.5,16.4,13.5c0,0-8.5,8-7.9,16,.3,6,4.9,9.6,4.9,9.6ZM40.5,63.5c0-.3-.4-.3-.4-.3h0l-29.8,1c3.2,5.7,8.7,10.2,14.3,8.8,3.9-1,12.8-7.1,15.7-9.2h0c.2-.2.1-.4.1-.4ZM12.6,59.8c2.9,1.2,5.7,1.2,5.7,1.2.5,0,17.7,0,22.3,0,.2,0,.3-.2.3-.2.1-.2-.1-.5-.1-.5h0C27.8,51.6,2.4,38.1,2.4,38.1c-2.3,7.1.8,12.8.8,12.8,3.2,6.8,9.4,8.9,9.4,8.9ZM89.6,64.3l-29.8-1h0s-.3,0-.3.2c0,0,0,.3.1.4h0c2.9,2,11.5,8,15.6,9.2,0,0,7.7,2.6,14.4-8.8ZM56.7,56.9s-.1.3,0,.5c0,0,.2.1.4,0h0c4.3-2.1,22-11.1,29.4-18.2,0,0,4.6-3.7,4.9-9.7.5-8.3-7.9-16-7.9-16,0,0-15.5,18.7-26.9,43.4h0ZM52.5,54.7c0,.3.2.3.2.3.3.1.4-.2.4-.2h0c2.9-4.1,15.7-23.1,18.3-34.7,0,0,1.4-5.6,0-9.4,0,0-2-7.2-9.8-9.1,0,0-2.3-.6-4.7-.9h0s-8.8,11.3-4.5,54h0ZM46.8,54.9c.2.2.4.1.4.1.3,0,.3-.4.3-.4h0C51.7,12,42.9.7,42.9.7c-1.3.1-4.8.9-4.8.9-7.9,2-9.7,9.1-9.7,9.1-1.4,4.5,0,9.4,0,9.4,2.6,11.6,15.6,30.7,18.3,34.7ZM97.5,38.1s-25.3,13.5-38.4,22.3h0s-.2.1-.1.4c0,0,.1.2.3.2h0c4.7,0,22.4,0,22.9,0,0,0,2.3,0,5.1-1.2,0,0,6.3-2,9.6-9.1,0,0,2.9-5.8.6-12.6Z" fill="#c7000b" fill-rule="evenodd"/>
</svg>