<svg xmlns="http://www.w3.org/2000/svg" viewBox="0 0 128 128"><path d="M16.6,0h94.7C120.6,0,128,7.4,128,16.6h0v94.8c0,9.2-7.4,16.6-16.6,16.6H16.6C7.4,128,0,120.6,0,111.4V16.6C0,7.4,7.4,0,16.6,0h0Z" fill="#023894"/><path d="M56.5,6.7l-.8,4.9c1.1,1,3.7,2.6,3.7,2.6,3.7,1.6,20.6,15.1,20.6,15.1l4.5,3.7c23.4,19,30.1,20.6,30.1,20.6,4.1,1.2,9.2,1.7,13.5,1.9v40.7h-2.5l-7.2,3v6.3c.1,0,7.2-2.7,7.2-2.7v.6c0,2.4.2,10.9.4,16.2-.9,1.6-2.1,3.1-3.5,4.3h-4.8c-2.1-.1-3.1-2.5-3.9-6l-.2-.9c-.9-4-2.7-9.4-2.9-9.5-.2,0-.2.5-.2.5v14.4c-1.2,4.9-5.5,5-5.5,5H40.2l.3-6c1.1-7.7,6.8-8.6,6.8-8.6,1.4-.9,12-1.1,12-1.1h1.9c4.2-.5,4.6-1,4.6-1,2.9-.9,1.4-3.2.6-4.1l-.4-.5c-9.1-9.3-12.2-24.7-12.2-24.7-2.2-11.7-5.2-15.8-5.2-15.8-2.7-4.1-7.4-5.7-9.6-6.2l-1.2-.2c-6-1.5-12.8.1-12.8.1-1.7.2-2.7.2-2.7.2-2.1-.4-3-1.2-3.3-1.7l-.2-.3c-2.2-3.7-1.3-9.8-1.3-9.8-3.5-3.3-5.4-9.3-5.4-9.3-.4-2.4-.2-4.7-.2-4.7-2.4-4.2-2.6-9-2.6-9,1.5-1.5,4.4-3,4.4-3,1.6-1.2,10.2-4.4,10.2-4.4l3-4.7c3.8-.9,16.9-1.4,16.9-1.4v-.2c.1,0,3.8-2.6,3.8-2.6,1.3-1.5,5.6-1.8,7.7-1.8h1.2s0,0,0,0Z" fill="#fdd000"/><path d="M73.9,93.1h4.6v3.2c.7,14.2,2.1,18.9,2.1,18.9h3.7l.5,4.4h-12.9l-.6-4.4h4.4c-1.3-3.8-1.9-17.2-1.9-17.2h-.2s-4.8,1.8-4.8,1.8l-.2-4.7,5.3-1.9h0ZM125.3,96.1h2.7v15.3c0,3-.8,5.7-2.1,8.2l-.5-16.9-7,2.7-.2-6.2,7.2-3h0ZM94.9,72.6h4.6c0-.1,0,.5,0,.5,0,1.5,0,5.6,0,9.8v12.7s3.7,0,3.7,0v4.4c.1,0-13,0-13,0l-.3-4.4h4.6s0-18.1,0-18.1l-4.9,1.9v-4.7l5.4-2.2h0ZM119.4,54.5c2.9.5,5.9.7,8.6.9v1.2c-.7,0-1.7.1-1.7.1-2.4.6-2.7,2.9-2.7,2.9v1c-.2,4.4-.4,21.6-.4,21.6.6,2.6,3.1,2.7,3.1,2.7h1.5v5.8c-1,0-2.3,0-3.1,0l-.8-.2c-1-.3-3.4-1.1-5-3l-.6-.8c-.3-.5-1.4-2.4-1.5-5.9l.5-19.9v-1.2c.3-.9.5-2,.8-2.8l.3-.7c.3-.5.5-1,.8-1.5ZM69.4,57.6l4.3-.4-.6,3.2c-.8,4.7-2,13.6-1.5,19.7h3.8c0-.1,0,1.6,0,1.6,0,.8.1,1.7.3,2.4l-13.4.6-.2-2.6c0-.6,0-1.1,0-1.7l4.7-.2v-2.9c0-3.6.3-10,1.4-15.2l-5.2,2.4,1-4.5,5.4-2.6h0ZM93.7,40.2l2.4,1.8,1.1.8c-.5.5-.8,1.1-.9,1.7l-1.4,14.2c-.1,1.1,0,1.9,1,2.2.9.3.9.2,2,.1,1.2,0,1.6-1.2,1.8-1.5.2-.3.2-1.6.2-1.6-.1-.8.9-9.6,1.2-12.5l2.3,1.6,2.1,1.4-.6,8.8c-.1,3.6-1.3,5-1.3,5-1.2,2.2-3.6,2.9-4.4,3.1h-.2c-2.5.6-5.2-.1-5.2-.1-3.1-1.2-3.5-3.8-3.5-3.8-.5-1.9,0-4.3,0-4.3,0-1.1,1.4-12.1,1.4-12.1.2-1.5.8-3,1.1-3.5.3-.5.6-1,1-1.3h0Z" fill="#023894"/></svg>