<svg xmlns="http://www.w3.org/2000/svg" viewBox="0 0 100 100">
  <defs>
    <linearGradient id="gradient" x1="-867.4" y1="1092.4" x2="-866.5" y2="1092.4" gradientTransform="translate(66474.7 -7598.3) rotate(45) scale(48)" gradientUnits="userSpaceOnUse">
      <stop offset="0" stop-color="#00f9e5"/>
      <stop offset=".6" stop-color="#299df4"/>
      <stop offset="1" stop-color="#4a54ff"/>
    </linearGradient>
    <linearGradient id="gradient_2" x1="-951.1" y1="1176.1" x2="-950.2" y2="1176.1" gradientTransform="translate(-72052.4 -7598.4) rotate(135) scale(48 -48)" gradientUnits="userSpaceOnUse">
      <stop offset="0" stop-color="#00f9e5"/>
      <stop offset=".6" stop-color="#299df4"/>
      <stop offset="1" stop-color="#4a54ff"/>
    </linearGradient>
  </defs>
  <path d="M91.3,54.4c.7.9,1,2,.9,3.1-.9,22.4-19.4,40.3-42.1,40.3S8.9,79.9,8,57.5c0-1.1.3-2.2.9-3.1L46.6,4.4c1.9-2.5,5.7-2.5,7.6,0,0,0,37.1,50,37.1,50Z" fill="#00f9e5"/>
  <path d="M36.6,71c-8.5,7.7-21.6,7-29.3-1.4C-.4,61,.3,47.9,8.7,40.3c8.5-7.7,21.6-7,29.3,1.4s7.1,21.6-1.4,29.3Z" fill="#fff"/>
  <path d="M22.7,78.2c-6.2,0-12.4-2.5-16.8-7.4-8.4-9.3-7.7-23.7,1.6-32.1,4.5-4.1,10.3-6.2,16.3-5.9s11.6,2.9,15.7,7.4c8.4,9.3,7.7,23.7-1.6,32.1-4.4,3.9-9.8,5.9-15.2,5.9ZM22.6,36.7c-4.7,0-9.1,1.7-12.6,4.9-7.7,6.9-8.3,18.9-1.3,26.6,3.3,3.8,8,5.9,13.1,6.2s9.9-1.5,13.6-4.9c7.7-6.9,8.3-18.9,1.3-26.6-3.3-3.8-8-5.9-13.1-6.2,0,0-.9,0-.9,0Z" fill="#0c6066"/>
  <path d="M15.2,47.3c-4.5,4.1-4.9,11-.8,15.5,4.1,4.5,11,4.9,15.5.8,1.5-1.3,2.5-3,3.1-4.8l-17.8-11.5Z" fill="#1e1e1e"/>
  <path d="M22,34.2L44.9,2.7c1.3-1.7,3.2-2.7,5.3-2.7s4,1,5.3,2.7l22.6,31.6-4.5.3L52.5,5c-.5-.7-1.3-1.1-2.3-1.1s-1.7.4-2.2,1.1l-22,30.1-4.1-.9ZM14.8,75c1.9,3.7,4.5,7,7.6,10,7.4,7.1,17.2,11.1,27.5,11.1s20.1-3.9,27.5-11.1c3.3-3.2,6-6.9,8-10.9l5.4-2.9c-2.3,6.2-5.9,11.9-10.8,16.6-8.2,7.9-18.9,12.2-30.2,12.2-11.3,0-22.1-4.3-30.2-12.1-4.8-4.6-8.4-10-10.6-16.1,0,0,5.7,3.2,5.7,3.2Z" fill="#0c6066"/>
  <path d="M41.7,63.9c3.3-7.5,1.9-16.7-4.3-22.9-7.7-7.8-20.3-8.2-28.5-1-.6.6-1.2,1.1-1.8,1.8-.2.2,0,.4,0,.5l33.9,21.8c.2,0,.5,0,.6-.2Z" fill="url(#gradient)"/>
  <path d="M41.7,63.9l1.8.8c1.3-2.9,1.9-6,1.9-9.1,0-5.8-2.2-11.5-6.5-16-4.4-4.4-10.3-6.7-16.2-6.7s-10.8,1.8-15.1,5.7c-.7.6-1.3,1.3-1.9,1.8-.4.5-.6,1-.6,1.6s.3,1.5,1.1,1.9l33.8,21.8c.4.3.8.3,1.3.3s.8,0,1.3-.3c.3-.3.7-.6.9-1l-1.8-.8-1.8-.8,1.4.7-.8-1.3c-.3.2-.5.4-.6.7l1.4.7-.8-1.3.8,1.3v-1.6c-.3,0-.6,0-.8.3l.8,1.3v-1.6,1.6l.8-1.3c-.3-.2-.6-.3-.8-.3v1.6l.8-1.3L8.3,40.7l-.8,1.3h1.6c0-.5-.3-1-.8-1.3l-.8,1.3h1.6-1.6l1.2,1.1c.3-.3.4-.7.4-1.1h-1.6l1.2,1.1c.5-.5,1-1.1,1.6-1.6,3.5-3.1,7.9-4.7,12.5-4.7s9.8,1.8,13.4,5.5c3.7,3.7,5.4,8.5,5.4,13.2s-.5,5.2-1.6,7.5l1.8.8h0Z" fill="#0c6066"/>
  <path d="M63.4,71c8.5,7.7,21.6,7,29.3-1.4,7.7-8.5,7-21.6-1.4-29.3-8.5-7.7-21.6-7-29.3,1.4s-7.1,21.6,1.4,29.3Z" fill="#fff"/>
  <path d="M62.1,72.4c-9.3-8.4-10-22.8-1.6-32.1,4.1-4.5,9.6-7.1,15.7-7.4,6-.3,11.9,1.8,16.3,5.9,9.3,8.4,10,22.8,1.6,32.1-4.4,4.9-10.6,7.4-16.8,7.4s-10.9-1.9-15.2-5.9ZM76.4,36.7c-5,.3-9.6,2.4-13.1,6.2-6.9,7.7-6.4,19.7,1.3,26.6,3.8,3.3,8.5,5.1,13.6,4.9,5-.3,9.6-2.4,13.1-6.2,6.9-7.7,6.4-19.7-1.3-26.6-3.5-3.2-7.9-4.9-12.6-4.9,0,0-.9,0-.9,0Z" fill="#0c6066"/>
  <path d="M84.8,47.2c4.5,4.1,4.9,11,.8,15.5-4.1,4.5-11,4.9-15.5.8-1.5-1.3-2.5-3-3.1-4.8,0,0,17.8-11.5,17.8-11.5Z" fill="#1e1e1e"/>
  <path d="M58.3,63.8c-3.3-7.5-1.9-16.7,4.3-22.9,7.7-7.8,20.3-8.2,28.5-1,.6.6,1.2,1.1,1.8,1.8.2.2,0,.4,0,.5l-33.9,21.8c-.3.2-.5,0-.6-.2Z" fill="url(#gradient_2)"/>
  <path d="M58.3,63.8l1.8-.8c-1.1-2.4-1.6-4.9-1.6-7.5,0-4.8,1.8-9.5,5.4-13.2,3.6-3.7,8.5-5.5,13.4-5.5s8.9,1.6,12.5,4.7c.6.5,1.1,1,1.6,1.6l1.2-1.1h-1.6c0,.3.2.8.4,1.1l1.2-1.1h-1.6,1.6l-.8-1.3c-.4.3-.8.8-.8,1.3h1.6l-.8-1.3-33.9,21.8.8,1.3v-1.6c-.3,0-.6,0-.8.3l.8,1.3v-1.6,1.6l.8-1.3c-.3-.2-.5-.3-.8-.3v1.6l.8-1.3-.8,1.3,1.4-.7c-.2-.3-.3-.6-.6-.7l-.8,1.3,1.4-.7-1.8.8-1.8.8c.2.4.5.8.9,1,.3.3.8.3,1.3.3s.8,0,1.3-.3l33.9-21.8c.7-.4,1-1.2,1-1.9s-.2-1.1-.6-1.5c-.6-.7-1.3-1.3-1.9-1.8-4.3-3.8-9.7-5.7-15.1-5.7s-11.8,2.3-16.2,6.7c-4.4,4.4-6.5,10.2-6.5,16s.7,6.2,1.9,9.1c0,0,1.8-.8,1.8-.8Z" fill="#0c6066"/>
</svg>