<svg xmlns="http://www.w3.org/2000/svg" viewBox="0 0 100 100"><defs><clipPath id="clippath"><rect width="100" height="100" rx="21.9" ry="21.9" fill="none"/></clipPath></defs><g clip-path="url(#clippath)"><rect width="100" height="100" rx="21.9" ry="21.9" fill="#fff"/><circle cx="25.3" cy="88.2" r="40.9" fill="#4dee9e"/><circle cx=".9" cy="38.8" r="49.5" fill="#f6f7fa"/><circle cx="66.2" cy="121.1" r="45.7" fill="#d6e807"/><path d="M94.4,27.6c4.2-3.6,3.4-11.6-1.9-18-5.3-6.3-12.9-8.5-17.2-4.9-4.2,3.6-3.4,11.6,1.9,18,5.3,6.3,12.9,8.6,17.2,4.9Z"/><path d="M5.6,27.6c-4.2-3.6-3.4-11.6,1.9-18C12.7,3.3,20.4,1.1,24.6,4.7c4.2,3.6,3.4,11.6-1.9,18-5.3,6.3-12.9,8.6-17.2,4.9Z"/><path d="M19.5,63.6c-4.2-3.6-3.4-11.6,1.9-18,5.3-6.3,12.9-8.6,17.2-5,4.2,3.6,3.4,11.6-1.9,18-5.3,6.3-12.9,8.6-17.2,5Z"/><path d="M63.3,58.7c-5.2-6.3-6.1-14.4-1.9-18,4.2-3.6,11.9-1.4,17.2,5,5.2,6.3,6.1,14.4,1.9,18-4.2,3.6-11.9,1.4-17.2-5Z"/><path d="M50,65.6c3.7,0,6.6-1.8,6.6-4.1s-3-4.1-6.6-4.1-6.6,1.8-6.6,4.1,3,4.1,6.6,4.1Z"/></g></svg>