<svg xmlns="http://www.w3.org/2000/svg" viewBox="0 0 100 100">
  <path d="M90.1,45.1c1,1.3,1.7,3.2,1.6,7-1.1,12-11.3,19.6-21.4,19.6s-18.7-7.9-23.4-16.7c-1.1-2.1-1.9-4.4-2.6-6.4-1.5,2-4.6,5.3-6.1,6.8,1,2.7,2.2,5.3,3.7,7.7,1.2,1.9,4.4,6.3,8.8,9.8,4.1,3.1,8,5.1,12.4,6.2,7.5,1.8,15.3.7,22-3.1,8-4.6,13.6-13,14.6-21.8-2-3.3-6.2-7.1-9.6-8.9Z" fill="#e1251b"/>
  <path d="M23,41.9c2.8,0,5.5.8,7.9,2.3,1.9-2,3.6-4.1,5.3-6.2-10.4-7.3-24.7-4.8-32,5.6C1.5,47.4,0,52,0,56.8c0,1.2,0,2.4.3,3.5.6.8,7.1.3,8.1-.7-.2-.9-.3-1.9-.3-2.9,0-8.2,6.7-14.9,14.9-14.9Z" fill="#e1251b"/>
  <path d="M23,79.8c-8.2,0-15.8-4.4-19.9-11.5.3-.4,7.5-1.2,9.3-1.1,2.8,2.9,6.6,4.5,10.6,4.5,0,0,9.1.7,17.7-6.1,0,0,3.2,4.6,5.7,6.3,0,0-8.1,7.9-23.4,7.9Z" fill="#e1251b"/>
  <path d="M82.5,22.9c-10.9-4.6-21.4-3.2-31.9,4.5-9.2,6.8-12.9,13.6-18.8,19.5-7.1,7-12.4,9.4-16.6,11-4.3,1.6-10.4,2.8-14.9,2.5.4,2.8,1.4,5.5,2.8,8,11.6-.2,19.7-4.6,25-7.8,4.6-2.8,11.5-9.9,15.2-14.5,5.8-7.3,13.4-14.4,20.4-16.6,9.7-3.1,19.2,1.2,23.7,7.3.4.5,9,3.6,11.7,5.9-1-4.2-5.7-15.1-16.6-19.7Z" fill="#e1251b"/>
  <path d="M98.8,41.7c-5.1-3.6-11.3-5.6-17.5-5.6-7.6,0-15.2,3-20.6,8.2-3.9,3.8-5.8,6.9-10.1,12.1,1.6,2.5,3.6,4.7,5.7,6.7.6-.8,3.7-5.3,6.1-8.4,3-4,6.1-7.2,10.8-9,9.8-3.9,20.9-.3,26.5,8.6.6-4.2.3-8.6-.8-12.7Z" fill="#e1251b"/>
</svg>