<svg xmlns="http://www.w3.org/2000/svg" viewBox="0 0 100 100">
  <path d="M61.9,50c0,6.6-5.3,11.9-11.9,11.9-6.6,0-11.9-5.3-11.9-11.9h0c0-6.6,5.3-11.9,11.9-11.9,6.6,0,11.9,5.3,11.9,11.9" fill="#0dd375"/>
  <path d="M41.4,0v30.3c-3.2,1.5-6,3.7-8.2,6.5-2.9,3.8-4.5,8.4-4.5,13.2,0,5,1.7,9.6,4.5,13.2,2.1,2.8,4.9,5,8.2,6.5v8.2c-2.9-.9-5.7-2.3-8.2-4.1-7.6-5.5-12.1-14.4-12-23.8,0-9.4,4.4-18.2,12-23.8v-12.5c-13.4,6.4-22.7,20.3-22.7,36.3s9.3,29.9,22.7,36.3c2.6,1.2,5.3,2.2,8.2,2.8v10.9c-2.8-.5-5.5-1.2-8.2-2.2C13.9,90.8,0,72,0,50S13.9,9.2,33.2,2.2C35.8,1.2,38.6.5,41.4,0ZM58.6,0c2.8.5,5.5,1.2,8.1,2.2,19.4,7,33.2,25.8,33.2,47.8s-13.9,40.8-33.2,47.8c-2.6.9-5.3,1.7-8.2,2.2v-10.9c2.8-.6,5.5-1.6,8.1-2.8,13.4-6.4,22.7-20.3,22.7-36.3s-9.3-29.9-22.7-36.3v12.5c7.6,5.5,12.1,14.4,12.1,23.8,0,9.4-4.5,18.3-12.1,23.8-2.5,1.8-5.2,3.2-8.1,4.1v-8.2c3.2-1.5,6-3.7,8.1-6.5,2.9-3.8,4.5-8.5,4.5-13.3,0-5-1.7-9.6-4.5-13.3-2.1-2.8-4.9-5-8.1-6.5V0Z" fill="#027cff"/>
</svg>