<svg xmlns="http://www.w3.org/2000/svg" viewBox="0 0 100 100">
  <path d="M70.5,16h18.5s0,0,0,0v18.5s0,0,0,0h-18.5V16h0Z" fill="#1683ff"/>
  <path d="M24.5,27h46.5v47H24.5s0,0,0,0V27s0,0,0,0Z" fill="#fff"/>
  <path d="M71.4,0c15.8,0,28.6,12.8,28.6,28.6v42.9c0,15.8-12.8,28.6-28.6,28.6H28.6c-15.8,0-28.6-12.8-28.6-28.6V28.6C0,12.8,12.8,0,28.6,0h42.9ZM27.7,71.4h8v-9.3l7.1-7.1,19.2,14.1c0,0,3.2,2.2,7.6,2.2v-9.3c-2.7,0-4-.9-4-.9l-17-12.4,21-20.3h-12.1l-21.9,21.2v-21.2h-8v42.9h0ZM78.1,18.8c-2.7,0-4.9,2.2-4.9,4.9v4.9h4.9c2.8,0,5.1-2.1,5.1-4.9s-2.3-5-5.1-4.9Z"/>
</svg>