<svg xmlns="http://www.w3.org/2000/svg" viewBox="0 0 100 100">
  <path d="M49.9,0l43.3,25v50s-43.3,25-43.3,25L6.9,75.2l-.2-.3V24.9c0,0,43.2-24.9,43.2-24.9ZM49.8,1.3L7.8,25.6v48.5c0,0,.1.3.1.3l42.1,24.2,42.1-24.3V25.9c0,0-.1-.3-.1-.3L50.2,1.4c-.1,0-.2,0-.3,0Z" fill="#ef3a35"/>
  <path d="M87.2,71.7l-37.2,21.4-37.3-21.5V28.4S50,6.9,50,6.9l37.1,21.4.2.3v43ZM78,33.8l-28-16.1-28,16.1v32.3s28,16.2,28,16.2l28-16v-32.5Z" fill="#ef3a35"/>
  <path d="M70.2,38.5v23.7s-20.3,11.7-20.3,11.7l-20.4-11.8v-23.6s20.4-11.8,20.4-11.8l20.3,11.8ZM58.4,45.5h2.9c0,0,.3-.3.4-.5.1-.6,0-2.8,0-3.4s0-.7-.5-.8h-22.6c-.4,0-.6.3-.7.7,0,.7,0,2.8,0,3.4s.3.6.5.6h3.3v13.5s.3.5.3.5c.2.1.3.1.6.2.6,0,2.7,0,3.2,0s.6-.4.6-.6v-13.7h7.3v13.5c0,.4.5.6.9.7.6,0,2.6,0,3.2,0s.6-.4.6-.6v-13.7Z" fill="#ef3a35"/>
</svg>