<svg xmlns="http://www.w3.org/2000/svg" viewBox="0 0 100 100">
  <path d="M42.2,52.6h-10.6v23.7l-15.8-23.7H5.2L0,57.8v37l5.2,5.2h10.6v-23.7l15.8,23.7h10.6l5.2-5.2v-37l-5.2-5.2ZM84.2,82.5v7.8h-15.8v-2.6h-15.8v7.1l5.2,5.2h37l5.2-5.2v-19.4l-5.2-5.2h-26.4v-7.8h15.8v2.6h15.8v-7.1l-5.2-5.2h-37l-5.2,5.2v19.4l5.2,5.2h26.4ZM0,42.2l5.2,5.2h37l5.2-5.2v-7.1h-15.8v2.6h-15.8V0H5.2L0,5.2v37ZM68.4,9.7h15.8v2.6h15.8v-7.1L94.8,0h-37l-5.2,5.2v37l5.2,5.2h37l5.2-5.2v-7.1h-15.8v2.6h-15.8v-7.8h15.8v-12.3h-15.8v-7.8Z"/>
</svg>