<svg xmlns="http://www.w3.org/2000/svg" viewBox="0 0 100 100"><path d="M46.5,60.7c0,8.4-4.4,13.7-11.4,13.7s-11.4-5.3-11.4-13.7,4.4-13.7,11.4-13.7,11.4,5.3,11.4,13.7ZM56.2,31l-3.1.2c-1.7.1-2.5.7-2.5,1.9s1,1.8,2.3,1.8,3.2-1.2,3.2-2.8v-1.1ZM100,50c0,27.9-22.1,50-50,50S0,77.9,0,50,22.1,0,50,0s50,22.1,50,50ZM61.6,30.4c0,4.1,2.2,6.5,5.9,6.5s5-1.7,5.4-4.2h-2.4c-.3,1.4-1.4,2.1-2.9,2.1s-3.3-1.7-3.3-4.4,1.3-4.3,3.3-4.3,2.7.9,2.9,2.1h2.4c-.3-2.4-2.2-4.2-5.4-4.2-3.6,0-5.9,2.4-5.9,6.4ZM28,24.2v12.5h2.5v-7.6c0-1.6,1.1-2.9,2.6-2.9s2.4.9,2.4,2.3v8.3h2.4v-7.9c0-1.5,1-2.7,2.6-2.7s2.4.8,2.4,2.6v8h2.5v-8.6c0-2.6-1.5-4.1-4-4.1s-3.2.9-3.8,2.2h-.2c-.6-1.4-1.7-2.2-3.4-2.2s-2.9.8-3.5,2.2h-.2v-2h-2.4ZM50.9,60.7c0-10.9-6.1-17.7-15.8-17.7s-15.8,6.8-15.8,17.7,6.1,17.6,15.8,17.6,15.8-6.8,15.8-17.6ZM52.4,36.9c1.6,0,3-.7,3.8-2h.2v1.8h2.4v-8.5c0-2.6-1.8-4.2-4.9-4.2s-4.9,1.4-5.1,3.5h2.4c.3-.9,1.2-1.4,2.6-1.4s2.6.8,2.6,2.1v1.1l-3.4.2c-3,.2-4.6,1.5-4.6,3.7,0,2.2,1.7,3.7,4.1,3.7ZM79.4,68.1c0-4.9-2.8-7.7-9.9-9.2l-3.8-.8c-4.7-1-6.5-2.9-6.5-5.6s3.3-5.6,7.6-5.6,7.4,2.3,7.8,6.1h4.3c-.2-5.8-5.1-9.9-11.9-9.9s-12.1,4-12.1,9.6,3,8,9.8,9.5l3.8.8c4.7,1,6.6,2.9,6.6,5.8s-3.4,5.8-8,5.8-8.3-2.2-8.8-5.9h-4.3c.4,5.9,5.4,9.7,12.9,9.7s12.6-4,12.6-10.3Z" fill="#1d1d1f"/></svg>