<svg xmlns="http://www.w3.org/2000/svg" viewBox="0 0 100 100">
  <path d="M75.6,0c5.7.8,10.5,2.7,14.2,5.6,5.8,4.4,9.2,10.7,10.2,18.9v51.1c-.9,7.1-3.6,12.7-8,17-4.2,4.1-9.7,6.6-16.4,7.5H24.4c-5.7-.8-10.5-2.7-14.2-5.6-5.8-4.4-9.2-10.7-10.2-18.9V24.3c.4-1.3.8-2.7,1-4.1C3.1,10.3,10.4,3,20.4,1c1.3-.3,2.6-.6,3.8-1h51.3ZM88.3,66.9c.4-.6.6-1.4.6-2.2,0-25.2,0-38.2,0-38.9.2-4.4-.8-7.5-5.6-7.5-4.8,0-21.8,0-51,0-1.2,0-2.3.4-3.2,1.1l-15.7,12.8c-1.1.9-1.8,2.3-1.8,3.7,0,1.5,0,14.3,0,38.5,0,4.3,1,6.8,5.6,6.7,3.4,0,20.6,0,51.6,0,1.8,0,3.1-.3,3.8-.9,8.6-6.9,13.6-11,15-12.3,0,0,.3-.4.7-1.1Z" fill="#7dc6ff"/>
  <path d="M88.3,66.9c-.4.7-.6,1-.7,1.1-1.5,1.3-6.5,5.4-15,12.3-.7.6-2,.9-3.8.9-31,0-48.2,0-51.6,0-4.6,0-5.6-2.5-5.6-6.7,0-24.2,0-37,0-38.5,0-1.4.7-2.8,1.8-3.7l15.7-12.8c.9-.7,2.1-1.1,3.2-1.1,29.2,0,46.2,0,51,0,4.8,0,5.8,3.1,5.6,7.5,0,.7,0,13.6,0,38.9,0,.8-.2,1.5-.6,2.2ZM30.7,70.6c0-4.7,0-9.7,0-15.2,0-1.7.8-2.6,2.2-2.7,2.6-.2,4.7-.2,6.5,0,1.3,0,2.4,1.2,2.4,2.5v15.9c0,.3.3.6.6.6h4.5c.3,0,.6-.3.6-.6h0v-16.1c0-1.2,1-2.3,2.2-2.4,1.6,0,3.6,0,6.2,0,1.7,0,2.6.8,2.6,2.3,0,4.8,0,10.3,0,16.3,0,.2.2.4.4.4h8.4c.4,0,.9-.2,1.2-.4l9.9-8.1c.5-.4.8-1,.8-1.6v-31.9c0-1-.8-1.8-1.8-1.8h-43c-.5,0-1.1.2-1.5.5l-11.1,9c-.6.5-.9,1.1-.9,1.9v31.1c0,.7.6,1.3,1.3,1.3h7.2c.6,0,1-.5,1-1,0,0,0,0,0,0Z"/>
</svg>