<svg xmlns="http://www.w3.org/2000/svg" viewBox="0 0 100 100">
  <path d="M34.1,27.3h9.1v-13.6h41v9.1h-13.7v9.1h-13.7v4.5h4.6v4.5h4.6v4.5h4.6v4.5h4.6v4.5h18.2v4.5h4.6v31.8h-4.6v4.5h-31.9v-4.5h-9.1v9.1H2.2v-36.4h4.6V22.7h9.1v-13.6h9.1V0h9.1v27.3Z" fill="#3d3d39"/>
  <path d="M88.7,59.1v4.5h4.6v22.7h-4.6v4.5h-22.8v-4.5h-4.6v-22.7h4.6v-4.5h22.8ZM52.3,59.1h-4.6v4.5h-18.2v-18.2h4.6v-4.5h18.2v18.2Z" fill="#fff"/>
  <path d="M70.5,77.3h4.6v4.5h9.1v4.5h-13.7v-4.5h-4.6v-9.1h4.6v4.5ZM84.2,72.7h-4.6v-4.5h-4.6v-4.5h9.1v9.1ZM47.7,59.1h-9.1v-9.1h9.1v9.1Z" fill="#3d3d39"/>
</svg>