<svg xmlns="http://www.w3.org/2000/svg" viewBox="0 0 100 100">
  <path d="M0,19.4C0,8.7,8.7,0,19.4,0h61.2c10.7,0,19.4,8.7,19.4,19.4v61.2c0,10.7-8.7,19.4-19.4,19.4H19.4c-10.7,0-19.4-8.7-19.4-19.4V19.4ZM68.8,39.4c0,2.1-8.7,3.7-19.4,3.7s-19.4-1.7-19.4-3.8v10.6h0c0,2.1,8.7,3.8,19.4,3.8s19.4-1.7,19.4-3.8h0v-10.6ZM49.4,56.9c10.7,0,19.4-1.7,19.4-3.7v10.6h0c0,2.1-8.7,3.7-19.4,3.7s-19.4-1.7-19.4-3.7h0v-10.6c0,2.1,8.7,3.8,19.4,3.8ZM68.8,66.9c0,2.1-8.7,3.7-19.4,3.7s-19.4-1.7-19.4-3.7v10.6h0c0,2.1,8.7,3.7,19.4,3.7s19.4-1.7,19.4-3.7h0v-10.6ZM68.8,30l-19.4-12.5-19.4,12.5v6.9c0,1.7,8.7,3.1,19.4,3.1s19.4-1.4,19.4-3.1v-6.9Z" fill="#031b4e" fill-rule="evenodd"/>
</svg>