<svg xmlns="http://www.w3.org/2000/svg" viewBox="0 0 100 100">
  <path d="M50,0C77.7,0,100,22.4,100,50s-22.3,50-50,50S0,77.7,0,50,22.4,0,50,0Z" fill="#282828"/>
  <path d="M21.7,67.3v-34.1l10-2.4-1.6,11h1.1c.6-2.6,1.6-4.7,2.9-6.4,1.4-1.8,3.1-3.1,5.1-4,2.1-.9,4.6-1.4,7.3-1.4s6.7.8,9.3,2.4c2.6,1.6,4.6,3.9,6,7,1.4,3,2.2,6.6,2.2,10.8v17.1h-9.8v-14.6c0-2.8-.4-5.2-1.3-7.2-.9-2-2.2-3.5-3.8-4.6-1.7-1.1-3.7-1.6-6.1-1.6-3.5,0-6.3,1.1-8.3,3.4-2,2.3-2.9,5.6-2.9,9.8v14.7h-10.1,0Z" fill="#fff"/>
  <circle cx="76.3" cy="61.4" r="6.9" fill="#6eda78"/>
</svg>