<svg xmlns="http://www.w3.org/2000/svg" viewBox="0 0 100 100">
  <defs>
    <linearGradient id="gradient" x1="71.2" y1="26.7" x2="95" y2="77.8" gradientTransform="translate(-1 100.7) scale(1 -1)" gradientUnits="userSpaceOnUse">
      <stop offset="0" stop-color="#d4202c"/>
      <stop offset="0" stop-color="#dc3d29" stop-opacity=".8"/>
      <stop offset=".2" stop-color="#e45926" stop-opacity=".6"/>
      <stop offset=".3" stop-color="#ea7123" stop-opacity=".4"/>
      <stop offset=".4" stop-color="#f08521" stop-opacity=".2"/>
      <stop offset=".6" stop-color="#f4941f" stop-opacity=".1"/>
      <stop offset=".7" stop-color="#f79f1e" stop-opacity="0"/>
      <stop offset=".8" stop-color="#f8a51d" stop-opacity="0"/>
      <stop offset="1" stop-color="#f9a71d" stop-opacity="0"/>
    </linearGradient>
    <linearGradient id="gradient_2" x1="1808.7" y1="-961.9" x2="1832.5" y2="-910.8" gradientTransform="translate(1838.5 987.9) rotate(-180) scale(1 -1)" gradientUnits="userSpaceOnUse">
      <stop offset="0" stop-color="#d4202c"/>
      <stop offset="0" stop-color="#dc3d29" stop-opacity=".8"/>
      <stop offset=".2" stop-color="#e45926" stop-opacity=".6"/>
      <stop offset=".3" stop-color="#ea7123" stop-opacity=".4"/>
      <stop offset=".4" stop-color="#f08521" stop-opacity=".2"/>
      <stop offset=".6" stop-color="#f4941f" stop-opacity=".1"/>
      <stop offset=".7" stop-color="#f79f1e" stop-opacity="0"/>
      <stop offset=".8" stop-color="#f8a51d" stop-opacity="0"/>
      <stop offset="1" stop-color="#f9a71d" stop-opacity="0"/>
    </linearGradient>
  </defs>
  <path d="M90.7,22.3c-3.4,0-6.5,1.8-8.2,4.8l-.2.4-7.3,14.5-9.3,18.3,6.1,12,.3.7c.9,1.7,2.4,3,4.1,3.8,1.7-.8,3.1-2.2,4.1-3.8l.3-.7,18.2-35.9.4-.9c2.1-4.7-.1-10.2-4.8-12.3-1.2-.5-2.4-.8-3.7-.8h0Z" fill="#ff5100"/>
  <path d="M34.4,39.7l-6.1-11.9-.3-.7c-.9-1.7-2.3-3-4-3.8-1.7.8-3.1,2.2-4,3.8l-.3.7L1.3,63.7l-.4.9c-2.1,4.7,0,10.2,4.7,12.4,4.4,2,9.7.2,12-4l.2-.4,7.3-14.5,9.3-18.3h0Z" fill="#ff5100"/>
  <path d="M90.6,22.3c-3.4,0-6.5,1.8-8.2,4.8l-.2.4-7.3,14.5-9.3,18.3,6.1,12,.3.7c.9,1.7,2.3,3,4.1,3.8,1.7-.8,3.1-2.2,4.1-3.8l.3-.7,18.3-35.9.4-.9c2.1-4.7-.1-10.2-4.8-12.3-1.2-.5-2.4-.8-3.7-.8h0Z" fill="url(#gradient)"/>
  <path d="M9.4,77.7c3.4,0,6.5-1.8,8.2-4.8l.2-.4,7.4-14.5,9.3-18.3-6.1-12-.3-.7c-.9-1.7-2.4-3-4.1-3.8-1.7.8-3.1,2.2-4.1,3.8l-.3.7L1.2,63.7l-.4.9c-2.1,4.7.1,10.2,4.8,12.3,1.2.5,2.4.8,3.7.8h0Z" fill="url(#gradient_2)"/>
  <path d="M34.4,39.7l-6.1-11.9-.3-.7c-.9-1.7-2.3-3-4.1-3.8.6-.3,1.2-.5,1.8-.7.8-.2,1.6-.3,2.4-.3h12.7c3.4,0,6.5,1.8,8.2,4.8l.3.7,16.4,32.6,6.1,11.9.3.7c.9,1.7,2.4,3,4.1,3.9-1.3.6-2.7,1-4.1,1h-12.8c-3.4,0-6.5-1.8-8.1-4.8l-.3-.7-16.4-32.6Z" fill="#ff8c44"/>
</svg>