<svg xmlns="http://www.w3.org/2000/svg" viewBox="0 0 128 128"><path d="M52.7,93.2l9.9-5.7,5.7,9.9-9.9,5.7-5.7-9.9ZM98.2,80.3l-9.9,5.7-5.7-9.9,9.9-5.7,5.7,9.9ZM17.1,100.3l11.4,19.9,19.9-11.4,5.7,9.9,9.9-5.7,5.7,9.9,39.8-22.8-5.7-9.9,9.9-5.7-5.7-9.9,19.9-11.4-11.4-19.9-9.9,5.7,5.7,9.9-9.9,5.7-11.4-19.9,19.9-11.4-11.4-19.9-9.9,5.7,5.7,9.9-9.9,5.7-17.1-29.8-9.9,5.7,11.4,19.9-9.9,5.7-5.7-9.9-9.9,5.7h0s-9.9,5.7-9.9,5.7l5.7,9.9-9.9,5.7-11.4-19.9-9.9,5.7,17.1,29.8-9.9,5.7-5.7-9.9L0,70.5l11.4,19.9,19.9-11.4,11.4,19.9-9.9,5.7-5.7-9.9-9.9,5.7Z" fill="#3b71b6"/></svg>