<svg xmlns="http://www.w3.org/2000/svg" viewBox="0 0 100 100">
  <path d="M24.2,0C37.6,0,48.4,10.8,48.4,24.2v19c0,2.9-2.3,5.2-5.2,5.2H5.2C2.3,48.4,0,46.1,0,43.2v-19C0,10.8,10.8,0,24.2,0ZM22.6,25.8v22.6h3.2v-22.6h-3.2Z"/>
  <path d="M75.8,100c-13.4,0-24.2-10.8-24.2-24.2v-19c0-2.9,2.3-5.2,5.2-5.2h38c2.9,0,5.2,2.3,5.2,5.2v19c0,13.4-10.8,24.2-24.2,24.2ZM77.4,74.2v-22.6h-3.2v22.6h3.2Z"/>
  <path d="M100,24.2s0,0,0,0h0c0,0,0,0,0,0ZM51.6,24.2C51.6,10.8,62.4,0,75.8,0c12.8,0,23.3,10,24.1,22.6h-22.5v3.2h22.5c-.8,12.6-11.3,22.6-24.1,22.6s-24.2-10.8-24.2-24.2Z"/>
  <path d="M0,75.8c0-6.1,2.3-11.7,6-15.9l12.6,12.6,2.3-2.3-12.6-12.6c4.3-3.7,9.8-6,15.9-6s11.2,2.1,15.4,5.5l-13,13,2.3,2.3,13.1-13.1c4,4.3,6.5,10.1,6.5,16.5s-2.3,11.7-6,15.9l-13.9-13.9-2.3,2.3,13.9,13.9c-4.3,3.7-9.8,6-15.9,6s-12.1-2.4-16.5-6.5l13.5-13.5-2.3-2.3-13.4,13.4C2.1,87,0,81.7,0,75.8Z"/>
</svg>