<svg xmlns="http://www.w3.org/2000/svg" viewBox="0 0 100 100">
  <path d="M31.4.4c1,.4,1.9,1,2.7,1.9,1.3,1.4,2.5,3.4,3.3,5.7.9,2.4,1.4,5,1.6,7.6,2.9-1.6,6-2.6,9.3-2.9h.2c4-.3,7.9.4,11.3,2.1.5.2.9.5,1.3.8.2-2.6.8-5.2,1.6-7.5.9-2.4,2-4.3,3.3-5.7.7-.8,1.7-1.4,2.7-1.9,1.2-.5,2.4-.5,3.6-.2,1.8.5,3.4,1.7,4.6,3.3,1.1,1.5,2,3.5,2.5,5.8,1,4.2,1.2,9.8.5,16.6l.2.2h.1c3.4,2.7,5.8,6.4,7.1,10.8,2,6.8,1,14.3-2.4,18.6h0c0,0,0,.1,0,.1,1.9,3.5,3,7.1,3.3,10.9h0c.3,5-.9,9.8-3.7,14.6h0s0,.2,0,.2c2.1,5.3,2.8,10.6,2,15.8v.2c-.3,1.6-1.8,2.7-3.4,2.4-1.6-.3-2.7-1.8-2.5-3.4,0,0,0,0,0,0,.8-4.7,0-9.4-2.2-14.2-.4-.9-.4-2,.2-2.8h0c2.7-4.2,3.9-8.3,3.6-12.4-.2-3.5-1.5-7-3.6-10.3-.9-1.3-.5-3.1.8-4h0c1.1-.7,2.1-2.6,2.6-5.1.6-3,.4-6.1-.4-9-.9-3.2-2.6-5.8-5-7.6-2.7-2.1-6.3-3.1-10.8-2.8-1.2,0-2.4-.6-2.9-1.7-1.4-3-3.5-5.2-6.1-6.5-2.5-1.2-5.3-1.8-8.1-1.5-5.7.4-10.6,3.6-12.1,7.7-.4,1.2-1.5,1.9-2.8,1.9-4.8,0-8.6,1.1-11.3,3.2-2.4,1.8-4,4.2-4.8,7.2-.8,2.8-.9,5.7-.3,8.6.5,2.5,1.5,4.6,2.6,5.8h0c1,1,1.2,2.4.5,3.6-1.6,2.8-2.9,7-3.1,11.1-.2,4.6.8,8.6,3.3,11.5h0c.7,1,.9,2.2.4,3.2-2.6,5.6-3.4,10.2-2.6,13.9.3,1.6-.7,3.2-2.3,3.5-1.5.3-3.1-.6-3.5-2.1-1.1-4.6-.4-9.9,2.1-15.9v-.2c0,0,0,0,0,0-1.2-1.8-2.1-3.8-2.7-5.9h0c-.7-2.7-1-5.5-.8-8.2.2-4.1,1.3-8.4,2.8-11.8h0c0-.1,0-.1,0-.1-1.3-1.9-2.3-4.3-2.9-7h0c-.8-3.9-.6-7.7.4-11.4,1.2-4.2,3.5-7.7,7-10.3.3-.2.6-.4.8-.6-.7-6.8-.5-12.4.5-16.7.6-2.4,1.4-4.3,2.6-5.8,1.2-1.7,2.8-2.8,4.6-3.3,1.2-.3,2.5-.3,3.6.2h0ZM50.1,41.7c4.3,0,8.2,1.4,11.1,3.9,2.9,2.4,4.6,5.6,4.6,8.8s-1.8,7.2-5.1,9.2c-2.8,1.7-6.6,2.5-10.9,2.5s-8.5-1.2-11.3-3.3c-2.8-2.1-4.4-5.1-4.4-8.4s1.8-6.4,4.8-8.8c3-2.4,7-3.9,11.3-3.9ZM50.1,45.8c-3.2,0-6.2,1-8.7,3-2.1,1.7-3.3,3.8-3.3,5.7s1,3.8,2.8,5.2c2.1,1.6,5.1,2.5,8.8,2.5s6.7-.7,8.8-1.9c2.1-1.3,3.2-3.1,3.2-5.7s-1.1-4-3.1-5.7c-2.2-1.8-5.2-2.9-8.5-2.9ZM53.1,51.3h0c.5.7.4,1.7-.3,2.2l-1.3,1v2c0,.9-.8,1.7-1.7,1.7-.9,0-1.7-.8-1.7-1.7v-2.1l-1.2-1c-.7-.5-.8-1.5-.2-2.2,0,0,0,0,0,0,.6-.7,1.6-.8,2.2-.2l1,.8,1-.8c.7-.5,1.7-.4,2.2.2ZM30.2,42.6c2.2,0,3.9,1.8,3.9,4,0,2.2-1.8,4-3.9,4-2.2,0-3.9-1.8-3.9-4,0-2.2,1.8-4,3.9-4h0ZM69.8,42.6c2.2,0,3.9,1.8,3.9,4,0,2.2-1.8,4-3.9,4-2.2,0-3.9-1.8-3.9-4,0-2.2,1.8-4,3.9-4ZM29.3,5.9h0c-.5.2-1,.6-1.3,1.1h0c-.6.9-1.2,2.1-1.6,3.8-.8,3.1-1,7.4-.6,12.6,2-.6,4.1-.9,6.4-1.1h0s0-.2,0-.2c.2-.4.4-.7.7-1.1.6-3.5,0-7.7-1.1-11.1-.6-1.7-1.3-3-2.1-3.7-.1-.2-.3-.3-.5-.4h0ZM71,6.1h0c-.2.1-.3.3-.5.4-.7.7-1.5,2-2.1,3.7-1.3,3.6-1.8,8.1-1,11.7l.3.4h0c0,0,.1,0,.1,0,2.3,0,4.5.3,6.7,1,.4-5.1.2-9.3-.6-12.4-.4-1.7-1-2.9-1.6-3.8h0c-.3-.5-.8-.9-1.3-1.1h0Z" fill-rule="evenodd"/>
</svg>