<svg xmlns="http://www.w3.org/2000/svg" viewBox="0 0 100 100">
  <path d="M3.9,4.4c-2.2,0-3.9,1.8-3.9,3.9v83.4c0,2.2,1.8,3.9,3.9,3.9h92.1c2.2,0,3.9-1.8,3.9-3.9h0V8.3c0-2.2-1.7-3.9-3.9-3.9,0,0,0,0,0,0H3.9ZM4.4,8.8h91.1v82.4H4.4V8.8ZM14.7,18.3c-.8,0-1.5.6-1.5,1.4v15.4c0,.8.7,1.4,1.5,1.4h70.6c.8,0,1.5-.6,1.5-1.4v-15.4c0-.8-.7-1.4-1.5-1.4H14.7ZM23.3,22c3,0,5.4,2.4,5.4,5.4,0,3-2.4,5.4-5.4,5.4-3,0-5.4-2.4-5.4-5.4,0-3,2.4-5.4,5.4-5.4M23.3,24.5c-1.6,0-2.8,1.3-2.8,2.8,0,1.6,1.3,2.8,2.8,2.8,1.6,0,2.8-1.3,2.8-2.8,0-1.6-1.3-2.8-2.8-2.8h0ZM14.7,40.9c-.8,0-1.5.6-1.5,1.4v15.4c0,.8.7,1.4,1.5,1.4h70.6c.8,0,1.5-.6,1.5-1.4v-15.4c0-.8-.7-1.4-1.5-1.4H14.7ZM23.3,44.6c3,0,5.4,2.4,5.4,5.4,0,3-2.4,5.4-5.4,5.4-3,0-5.4-2.4-5.4-5.4,0-3,2.4-5.4,5.4-5.4M23.3,47.2c-1.6,0-2.8,1.3-2.8,2.8,0,1.6,1.3,2.8,2.8,2.8,1.6,0,2.8-1.4,2.7-3,0-1.4-1.2-2.6-2.7-2.7h0ZM14.7,63.5c-.8,0-1.5.6-1.5,1.4v15.4c0,.8.7,1.4,1.5,1.4h70.6c.8,0,1.5-.6,1.5-1.4v-15.4c0-.8-.7-1.4-1.5-1.4H14.7ZM23.3,67.2c3,0,5.4,2.4,5.4,5.4,0,3-2.4,5.4-5.4,5.4-3,0-5.4-2.4-5.4-5.4,0-3,2.4-5.4,5.4-5.4M23.3,69.8c-1.6,0-2.8,1.4-2.7,3,0,1.4,1.2,2.6,2.7,2.7,1.6,0,2.8-1.4,2.7-3,0-1.4-1.2-2.6-2.7-2.7h0Z" fill="#5dacdf"/>
</svg>