<svg xmlns="http://www.w3.org/2000/svg" viewBox="0 0 100 100">
  <path d="M0,50v50h100V0H0v50ZM67.8,32.7c3.7,5.5,5.2,7.6,5.3,7.5.1,0,2.5-3.6,5.2-7.7l5-7.5h5.2s5.2,0,5.2,0l-7.2,10.8c-4,5.9-7.2,10.8-7.2,10.9s3.6,5.2,8.1,11.4,8.1,11.4,8.1,11.4-2.3,0-5.2,0h-5.2l-6-8.3c-3.3-4.6-6.1-8.3-6.2-8.2-.1,0-2.9,3.7-6.2,8.2l-6,8.3h-5.2c-4.2,0-5.1,0-5.1-.2,0-.1,3.7-5.3,8-11.4,4.4-6.1,7.9-11.2,7.9-11.3s-3.2-4.9-7-10.7c-3.8-5.8-7.1-10.6-7.2-10.7-.1-.2,1-.2,5.1-.2h5.2l5.1,7.7ZM38.3,25.6c8.2,1.7,14.8,8.3,16.8,16.8.3,1.2.3,2.3.3,5.1,0,3.2,0,3.8-.5,5.4-2.2,8.3-8.1,14.1-16.5,16.3-.6.2-3.7.3-9.1.3h-8.3c0,.1,0,9,0,9v8.9h-8.5v-20.9c0-17.5,0-21.2.3-22.8,1.3-9,8.2-16.4,16.8-18.2,2.5-.5,6.1-.5,8.7,0h0Z" fill="#00ab6b"/>
  <path d="M31.4,34.2c-3.8.9-7.2,3.6-8.9,7-1.4,2.8-1.4,3.1-1.5,11.8v7.7c0,0,7.4,0,7.4,0,8.4,0,8.7,0,11.3-1.3,2.7-1.3,4.5-3.2,5.9-5.9.4-.8.9-2.1,1.1-2.8.4-1.5.4-5,0-6.5-.3-1.5-1.5-3.9-2.5-5.2-1.7-2.2-4.5-4.1-7.2-4.7-1.2-.3-4.8-.4-5.7-.2h0Z" fill="#00ab6b"/>
</svg>