<svg xmlns="http://www.w3.org/2000/svg" viewBox="0 0 128 128"><path d="M64,0C99.3,0,128,28.7,128,64s-28.7,64-64,64S0,99.3,0,64,28.7,0,64,0Z" fill="#f27777"/><path d="M31.1,31.3c5.7,1.3,11.1,3.3,16,6-5.8,3-10.7,7.4-14.2,12.8-2.3-3.1-3.5-6.9-3.5-11s.6-5.5,1.7-7.8ZM98.6,90.4c0,3.5-2.8,6.4-6.4,6.4s-6.4-2.8-6.4-6.4v-5.1h-43.8v5.1c0,3.5-2.8,6.4-6.4,6.4s-6.4-2.8-6.4-6.4v-19.4c0-18.8,14.6-34.7,33.3-35.4,19.7-.7,35.8,15,35.8,34.6v20.2h.1ZM95,50.1c-3.5-5.5-8.4-9.9-14.2-12.8,5-2.7,10.3-4.8,16-6,1.1,2.4,1.7,5,1.7,7.8,0,4.1-1.4,7.8-3.5,11ZM79.1,63.3c-.5-.2-.9-.1-1.1.2-.5.7-1,1.1-1.8,1.6v-.6c0-1.6-.6-3.1-1.5-4.2-.7-1-1.8-1.6-3.2-1.6-2.2,0-4,1.8-4,4s.3,1.8.9,2.5c.7.8,1.5,1.5,2.5,1.9-.7.3-1.4.6-2.2.6h0c-.9,0-1.6.8-1.6,1.6s.7,1.6,1.6,1.6h.8c2.5,0,4.8-1.5,5.8-3.5,1.7-.5,3.1-1.6,4-3.1.3-.2.2-.8-.2-1ZM72.6,65.5c-1-.3-1.9-.9-2.5-1.8h0c-.2-.2-.3-.6-.3-.9,0-.9.7-1.6,1.6-1.6s1.6.7,1.6,1.5.1.5.1.8c.1.7-.1,1.5-.5,2Z" fill="#fff"/></svg>