<svg xmlns="http://www.w3.org/2000/svg" viewBox="0 0 100 100">
  <rect width="100" height="100" fill="#c080ff"/>
  <path d="M33.6,7v2.6l14.7,8.6h21.7v3.5h-.1c0,.1-6.2.1-6.2.1v3.9c5.7.4,12,1.3,16.5,5.2,5.9,5.2,6.6,14.8,5.4,22.1-1.9,12-11.3,15.4-22.3,15.8-2.4.2-5.2-.3-7.5,0s-.2,0-.3.1v19.7h-18.1V25.7h24.1c0,0,0-3.8,0-3.8h-28v66.8h-5.3V21.9H8.1v-3.7h5.4l14.8-8.6v-2.6h5.3ZM28.3,18.2v-6l-10.4,6h10.4ZM33.6,12.2v6h10.3l-10.3-6ZM63.6,25.8h-2c0,0,0,14.4,0,14.4h-.1c0,.1-5.9.1-5.9.1v13.9h13.9v-13.9h-5.8v-14.5Z" fill="#2f2f2f"/>
</svg>