<svg xmlns="http://www.w3.org/2000/svg" viewBox="0 0 100 100">
  <path d="M26.9,6.7c-2.1,0-3.8.4-5.6,1.1-1.7.7-3.2,1.7-4.5,3l33.2,36.4L83.2,10.8c-1.3-1.3-2.8-2.3-4.6-3-1.6-.7-3.5-1.1-5.5-1.1s-4,.4-5.7,1.2c-1.8.8-3.3,1.9-4.6,3.3l-12.7,14.1-12.9-14.1c-1.3-1.4-2.8-2.5-4.6-3.3-1.6-.8-3.6-1.2-5.6-1.2ZM50.1,52.7l-33.2,36.5c1.3,1.3,2.8,2.3,4.5,3,1.7.7,3.5,1.1,5.5,1.1s4-.5,5.7-1.2c1.8-.8,3.4-1.9,4.7-3.3l12.8-14.1,12.8,14.1c1.3,1.4,2.8,2.5,4.6,3.3,1.7.7,3.6,1.2,5.7,1.2s3.8-.4,5.5-1.1c1.8-.7,3.3-1.8,4.6-3l-33.1-36.5Z" fill-rule="evenodd"/>
  <path d="M10.9,17.6c-2.1,0-4.2.5-6,1.3-1.9.8-3.5,1.9-4.9,3.3l25.4,27.9L0,77.8c1.4,1.4,3.1,2.5,4.9,3.4,1.8.8,3.9,1.2,6,1.3,2.3-.1,4.4-.5,6.3-1.4,1.9-.9,3.6-2.1,5-3.6l25-27.5-25-27.4c-1.5-1.5-3.2-2.7-5.1-3.6-1.9-.9-4-1.3-6.3-1.4ZM89,17.6c-2.3,0-4.3.5-6.2,1.4-1.9.9-3.6,2.2-5.1,3.6l-24.9,27.4,24.9,27.5c1.5,1.5,3.2,2.7,5.1,3.6,1.9.9,3.9,1.3,6.2,1.4,2.3-.1,4.2-.5,6-1.3,2-.8,3.5-1.9,4.9-3.4l-25.3-27.8,25.3-27.9c-1.4-1.4-2.9-2.5-4.9-3.3-1.8-.8-3.8-1.2-6-1.3Z" fill="#e57000" fill-rule="evenodd"/>
</svg>