<svg xmlns="http://www.w3.org/2000/svg" viewBox="0 0 100 100">
  <path d="M35.5,99.8l7.9-18.4c-3.8-2.9-6.2-6.5-5.9-11.4-6-1.8-10.5-7.6-13.2-13.1s-6.6-19.1-4.4-26.9,7.7-8.5,11.2-2.6,1.7,7.6,3.5,8.5,2.4.4,3.7,1.8,1.8,4.8,2.9,5.2,2.1.3,3.1.7,3.2,1.7,4.3,2.6,2.5,3,2.8,2.7c.9-3.6.8-8.1-.9-11.5s-3-3.4-3-5.5.5-1.6.2-2.7-4.4-3.8-4.7-5.5,0-1.9,0-2.8c-.5-3.8-10.1-8-4.7-12.4,5.4-4.4,16.9-2.3,22.8.4,21.3,9.7,31.6,37.4,24,59.2-1.9,5.4-5,11.8-9.6,15.3.5,5.4-.5,10.7-.3,16.1l-.2.5-39.3-.2Z" fill="#eb3e30"/>
  <path d="M36.5,11.3c0,.2,0,.4,0,.6-.7,2.4-6.4,2.6-7.7,4.2-.6.7-1,2.4-1.4,4.1,0,.5-.2.9-.3,1.3,0,.3-.2.5-.3.8,0,0,0,0,0,0-.4,1.1-1,1.9-1.9,2,0,0-.2,0-.3,0-.2,0-.5-.1-.7-.3-1.3-.9-1.9-4-2.3-5.6-.3-.6-.5-1.1-.9-1.4,0,0-.1,0-.2-.1-.9-.6-2.6-.9-4.3-1.3-.4,0-.7-.2-1-.3-1.4-.4-2.6-1-2.7-2.1,0,0,0-.1,0-.2,0-1.6,2.8-2.3,4.8-2.8.7-.2,1.4-.4,1.8-.5.5-.2.9-.6,1.1-1.1,0,0,0,0,0,0,.8-.9,1-2.8,1.3-4.4,0-.5.2-.9.3-1.3,0-.3.2-.5.3-.8,0,0,0,0,0,0,.4-1.1,1-1.9,1.9-2,0,0,.2,0,.3,0,2.2-.3,3.1,6.1,4.1,7.4.9.6,2.6.9,4.3,1.3.4,0,.7.2,1,.3,1.4.4,2.6,1,2.7,2.1,0,0,0,.1,0,.2Z" fill="#fad235"/>
</svg>