<svg xmlns="http://www.w3.org/2000/svg" viewBox="0 0 100 100">
  <path d="M86.6,72.9c-1.6,1.6-4.8,4-10.5,4h-34.6c10.5-10.1,19.3-18.5,20.1-19.3.8-.8,2.8-2.8,4.8-4.4,4-3.6,7.2-4,10.1-4,4,0,7.2,1.6,10.1,4,5.6,5.2,5.6,14.5,0,19.7M93.4,46.8c-4-4.4-10.1-7.2-16.5-7.2s-10.5,2-14.9,5.2c-1.6,1.6-4,3.2-6,5.6-1.6,1.6-36.2,35.4-36.2,35.4,2,.4,4.4.4,6.4.4h43.8c3.2,0,5.6,0,8-.4,5.2-.4,10.5-2.4,14.9-6.4,9.2-8.8,9.2-23.7.4-32.6Z" fill="#00a3ff"/>
  <path d="M37.1,44.4c-4.4-3.2-8.8-4.8-14.1-4.8s-12.5,2.8-16.5,7.2c-8.8,9.2-8.8,23.7.4,33,4,3.6,8,5.6,12.9,6l9.2-8.8h-5.2c-5.2-.4-8.4-2-10.5-4-5.6-5.6-5.6-14.5-.4-20.1,2.8-2.8,6-4,10.1-4s6,.4,9.6,4c1.6,1.6,6,4.8,7.6,6.4h.4l6-6v-.4c-2.8-2.8-7.2-6.4-9.6-8.4" fill="#00c8dc"/>
  <path d="M79.3,34.3c-4.4-12.1-16.1-20.5-29.3-20.5s-28.1,11.7-30.6,26.1c1.2,0,2.4-.4,4-.4s3.6.4,5.2.4h0c2-10.1,10.9-17.3,21.3-17.3s16.5,5.2,20.1,12.9c0,0,.4.4.4,0,2.8-.4,6-1.2,8.8-1.2q0,.4,0,0" fill="#006eff"/>
</svg>