<svg xmlns="http://www.w3.org/2000/svg" viewBox="0 0 128 128"><path d="M104.3,108.2c-4,4-8.8,7.6-13.8,10.7,22.8,6.6,37.5-1.9,37.5-1.9-13.3-.5-20.2-4.5-23.7-8.8ZM81.7,53.9h-14.7l.5-13.8c0-4.7-4-6.2-8.5-6.2s-8.5,1.4-8.5,6.2l-.5,13.8h-13c-4.7,0-5.9,3.8-5.9,8.5s1.4,8.5,5.9,8.5h13l.5,13.5c0,4.7,4,6.6,8.8,6.6s8.3-1.7,8.3-6.6l-.5-13.3h14.7c4.7,0,5.9-4,5.9-8.8s-1.2-8.5-5.9-8.5h0ZM108.8,94.3c5.9-10,8.8-21.8,8.1-34.2-.7-11.4-4.5-21.4-10.4-29.9-8.8-14.2-28.9-25.6-46.5-25.9-14.9-1.2-39.9,5-52.7,30.6C2,44.7-.6,55.8.1,67.7c.7,10,3.6,19.5,8.5,27.5.2.2.2.7.5.9v.2c.2,0,.2.5.5.7,3.3,5.2,8.1,10.2,13.8,14.5,5.2,4,10.9,7.1,17.3,9,5.2,1.9,10.7,2.8,15.9,3.1,14.7,1.2,39.1-5,52.2-29.4h0ZM89.8,108.5c-5.2,1.9-10.9,3.3-16.8,3.3-19.7.5-33-12.8-43.4-22.8-6.4-5.9-14.7-6.2-18.5-3.6l-1.4,1.4c-2.8-5.9-4.5-12.8-5-19.7-1.2-19.2,7.6-36.8,21.6-47.5,5.2-2.1,11.4-3.3,17.3-3.6,19.7-.5,33,12.8,43.4,22.8,6.4,5.9,14.7,6.2,18.5,3.6.7-.5,1.2-.9,1.7-1.7,2.8,5.9,4.5,12.6,5,19.7,1.2,19.2-7.8,37.3-22.3,47.9h0Z" fill="#35ce63"/></svg>