<svg xmlns="http://www.w3.org/2000/svg" viewBox="0 0 100 100">
  <path d="M48.1,100c20.5,0,37.1-16.1,37.1-35.9s-16.6-35.9-37.1-35.9S11,44.3,11,64.1s16.6,35.9,37.1,35.9ZM48.1,84.6c11.7,0,21.1-9.2,21.1-20.5s-9.5-20.5-21.1-20.5-21.1,9.2-21.1,20.5,9.5,20.5,21.1,20.5Z" fill-rule="evenodd"/>
  <path d="M49.2,17.5c1,.7,2.1,1.3,3.4,1.6,1.3.3,2.6.4,4.1.2s2.7-.6,3.9-1.3c1.1-.7,2.1-1.5,2.9-2.5.8-1,1.3-2.1,1.7-3.3.3-1.2.4-2.5.2-3.8h0c-.2-1.4-.6-2.6-1.3-3.7-.7-1.1-1.5-2-2.5-2.7-1-.7-2.1-1.3-3.4-1.6-1.3-.3-2.6-.4-4.1-.2s-2.7.6-3.9,1.3c-1.1.7-2.1,1.5-2.9,2.5-.8,1-1.3,2.1-1.7,3.3-.3,1.2-.4,2.5-.2,3.8h0c.2,1.4.6,2.6,1.3,3.7.7,1.1,1.5,2,2.5,2.7h0Z" fill="#ff9d4d"/>
  <path d="M23,22.8c1,.7,2.1,1.3,3.4,1.6,1.3.3,2.6.4,4.1.2s2.7-.6,3.9-1.3c1.1-.7,2.1-1.5,2.9-2.5.8-1,1.3-2.1,1.7-3.3.3-1.2.4-2.5.2-3.8h0c-.2-1.4-.6-2.6-1.3-3.7-.7-1.1-1.5-2-2.5-2.7-1-.7-2.1-1.3-3.4-1.6-1.3-.3-2.6-.4-4.1-.2s-2.7.6-3.9,1.3c-1.1.7-2.1,1.5-2.9,2.5-.8,1-1.3,2.1-1.7,3.3-.3,1.2-.4,2.5-.2,3.8h0c.2,1.4.6,2.6,1.3,3.7.7,1.1,1.5,2,2.5,2.7h0Z" fill="#ff9d4d"/>
  <path d="M75.5,30.5c1.2.4,2.4.5,3.8.5,1.3,0,2.6-.4,3.9-1.1s2.4-1.5,3.3-2.4c.9-1,1.5-2.1,2-3.3.4-1.2.6-2.4.6-3.7,0-1.3-.4-2.5-1-3.7h0c-.6-1.3-1.4-2.3-2.3-3.1-1-.8-2-1.4-3.2-1.8-1.2-.4-2.4-.5-3.8-.5-1.3,0-2.6.4-3.9,1.1s-2.4,1.5-3.3,2.4-1.5,2.1-2,3.3c-.4,1.2-.6,2.4-.6,3.7,0,1.3.4,2.5,1,3.7h0c.6,1.3,1.4,2.3,2.3,3.1,1,.8,2,1.4,3.2,1.8h0Z" fill="#ff9d4d"/>
  <rect x="69.9" y="65.3" width="15.3" height="34.7"/>
</svg>