<svg xmlns="http://www.w3.org/2000/svg" viewBox="0 0 100 100">
  <path d="M86.2,41.3h0c.3,0,.6.2.8.5l12.9,22.3c.1.2.1.5,0,.8l-6.2,10.8c-.1.2-.4.4-.7.4h-12.9l-13.1,22.7c-.2.3-.4.4-.7.4h-12.4c-.3,0-.5-.1-.7-.4l-6.2-10.8c-.1-.3-.1-.6,0-.8l26.3-45.5c.2-.3.4-.4.7-.4h12.4ZM19.4,29.7c.3,0,.6.2.7.4l26.2,45.5c.1.3.1.6,0,.8l-6.2,10.7c-.2.3-.5.4-.8.4H13.7c-.3,0-.5-.1-.7-.4l-6.2-10.8c-.1-.2-.1-.5,0-.8l6.5-11.3L.1,41.7c-.1-.3-.1-.6,0-.8l6.2-10.8c.1-.2.4-.4.7-.4h12.4ZM49.6.8c.3,0,.5.1.7.4l6.5,11.2h26.3c.3,0,.6.2.7.4l6.2,10.8c.1.2.1.5,0,.8l-6.2,10.8c-.2.3-.4.4-.7.4H30.4c-.3,0-.6-.2-.7-.4l-6.2-10.7c-.2-.3-.2-.6,0-.9L36.4,1.2c.1-.2.4-.4.7-.4h12.5Z" fill="#23f"/>
</svg>