<svg xmlns="http://www.w3.org/2000/svg" viewBox="0 0 100 100">
  <path d="M99.9,36.8l-1.1-6.5c-.3-2.1-1.2-3.8-1.8-3.8s-1.2,1.7-1.2,3.9v1.7c0,2.1-1.7,3.9-3.9,3.9h-1.7c-.1,0-.2,0-.4,0v4.7c.1,0,.2,0,.4,0h6.4c2.1,0,3.6-1.7,3.2-3.8M84.6,31.3h-10.4c0,0-.2,0-.3,0h-10.7c-.1,0-.2,0-.4,0v-1c0-2.1-.5-3.9-1.2-3.9s-1.5,1.7-1.8,3.8l-1.1,6.5c-.3,2.1,1.1,3.8,3.2,3.8h6.4c.7,0,1.3-.1,1.8-.3-.2,1.1-1.2,1.9-2.3,1.9h-9c-1.5,0-2.6-1.3-2.3-2.7l.9-5.4c.2-1.4-.9-2.7-2.3-2.7H10.6c-1,0-1.8.6-2.1,1.4L0,45.5c-.1.2-.1.5,0,.7l1.6,1.9c.2.2.6.3.8,0l5.7-4.5v27.4c0,1.3,1,2.4,2.4,2.4h12.7c1.3,0,2.4-1,2.4-2.4v-9.5c0-1.3,1-2.4,2.4-2.4h31.7c1.3,0,2.4,1,2.4,2.4v9.5c0,1.3,1,2.4,2.4,2.4h12.7c1.3,0,2.4-1,2.4-2.4v-10.2h-6.7c-2.1,0-3.9-1.7-3.9-3.9v-6.6c0-1.3.6-2.4,1.5-3.1v7.9c0,2.1,1.7,3.9,3.9,3.9h10.4c2.1,0,3.9-1.7,3.9-3.9v-20c0-2.1-1.7-3.9-3.9-3.9" fill="#2453ff"/>
</svg>