<svg xmlns="http://www.w3.org/2000/svg" viewBox="0 0 100 100">
  <path d="M37,77.5c-.2-.3,3.4-2.8.9-6s-19.3-8.9-20.8-8.9l-4.9,3c-1.4-.3-4.3-7.6-2.2-9.2,14.9-12.7,29-26.2,43.8-38.9,3.5-3,12.3-11.6,16.4-11.5s24.8,6.9,27,8.7c4.5,3.7,2.9,9.4,0,13.5-16.1,14.7-30.2,35-46.2,49.3-4.9,4.4-8.5,1.6-13.9,0ZM54.4,22.8l-19.9,17.7c0,2.3,19,9,22.2,9.9,3-1.2,19-17.4,19-18.7s-1.6-2.3-2.8-2.9c-1.8-1-17.3-6.4-18.5-6.1ZM22.3,93.3c-.3-1.8,0-4.7-1.3-6C19.1,85.2,3.4,80.8,0,78.3v5.6s2.1-2.4,2.1-2.4l18.9,7.9v2.3s-3.8-.8-3.8-.8l-.4,1.6c1.7,0,4.3,2.7,5.5.8ZM23.1,74.5l-2.9,2.6c2.5,2.7,7.1,2.9,7.6-1.2l-4.6-1.4ZM16.8,72.3c-3.2-2.9-6.4-3.7-7.6,1.2,3,.5,5.3,1.4,7.6-1.2Z"/>
</svg>