<svg xmlns="http://www.w3.org/2000/svg" viewBox="0 0 100 100">
  <path d="M94.4,18.2c-.5-2.2-2.3-3.8-4.5-3.9-17.2-.5-31.3-9.2-37-13.4-1.7-1.3-4-1.3-5.7,0-5.8,4.2-19.8,12.9-37,13.4-2.2.1-4.1,1.7-4.5,3.9-2.7,13.7-7.5,60.2,44.4,81.8,51.8-21.6,46.9-68.1,44.3-81.8Z"/>
  <path d="M50.1,80.7c17.5,0,31.6-14.2,31.6-31.6s-3.4-16.3-8.9-22c-3.9,2.6-11.3,5.7-14.5,4.1-2.8-1.4-5.6-3.8-8.2-7.2-2.1,3.4-4.4,5.5-6.8,6.5-1.9.8-8.8,1.3-15.9-3.4-5.5,5.7-8.9,13.4-8.9,22,0,17.5,14.2,31.6,31.6,31.6Z" fill="#0b8d8a" fill-rule="evenodd"/>
  <path d="M50.3,70.7l17.5-9.9-15.6-9.2-5.6,3,10.6,6.2-6.9,3.9-12.4-7v-2.3l-5.4-3.3v8.7l17.8,9.9ZM50,31.5l-17.5,9.9,15.6,9.2,5.6-3-10.6-6.2,6.9-3.9,12.4,7v2.3l5.4,3.3v-8.7l-17.8-9.9Z" fill="#fff" fill-rule="evenodd"/>
  <path d="M56.3,19.5s-5.4-.8-6.2-5.6c-.8,4.7-6.2,5.6-6.2,5.6-5.4.9-8.1-3.2-8.1-3.2,2.6,7.1,7.1,6.9,7.1,6.9h14.2s4.5.2,7.1-6.9c0,0-2.6,4.1-8.1,3.2h0Z" fill="#0fc6c2"/>
  <path d="M60.4,29.3s-8.9-1.1-10.3-7.1c-1.3,6-10.3,7.1-10.3,7.1-9.1,1.1-13.4-4.1-13.4-4.1,4.3,9.1,11.9,8.7,11.9,8.7h23.7s7.5.3,11.9-8.7c0,0-4.4,5.2-13.4,4.1Z" fill="#0fc6c2"/>
</svg>