<svg xmlns="http://www.w3.org/2000/svg" viewBox="0 0 128 128"><path d="M127.4,90.8c0,20.6-16.7,37.2-37.3,37.2-20.6,0-37.2-16.7-37.2-37.3,0-4.8,1-9.6,2.8-14-14.3,11.8-35.5,9.8-47.3-4.6C-3.5,57.7-1.5,36.6,12.9,24.8c8.3-6.9,19.5-9.3,29.9-6.6,7.3-15.7,25.8-22.5,41.5-15.3,15.7,7.3,22.5,25.8,15.3,41.5-1.6,3.4-3.8,6.6-6.5,9.2,19.3,1.6,34.2,17.7,34.2,37.1h0Z" fill="#bc2b31"/><path d="M89.6,58.4c17.9,0,32.3,14.5,32.3,32.4,0,17.9-14.5,32.3-32.4,32.3-17.8,0-32.3-14.5-32.3-32.3,0-17.9,14.5-32.3,32.4-32.3,0,0,0,0,0,0ZM71,58c-3,0-6-.5-8.9-1.5-3.3,15.5-18.5,25.4-34.1,22.1-15.5-3.3-25.4-18.5-22.1-34.1,3.3-15.5,18.5-25.4,34.1-22.1,2,.4,3.9,1,5.7,1.8,4.1-14,18.7-22.1,32.7-18,14,4.1,22.1,18.7,18,32.7-3.3,11.3-13.6,19-25.4,19h0Z" fill="#fff"/><path d="M89.7,121.7c-17,0-30.7-13.8-30.7-30.7,0-17,13.8-30.7,30.7-30.7,16.9,0,30.7,13.8,30.7,30.7,0,17-13.7,30.7-30.7,30.7,0,0,0,0,0,0h0ZM70.4,56.1c-4,0-7.9-1-11.4-2.9-1.4,14.1-14,24.4-28.1,22.9-14.1-1.4-24.4-14-22.9-28.1s14-24.4,28.1-22.9c3.7.4,7.2,1.5,10.3,3.4,1.8-13.3,14.1-22.5,27.3-20.7,13.3,1.8,22.5,14.1,20.7,27.3-1.7,12-11.9,20.9-24,20.9Z" fill="#e79193"/><path d="M32.7,29.8c11.9,0,21.5,9.6,21.5,21.5,0,11.9-9.6,21.5-21.5,21.5-11.9,0-21.5-9.6-21.5-21.5,0,0,0,0,0,0,0-11.8,9.6-21.5,21.5-21.5ZM89.6,63.4c15.5,0,28,12.5,28,28,0,15.5-12.5,28-28,28-15.5,0-28-12.5-28-28,0,0,0,0,0,0,0-15.5,12.5-28,28-28ZM71.1,12c10.9,0,19.7,8.8,19.7,19.7,0,10.9-8.8,19.7-19.7,19.7-10.9,0-19.7-8.8-19.7-19.7h0c0-10.9,8.8-19.7,19.7-19.7h0Z" fill="#fff"/></svg>