<svg xmlns="http://www.w3.org/2000/svg" viewBox="0 0 100 100">
  <path d="M24.8,0C11.1,0,0,11.1,0,24.8v50.4c0,13.7,11.1,24.8,24.8,24.8h50.4c13.7,0,24.8-11.1,24.8-24.8V24.8C100,11.1,88.9,0,75.2,0H24.8ZM26.6,52.9c.7,0,1.4,0,2,.1.7,0,1.3.2,2,.3.7.1,1.3.3,2,.5.6.2,1.3.4,1.9.7.6.3,1.2.6,1.8.9.6.3,1.2.7,1.7,1.1.6.4,1.1.8,1.6,1.2.5.4,1,.9,1.5,1.4.5.5.9,1,1.3,1.5.4.5.8,1.1,1.2,1.7.4.6.7,1.2,1,1.8.3.6.6,1.2.8,1.9.2.6.5,1.3.6,1.9.2.7.3,1.3.4,2,.1.7.2,1.3.2,2,0,.5,0,1,0,1.4,0,.7,0,1.4-.1,2,0,.7-.2,1.3-.3,2-.1.7-.3,1.3-.5,2-.2.6-.4,1.3-.7,1.9-.3.6-.6,1.2-.9,1.8-.3.6-.7,1.2-1.1,1.7-.4.6-.8,1.1-1.2,1.6-.4.5-.9,1-1.4,1.5-.5.5-1,.9-1.5,1.3-.5.4-1.1.8-1.7,1.2-.6.4-1.2.7-1.8,1-.6.3-1.2.6-1.9.8-.6.2-1.3.5-1.9.6-.7.2-1.3.3-2,.4-.7.1-1.3.2-2,.2-.5,0-1,0-1.4,0-.7,0-1.4,0-2-.1-.7,0-1.3-.2-2-.3-.7-.1-1.3-.3-2-.5-.6-.2-1.3-.4-1.9-.7-.6-.3-1.2-.6-1.8-.9-.6-.3-1.2-.7-1.7-1.1-.6-.4-1.1-.8-1.6-1.2-.5-.4-1-.9-1.5-1.4-.5-.5-.9-1-1.3-1.5-.4-.5-.8-1.1-1.2-1.7-.4-.6-.7-1.2-1-1.8-.3-.6-.6-1.2-.8-1.9-.2-.6-.5-1.3-.6-1.9-.2-.7-.3-1.3-.4-2-.1-.7-.2-1.3-.2-2,0-.5,0-1,0-1.4,0-.7,0-1.4.1-2,0-.7.2-1.3.3-2,.1-.7.3-1.3.5-2,.2-.6.4-1.3.7-1.9.3-.6.6-1.2.9-1.8.3-.6.7-1.2,1.1-1.7.4-.6.8-1.1,1.2-1.6.4-.5.9-1,1.4-1.5.5-.5,1-.9,1.5-1.3.5-.4,1.1-.8,1.7-1.2.6-.4,1.2-.7,1.8-1,.6-.3,1.2-.6,1.9-.8.6-.2,1.3-.5,1.9-.6.7-.2,1.3-.3,2-.4.7-.1,1.3-.2,2-.2.5,0,1,0,1.4,0h0ZM73.5,52.9c.7,0,1.4,0,2,.1.7,0,1.3.2,2,.3.7.1,1.3.3,2,.5.6.2,1.3.4,1.9.7.6.3,1.2.6,1.8.9.6.3,1.2.7,1.7,1.1.6.4,1.1.8,1.6,1.2.5.4,1,.9,1.5,1.4.5.5.9,1,1.3,1.5.4.5.8,1.1,1.2,1.7.4.6.7,1.2,1,1.8.3.6.6,1.2.8,1.9.2.6.5,1.3.6,1.9.2.7.3,1.3.4,2,.1.7.2,1.3.2,2,0,.5,0,1,0,1.4,0,.7,0,1.4-.1,2,0,.7-.2,1.3-.3,2-.1.7-.3,1.3-.5,2-.2.6-.4,1.3-.7,1.9-.3.6-.6,1.2-.9,1.8-.3.6-.7,1.2-1.1,1.7-.4.6-.8,1.1-1.2,1.6-.4.5-.9,1-1.4,1.5-.5.5-1,.9-1.5,1.3-.5.4-1.1.8-1.7,1.2-.6.4-1.2.7-1.8,1-.6.3-1.2.6-1.9.8-.6.2-1.3.5-1.9.6-.7.2-1.3.3-2,.4-.7.1-1.3.2-2,.2-.5,0-1,0-1.4,0-.7,0-1.4,0-2-.1-.7,0-1.3-.2-2-.3-.7-.1-1.3-.3-2-.5-.6-.2-1.3-.4-1.9-.7-.6-.3-1.2-.6-1.8-.9-.6-.3-1.2-.7-1.7-1.1-.6-.4-1.1-.8-1.6-1.2-.5-.4-1-.9-1.5-1.4-.5-.5-.9-1-1.3-1.5-.4-.5-.8-1.1-1.2-1.7-.4-.6-.7-1.2-1-1.8-.3-.6-.6-1.2-.8-1.9-.2-.6-.5-1.3-.6-1.9-.2-.7-.3-1.3-.4-2-.1-.7-.2-1.3-.2-2,0-.5,0-1,0-1.4,0-.7,0-1.4.1-2,0-.7.2-1.3.3-2,.1-.7.3-1.3.5-2,.2-.6.4-1.3.7-1.9.3-.6.6-1.2.9-1.8.3-.6.7-1.2,1.1-1.7.4-.6.8-1.1,1.2-1.6.4-.5.9-1,1.4-1.5.5-.5,1-.9,1.5-1.3.5-.4,1.1-.8,1.7-1.2.6-.4,1.2-.7,1.8-1,.6-.3,1.2-.6,1.9-.8.6-.2,1.3-.5,1.9-.6.7-.2,1.3-.3,2-.4.7-.1,1.3-.2,2-.2.5,0,1,0,1.4,0h0Z" fill="#222"/>
</svg>