<svg xmlns="http://www.w3.org/2000/svg" viewBox="0 0 100 100">
  <defs>
    <linearGradient id="gradient" x1="21.2" y1="85.6" x2="91.7" y2="19.8" gradientTransform="translate(0 100) scale(1 -1)" gradientUnits="userSpaceOnUse">
      <stop offset="0" stop-color="#1b91f3"/>
      <stop offset="1" stop-color="#0b68cb"/>
    </linearGradient>
    <radialGradient id="gradient_2" cx="16.9" cy="81.9" fx="16.9" fy="81.9" r=".1" gradientTransform="translate(-23282.7 4709.7) rotate(66.5) scale(296 -283.5)" gradientUnits="userSpaceOnUse">
      <stop offset=".5" stop-color="#0b4186" stop-opacity="0"/>
      <stop offset="1" stop-color="#0b4186" stop-opacity=".4"/>
    </radialGradient>
    <radialGradient id="gradient_3" cx="23.7" cy="83.5" fx="23.7" fy="83.5" r=".1" gradientTransform="translate(7868.3 -4177.3) rotate(-128) scale(63.3 -104.7)" gradientUnits="userSpaceOnUse">
      <stop offset="0" stop-color="#ef3acc" stop-opacity="0"/>
      <stop offset="1" stop-color="#ef3acc" stop-opacity=".6"/>
    </radialGradient>
    <linearGradient id="gradient_4" x1="38.5" y1="63.2" x2="63.8" y2="91.5" gradientTransform="translate(0 100) scale(1 -1)" gradientUnits="userSpaceOnUse">
      <stop offset="0" stop-color="#0f5db0"/>
      <stop offset="1" stop-color="#0f5db0" stop-opacity="0"/>
    </linearGradient>
    <radialGradient id="gradient_5" cx="18.7" cy="82.7" fx="18.7" fy="82.7" r=".1" gradientTransform="translate(38780.9 28365) rotate(-64.3) scale(461.7 -570.4)" gradientUnits="userSpaceOnUse">
      <stop offset="0" stop-color="#094188"/>
      <stop offset="1" stop-color="#0b4186" stop-opacity="0"/>
    </radialGradient>
    <linearGradient id="gradient_6" x1="68.4" y1="49.4" x2="56.6" y2="20.5" gradientTransform="translate(0 100) scale(1 -1)" gradientUnits="userSpaceOnUse">
      <stop offset="0" stop-color="#e247c4" stop-opacity="0"/>
      <stop offset="1" stop-color="#e247c4" stop-opacity=".6"/>
    </linearGradient>
    <linearGradient id="gradient_7" x1="9.9" y1="70.5" x2="20.2" y2="28.7" gradientTransform="translate(0 100) scale(1 -1)" gradientUnits="userSpaceOnUse">
      <stop offset="0" stop-color="#ef3acc"/>
      <stop offset="1" stop-color="#ef3acc" stop-opacity="0"/>
    </linearGradient>
    <linearGradient id="gradient_8" x1="50" y1="64.5" x2="50" y2="22.2" gradientTransform="translate(0 100) scale(1 -1)" gradientUnits="userSpaceOnUse">
      <stop offset="0" stop-color="#fff"/>
      <stop offset=".9" stop-color="#bee1fe"/>
      <stop offset="1" stop-color="#96cefd"/>
    </linearGradient>
    <mask id="mask" x="19.7" y="25.1" width="62.2" height="56.4" maskUnits="userSpaceOnUse">
      <g id="i">
        <path d="M74.6,48.2c0,11.1-11,20.1-24.6,20.1s-1.8-.2-2.2.5c-.4.7.5,1.7,1,2.2,5.3,6,13,6.8,15,7h.3c-17.8,1.8-38.8-9.6-38.8-29.4,0-3.3.9-6.5,2.6-9.3l19.2,17.4c1.4,1.2,3.7,1.2,5,0l19.5-17.7c1.8,2.8,2.8,6,2.8,9.4h0Z" fill="#fff"/>
      </g>
    </mask>
    <linearGradient id="gradient_9" x1="50.8" y1="40.6" x2="50.8" y2="22.8" gradientTransform="translate(0 100) scale(1 -1)" gradientUnits="userSpaceOnUse">
      <stop offset="0" stop-color="#bce0fd"/>
      <stop offset="1" stop-color="#88ccfc"/>
    </linearGradient>
  </defs>
  <g isolation="isolate">
    <g>
      <path d="M41.4,18.5h0c3.1-11,16.9-16.4,30.8-16.4s18.3,3.1,24.3,7.9c-3.5.2-7.1.9-10.4,2.1,4.8,1.8,8.9,4.5,12,7.9-2.3-.4-4.6-.6-7-.5,5.8,8.3,8.8,18.2,8.8,28.4,0,27.6-22.4,50-50,50S0,75.1,0,47.9s.6-8.7,1.7-12.9c.3-.9.7-1.7,1.2-2,.7-.4,1.3.8,1.4,1.1.7,2.7,1.7,5.4,2.9,8-.1-5.7,2.3-10.9,5.7-15.4,2.2-3,4.3-5.8,5.3-13.8,0-.5.6-.9,1.1-.8,7.3,2.4,11.2,14.5,10.6,24.6,4,.6,4-3.6,4-3.6-1.3-4-.4-11.3,7.6-14.6h0Z" fill="url(#gradient)"/>
      <path d="M98.4,35.1c1.2,27.5-21.4,51.2-49,51.2S2.5,66.4.5,41.1C.2,43.5,0,45.8,0,48.2c.2,27.1,23,49.6,50,49.6s50-22.4,50-50-.6-8.7-1.6-12.7h0Z" fill="url(#gradient_2)" isolation="isolate" opacity=".9"/>
      <path d="M48.8,22.2c-.5-1-3-2.4-4.1-2.6,4.1-13.2,25.1-17.2,37.9-14.9,5.3,1,12,3.9,14,5.4-5.9-4.9-14.6-7.9-24.3-7.9-14,0-27.7,5.4-30.8,16.4h0c-8,3.3-8.9,10.6-7.6,14.6,1.2-4.7,7.1-10.5,14.9-10.9h0Z" fill="url(#gradient_3)" isolation="isolate" mix-blend-mode="screen"/>
      <path d="M63.3,13.1c-11.2,2.2-14.9,2.9-18.7,6.5,4.2-11.2,15-13.4,27.8-8.3-3.1.6-6.1,1.2-9.2,1.8h0Z" fill="url(#gradient_4)"/>
      <path d="M2.7,33.4c-3.1,12.6-.7,27.3,13.2,39.7-4.1-4.5-9.2-21.3,2-33.3.8-.8,2-.2,2.1.9.9,24.9,21,40.1,44.1,37.2-7.2-.4-30.9-8.7-13.2-12,9.2-1.7,23.7-4.4,23.7-17.4,0-21-16.3-27.2-26.1-26.3-6.7.6-12.8,4.9-14.6,10.7.7,2.3-2.1,3.9-4,3.6.6-10.1-3.3-22.3-10.6-24.6-.5-.2-1,.2-1.1.8-1,8-3,10.8-5.3,13.8-3.4,4.5-5.8,9.7-5.7,15.4-1.2-2.6-2.2-5.2-2.9-8,0-.3-.5-1.2-1.1-1.2-.3,0-.4.3-.5.6h0Z" fill="url(#gradient_5)"/>
      <path d="M44.7,67.3c13.6,11,40.9,2.8,40.9-24-11,16.7-25.1,28.2-40.9,24h0Z" fill="url(#gradient_6)" isolation="isolate" mix-blend-mode="screen"/>
      <path d="M17.9,39.9c.1-.1.3-.2.5-.3.2,0,.4,0,.5,0-10,12.2-1.9,33.6,3.6,38.9.3.9-5.3-3.7-6-4.8-4.2-3.6-10.3-21.3,1.4-33.8Z" fill="url(#gradient_7)" isolation="isolate" mix-blend-mode="screen"/>
      <path d="M50,68.3c13.6,0,24.6-9,24.6-20.1s-11-20.1-24.6-20.1-24.6,7.5-24.6,20.4c0,19.8,20.9,31.2,38.8,29.5-1.3-.2-9.7-.6-15.3-7-.5-.6-1.4-1.6-1-2.2.4-.7,1.5-.5,2.2-.5h0Z" fill="url(#gradient_8)"/>
      <path d="M71.9,39.1l-19.4,18.6c-1.7,1.2-3.6,1.3-5.4.2l-19.1-18.7c.5-.9,1.2-1.7,1.8-2.5l2,1.9c5,4.7,9.1,8.5,14.8,13.3,2.6,2.2,3.4,2.2,5.9,0,6.5-5.6,11.3-9.8,17.5-15.3.7.8,1.3,1.6,1.9,2.5h0Z" fill="#fff" isolation="isolate" opacity=".6"/>
      <g mask="url(#mask)">
        <g>
          <path d="M19.7,25.1h62.2v56.4H19.7V25.1Z" fill="url(#gradient_9)" isolation="isolate" opacity=".7"/>
          <path d="M44.3,56.7c-3.6-3.8-14.5-16.3-14.5-16.3h.8s17,12.7,17,12.7c1.3.9,3.1.9,4.3,0l16.6-12.6h.9c0,0-10.5,12.2-14.5,16.2-4,4-7.1,3.8-10.7,0h0Z" fill="#458fcd" fill-rule="evenodd"/>
        </g>
      </g>
      <path d="M53.4,18.1c2.6-.8,2.4-3.4,2.4-3.4,0,0-1.3-1.5-3.9-.7-2.4.8-2.8,2.5-2.8,2.5,0,0,1.3,2.5,4.3,1.6h0Z" fill="#fff"/>
    </g>
  </g>
</svg>