<svg xmlns="http://www.w3.org/2000/svg" viewBox="0 0 100 100">
  <rect width="100" height="100" fill="#e9500e"/>
  <circle cx="21.8" cy="47.6" r="10.5" fill="#fff"/>
  <circle cx="65.5" cy="24.6" r="10.5" fill="#fff"/>
  <path d="M45.5,74.7c-7.5-1.6-13.9-6.5-17.4-13.3-2.8,1.3-5.9,1.7-9,1.1,4.3,10.5,13.5,18.3,24.6,20.6,2.4.5,4.9.8,7.5.8-1.9-2.5-3-5.6-3.1-8.8-.9,0-1.7-.2-2.6-.4Z" fill="#fff"/>
  <circle cx="63.2" cy="74.7" r="10.5" fill="#fff"/>
  <path d="M77.8,70.9c9.2-11.6,9.9-27.9,1.7-40.3-1.2,2.9-3.3,5.3-5.9,6.9,4.3,8.1,4,17.8-.8,25.6,2.5,2,4.2,4.7,5,7.8Z" fill="#fff"/>
  <path d="M21,32.6c.3,0,.5,0,.8,0,2.8,0,5.6.8,8,2.3,4.7-6.8,12.4-10.9,20.6-11,.2-3.1,1.3-6.1,3.2-8.5-13.3-1-25.9,5.7-32.6,17.3Z" fill="#fff"/>
</svg>