<svg xmlns="http://www.w3.org/2000/svg" viewBox="0 0 100 100">
  <path d="M84.6,46.2l-13.5,52.7c0,.1,0,.3,0,.4.1.4.5.8,1,.7h26.9c.5,0,.9-.3,1-.7,0-.1,0-.3,0-.4l-13.5-52.7c-.2-.5-.7-.8-1.3-.6-.3,0-.5.3-.6.6M10.4,58.1L0,98.8c-.1.5.2,1,.7,1.2,0,0,.2,0,.2,0h20.8c.3,0,.6-.1.8-.3,0-.1.2-.2.2-.4,0-.1,0-.3,0-.4l-10.4-40.7c0-.2-.2-.4-.3-.5-.3-.3-.8-.3-1.2,0-.2.1-.3.3-.3.5h0Z" fill="#00e5e5"/>
  <path d="M28.8,24.4L9.8,98.8c0,.3,0,.6.2.8.2.2.5.4.7.4h38c.5,0,.9-.3,1-.7,0-.1,0-.3,0-.4L30.7,24.4c0-.2-.2-.4-.4-.5-.3-.3-.8-.3-1.2,0-.2.1-.3.3-.4.5" fill="#006eff"/>
  <path d="M61.6.7c0-.2-.2-.4-.3-.5-.3-.3-.8-.3-1.2,0-.2.1-.3.3-.4.5l-26,98.1c-.1.5.2,1,.8,1.2,0,0,.2,0,.2,0h51.9c.5,0,.9-.3,1-.7,0-.1,0-.3,0-.4L61.6.7Z" fill="#006eff"/>
  <path d="M42.5,35.2l-16.5,63.6c0,.3,0,.6.2.8.2.2.5.4.8.4h32.9c.3,0,.6-.1.8-.4.2-.2.3-.5.2-.8l-16.5-63.6c-.1-.4-.5-.7-.9-.7-.4,0-.8.3-.9.7" fill="#00e5e5"/>
</svg>