<svg xmlns="http://www.w3.org/2000/svg" viewBox="0 0 128 128"><path d="M44.2,11.8c-1.1-1.8-3.2-2.9-5.3-2.9H6.7c-3.5,0-6.3,2.8-6.3,6.3,0,1.2.3,2.4,1,3.4l6.6,10.5,42.9-6.7-6.6-10.5Z" fill="#c9f4ff"/><path d="M50.8,22.3c-1.1-1.8-3.2-2.9-5.3-2.9H13.3c-3.5,0-6.3,2.8-6.3,6.3,0,1.2.3,2.4,1,3.4l9.3,14.7,42.9-6.7-9.3-14.7Z" fill="#51b9ff"/><path d="M17.2,43.6c-.6-1-1-2.2-1-3.4,0-3.5,2.8-6.3,6.3-6.3h32.2c2.2,0,4.2,1.1,5.3,2.9l28.8,45.7c1.3,2.1,1.3,4.7,0,6.7l-16.1,25.6c-1.9,2.9-5.7,3.8-8.7,2-.8-.5-1.5-1.2-2-2L17.2,43.6Z" fill="#007bfc"/><path d="M98.5,57.3c1.8,2.9,5.7,3.9,8.7,2,.8-.5,1.5-1.2,2-2l5.5-8.8,10.6-16.8c1.3-2.1,1.3-4.7,0-6.7l-8.4-13.3c-1.1-1.8-3.2-2.9-5.3-2.9h-32.2c-3.5,0-6.3,2.8-6.3,6.3,0,1.2.3,2.4,1,3.4l24.5,38.8Z" fill="#007bfc"/></svg>