<svg xmlns="http://www.w3.org/2000/svg" viewBox="0 0 100 100">
  <path d="M85.8,62c0,13-10.5,23.5-23.5,23.5h-24.5c-13,0-23.5-10.5-23.5-23.5v-8.4H0v9.6c0,20.1,16.3,36.4,36.4,36.4h27.2c20.1,0,36.4-16.3,36.4-36.4v-9.6h-14.2v8.4h0ZM14.2,38c0-13,10.5-23.5,23.5-23.5h24.5c13,0,23.5,10.5,23.5,23.5v8.6h14.2v-9.9C100,16.6,83.7.3,63.6.3h-27.2c-20.1,0-36.4,16.3-36.4,36.4v9.9h14.2v-8.6h0Z" fill="#f09"/>
  <path d="M64.1,21.8v39.4c0,1.9-1.5,3.4-3.4,3.4s-3.4-1.5-3.4-3.4v-14.5h-14.7v14.5c0,1.9-1.5,3.4-3.4,3.4s-3.4-1.5-3.4-3.4V21.8c-8.2,1.4-14.5,8.5-14.5,17.2v22.2c0,9.6,7.8,17.4,17.4,17.4h1.2c2.4,0,4.6-.5,6.6-1.3,1.2-.5,2.3-1.1,3.4-1.9,1.1.7,2.2,1.4,3.4,1.9,2,.8,4.3,1.3,6.6,1.3h1.2c9.6,0,17.4-7.8,17.4-17.4v-22.2c0-8.6-6.2-15.8-14.5-17.2h0Z" fill="#f09"/>
</svg>