<svg xmlns="http://www.w3.org/2000/svg" viewBox="0 0 100 100">
  <path d="M46.9.8c1.9-1.1,4.3-1.1,6.2,0l39.3,22c1.9,1.1,3.1,3,3.1,5.2v44c0,2.1-1.2,4.1-3.1,5.2l-39.3,22c-1.9,1.1-4.3,1.1-6.2,0L7.6,77.2c-1.9-1-3.1-3-3.1-5.2V28c0-2.1,1.2-4.1,3.1-5.2L46.9.8h0ZM80.6,63.7v-30.9l-30.6,17.2v34.3s27.5-15.4,27.5-15.4c1.9-1,3.1-3,3.1-5.2h0ZM53.1,17.4c-1.9-1.1-4.3-1.1-6.2,0l-24.4,13.7c-1.9,1.1-3.1,3-3.1,5.2v27.4c0,2.1,1.2,4.1,3.1,5.2l12.7,7.1v-30.2c0,1.3.4,2.5,1,3.6-.7-1.1-1-2.5-1-3.8v-.4s.1-.7.1-.7v-.4c0,0,.2-.3.2-.3l.2-.5.3-.6.2-.3.4-.6.4-.6.4-.4.4-.3.6-.5.3-.2.6-.3,26.7-15-12.7-7.1h0Z" fill="#0f61ce"/>
  <path d="M50,45.9c0-4-3.3-7.2-7.4-7.2-1.4,0-2.7.4-3.9,1.1-.1,0-.3.2-.4.2-.2.1-.4.3-.6.4-.1,0-.2.2-.3.3l-.2.2-.3.3c0,0-.1.1-.2.2-.1.2-.3.4-.4.6l-.2.3c-.1.2-.2.4-.3.6l-.2.4c0,0,0,.2-.1.3,0,.1,0,.3-.1.4v.3c-.1.2-.2.5-.2.7,0,.1,0,.2,0,.3-.1,1.5.2,3,1,4.2,1.4,2.3,3.9,3.6,6.4,3.6s2.5-.3,3.7-1l3.7-2.1v-4.2h0Z" fill="#012f8d"/>
</svg>