<svg xmlns="http://www.w3.org/2000/svg" viewBox="0 0 100 100">
  <path d="M89.3,0H10.7c-2.2,0-4,1.8-4,4v92c0,2.2,1.8,4,4,4h78.5c2.2,0,4-1.8,4-4V4c0-2.2-1.8-4-4-4ZM13.9,96.8c-2.2,0-4-1.8-4-4s1.8-4,4-4,4,1.8,4,4-1.8,4-4,4ZM13.9,11.2c-2.2,0-4-1.8-4-4s1.8-4,4-4,4,1.8,4,4-1.8,4-4,4ZM50,79c-16,0-29-13-29-29s13-29,29-29,29,13,29,29-13,29-29,29ZM86.1,96.8c-2.2,0-4-1.8-4-4s1.8-4,4-4,4,1.8,4,4-1.8,4-4,4ZM86.1,11.2c-2.2,0-4-1.8-4-4s1.8-4,4-4,4,1.8,4,4-1.8,4-4,4ZM57,50c0,3.9-3.2,7-7,7s-7-3.2-7-7,3.2-7,7-7,7,3.2,7,7Z" fill="#04aeda"/>
</svg>