<svg xmlns="http://www.w3.org/2000/svg" viewBox="0 0 100 100">
  <defs>
    <linearGradient id="_gradient" x1="50" y1="1812.2" x2="50" y2="-231.5" gradientUnits="userSpaceOnUse">
      <stop offset="0" stop-color="#005cb8"/>
      <stop offset="1" stop-color="#003699"/>
    </linearGradient>
  </defs>
  <path d="M14.3,84.6c1.8,1.8,3.7,3.4,5.6,4.9h60.2c2-1.5,3.9-3.1,5.6-4.9H14.3ZM33.7,51.1l16.1-17.3,18.5,17.7,13.3-17.7h15.7C90.5,14.4,71.9.5,50,.5h0C28.1.5,9.4,14.4,2.7,33.8h17.5l13.5,17.3h0ZM94.9,71.8c3.2-6.6,5.1-13.9,5.1-21.7s-.1-3.7-.3-5.5h-14.2l-16.5,22.9-18.9-20-17.3,20-17.7-22.9H.3c-.2,1.8-.3,3.6-.3,5.5,0,7.8,1.9,15.1,5.1,21.7,0,0,89.8,0,89.8,0ZM26,93.5c7.1,3.9,15.3,6.1,23.9,6.1h0c8.6,0,16.8-2.2,24-6.1H26ZM7.3,75.7c1.1,1.7,2.2,3.4,3.5,4.9h78.5c1.3-1.5,2.4-3.2,3.5-4.9,0,0-85.5,0-85.5,0Z" fill="url(#_gradient)"/>
</svg>