<svg xmlns="http://www.w3.org/2000/svg" viewBox="0 0 100 100">
  <path d="M50,3c9.4,0,18.6,2.8,26.3,8.1,7.6,5.1,13.5,12.3,17.1,20.7,6.2,14.6,4.6,31.4-4.4,44.5-5.1,7.6-12.3,13.5-20.7,17.1-14.7,6.2-31.4,4.5-44.5-4.4-7.6-5.1-13.5-12.3-17.1-20.7C.5,53.6,2.2,36.9,11,23.8c5.1-7.6,12.3-13.5,20.7-17.1,5.7-2.5,12-3.7,18.2-3.7ZM50,0C22.4,0,0,22.4,0,50s22.4,50,50,50,50-22.4,50-50S77.6,0,50,0Z"/>
  <path d="M8.4,50c0,16,9.1,30.6,23.5,37.5L12,33c-2.4,5.3-3.6,11.1-3.6,16.9ZM78.2,47.9c0-5.2-1.9-8.7-3.5-11.5-1.6-2.8-4.1-6.4-4.1-9.8s2.9-7.4,7-7.4h.6c-17-15.6-43.3-14.4-58.9,2.6-1.5,1.7-2.9,3.4-4.1,5.3h2.7c4.4,0,11.1-.6,11.1-.6,2.3-.1,2.5,3.2.3,3.5,0,0-2.3.3-4.8.4l15.1,45.1,9.1-27.4-6.5-17.8c-2.3-.1-4.4-.4-4.4-.4-2.2-.1-2-3.6.3-3.5,0,0,6.9.6,11,.6s11.1-.6,11.1-.6c2.3-.1,2.5,3.2.2,3.5,0,0-2.2.3-4.8.4l15.1,44.8,4.3-13.6c1.9-6,3.1-10.2,3.1-13.8h0ZM50.7,53.6l-12.5,36.4c8.4,2.5,17.4,2.3,25.6-.6l-.3-.6-12.8-35.2ZM86.6,30c.2,1.4.3,2.9.3,4.3,0,4.2-.8,9-3.2,14.9l-12.8,36.8c19.5-11.4,26.5-36.2,15.6-56Z"/>
</svg>