<svg xmlns="http://www.w3.org/2000/svg" viewBox="0 0 100 100">
  <path d="M32.1,59v19.6c0,1.1-.9,2-2,2s-2-.9-2-2v-19.6c0-1.1.9-2,2-2s2,.9,2,2ZM2,65.9c-1.1,0-2,.9-2,2v10.7c0,1.1.9,2,2,2s2-.9,2-2v-10.7c0-1.1-.9-2-2-2ZM24,58.8s0,0,0,0c0,0,0,0,0-.1,0,0,0,0,0,0,0,0,0,0,0,0,0,0,0,0,0,0,0,0,0,0,0,0,0,0,0,0,0,0,0,0,0,0,0,0,0,0,0,0,0,0,0,0,0,0,0,0,0,0,0,0,0,0,0,0,0,0,0,0,0,0,0,0-.1-.1,0,0,0,0-.1-.1,0,0,0,0,0,0,0,0,0,0,0,0,0,0,0,0,0,0,0,0,0,0,0,0,0,0,0,0,0,0,0,0,0,0,0,0,0,0,0,0,0,0,0,0,0,0,0,0,0,0,0,0,0,0,0,0,0,0-.1,0,0,0,0,0,0,0,0,0,0,0,0,0,0,0-.1,0-.2,0h0c0,0-.1,0-.2,0,0,0,0,0,0,0,0,0,0,0,0,0,0,0,0,0-.1,0,0,0,0,0,0,0,0,0,0,0-.1,0,0,0,0,0,0,0,0,0,0,0,0,0,0,0,0,0,0,0,0,0,0,0,0,0,0,0,0,0,0,0,0,0,0,0,0,0,0,0,0,0,0,0,0,0,0,0-.1.1l-8.7,8.7-8.7-8.7c-.8-.8-2-.8-2.8,0-.8.8-.8,2,0,2.8l10.1,10.1c.8.8,2,.8,2.8,0l6.7-6.7v14.9c0,1.1.9,2,2,2s2-.9,2-2v-19.6c0,0,0-.1,0-.2h0ZM38.2,65.9c-1.1,0-2,.9-2,2v10.7c0,1.1.9,2,2,2s2-.9,2-2v-10.7c0-1.1-.9-2-2-2ZM60.2,58.8s0,0,0,0c0,0,0,0,0-.1,0,0,0,0,0,0,0,0,0,0,0,0,0,0,0,0,0,0,0,0,0,0,0,0,0,0,0,0,0,0,0,0,0,0,0,0,0,0,0,0,0,0,0,0,0,0,0,0,0,0,0,0,0,0,0,0,0,0,0,0,0,0,0,0-.1-.1,0,0,0,0-.1-.1,0,0,0,0,0,0,0,0,0,0,0,0,0,0,0,0,0,0,0,0,0,0,0,0,0,0,0,0,0,0,0,0,0,0,0,0,0,0,0,0,0,0,0,0,0,0,0,0,0,0,0,0,0,0,0,0,0,0-.1,0,0,0,0,0,0,0,0,0,0,0,0,0,0,0-.1,0-.2,0h0c0,0-.1,0-.2,0,0,0,0,0,0,0,0,0,0,0,0,0,0,0,0,0-.1,0,0,0,0,0,0,0,0,0,0,0-.1,0,0,0,0,0,0,0,0,0,0,0,0,0,0,0,0,0,0,0,0,0,0,0,0,0,0,0,0,0,0,0,0,0,0,0,0,0,0,0,0,0,0,0,0,0,0,0-.1.1l-8.7,8.7-8.7-8.7c-.8-.8-2-.8-2.8,0-.8.8-.8,2,0,2.8l10.1,10.1c.8.8,2,.8,2.8,0l6.7-6.7v14.9c0,1.1.9,2,2,2s2-.9,2-2v-19.6c0,0,0-.1,0-.2ZM13.6,32.2l8.6-10.6h-4.6l-6.3,7.8-6.3-7.8H.3l8.6,10.6h0S0,43.2,0,43.2h4.9l6.3-8.1,6.3,8.1h4.9l-8.9-11h0s0,0,0,0ZM26.3,19.1c-1.5,0-2.5,1.1-2.5,2.4s1,2.4,2.5,2.4,2.5-1.1,2.5-2.4-1-2.4-2.5-2.4ZM24.4,43.2h3.9v-17.2h-3.9v17.2ZM46.1,32.8v10.4h-3.9v-1.7c-1.1,1.3-2.9,2.1-5.5,2.1s-5.4-.7-5.8-4.9c-.4-4,2.8-6.6,9-6.6h2.4c0-2.1-1-3.4-3.6-3.5-2.1,0-3.9.8-5.3,2l-1.5-2.9c2-1.7,5.2-2.7,8.5-2.3,5.4.7,5.8,5.2,5.8,7.5ZM42.2,35.4h-1.9c-4.1,0-5.7,1.3-5.5,2.8.1,1.5,1.5,2.1,3.1,2.1,2.8,0,4.3-2.7,4.3-4.5v-.5h0ZM65.8,34.6c0,5-3.4,9.2-8.7,9.2s-8.7-4.1-8.7-9.2,3.4-9.2,8.7-9.2,8.7,4.1,8.7,9.2ZM61.9,34.6c0-3.6-2.1-5.7-4.8-5.7s-4.8,2.1-4.8,5.7,2.1,5.7,4.8,5.7,4.8-2.1,4.8-5.7ZM95.6,43.2h3.9v-17.2h-3.9v17.2ZM97.5,19.1c-1.5,0-2.5,1.1-2.5,2.4s1,2.4,2.5,2.4,2.5-1.1,2.5-2.4-1-2.4-2.5-2.4ZM86.5,25.3c-2.4,0-4.2,1-5.2,3.1-.9-2.3-2.8-3.1-4.7-3.1s-3.9.8-4.6,2.8v-2h-3.8v17.2h3.9v-10.2c0-1.3.4-4.1,3.1-4.1s3.1,2.8,3.1,4.1v10.2h3.9v-10.2c0-1.3.4-4.1,3.1-4.1s3.1,2.8,3.1,4.1v10.2h3.9v-11.2c0-4.5-2.7-6.8-5.9-6.8h0ZM78.7,76.1c-3.1,1.5-6.9.9-9.4-1.6-2.5-2.5-3.1-6.3-1.6-9.4.4-.8.1-1.8-.6-2.4-1-.7-2.4-.4-2.9.7-2.2,4.5-1.3,10.1,2.4,13.8,3.7,3.7,9.2,4.5,13.8,2.4,1.1-.5,1.5-2,.7-2.9-.6-.7-1.6-1-2.4-.6ZM83.7,60.2c-3.7-3.7-9.2-4.5-13.8-2.4-1.1.5-1.5,2-.7,2.9.6.7,1.6,1,2.4.6,3.1-1.5,6.9-.9,9.4,1.6,2.5,2.5,3.1,6.3,1.6,9.4-.4.8-.1,1.8.6,2.4,1,.7,2.4.4,2.9-.7,2.2-4.5,1.3-10.1-2.4-13.8Z"/>
</svg>