<svg xmlns="http://www.w3.org/2000/svg" viewBox="0 0 100 100">
  <defs>
    <linearGradient id="_gradient" x1="50" y1="80.4" x2="50" y2="21.8" gradientUnits="userSpaceOnUse">
      <stop offset="0" stop-color="#5b95ff"/>
      <stop offset="1" stop-color="#7a75ff"/>
    </linearGradient>
  </defs>
  <path d="M54.8,25.5c-.6.8-.9,1.3-1.3,1.8-2.1,2.6-4.2,5.1-6.3,7.7-.6.8-.9,1.4-.2,2.3,6.1,7.4,12.1,15,18.4,22.3,4.7,5.5,12.6,6.1,18.3,1.9,5.7-4.2,7.6-12,4.2-18-3.5-6.3-11.2-9.1-17.9-6.4-2.8,1.1-5.8,4-6.6,6.5h10.1c2.9,0,3,0,3,3s0,3.6,0,5.3c0,1.5-.6,2.1-2.2,2.2-2.7,0-4.9-.6-6.6-2.7-3.8-4.6-7.5-9.2-11.3-13.9-.9-1.1-.8-2.2.2-3.2,11.8-13.8,33.9-10.6,41.3,5.9,4.5,10.1,1.4,22.5-7.6,29.5-8.4,6.6-21.6,6.8-29.9-.2-3.6-3-6.4-6.8-9.4-10.4-6.1-7.3-12-14.6-18-21.9-1.7-2.1-1.7-2.5,0-4.6,1.5-1.9,3-3.8,4.6-5.6.5-.6,1.3-1.3,1.9-1.4,5-.1,9.9,0,15.2,0ZM54.7,74.5h-8.7c-1.1,0-2.3,0-3.4,0-1.7,0-3-.6-4.1-1.9-3.6-4.4-7.2-8.7-11-13.2-2.4,2.9-4.7,5.7-6.9,8.4-1.3,1.6-2.5,3.4-4,4.8-.8.8-2.1,1.7-3.2,1.7-4.1.2-8.1.1-12.2.1S.5,74.2,0,74.1c3.9-5.1,7.8-10.1,11.7-15.1,1.7-2.3,3.5-4.5,5.3-6.7,1.3-1.6,1.3-2.9,0-4.6-5.1-6.7-10-13.4-15-20.1-.4-.6-.8-1.1-1.5-2.2,2.7,0,4.8,0,7,0,8.8,0,6.4-.5,11.3,5.5,10.8,13.3,21.7,26.5,32.6,39.7.9,1.2,1.9,2.3,3.2,4Z" fill="url(#_gradient)"/>
</svg>