<svg xmlns="http://www.w3.org/2000/svg" viewBox="0 0 100 100">
  <path d="M29.4,6.6c-7.8,7-11.1,20.9-5.3,28.8,6.1,8.4,20,7.3,29,.5,10.1-7.7,25.2-7.5,30.1,4,3.8,9.2.3,20.5-8.8,27-17.9,12.9-44.1,10.5-56.2-6C6.3,44.5,12.6,20.4,29.4,6.6h0Z" fill="#fff"/>
  <path d="M50,2.4C22.4,2.4,0,23.6,0,49.7s22.4,47.4,50,47.4,50-21.2,50-47.4S77.6,2.4,50,2.4ZM74.4,66.9c-17.9,12.9-44.1,10.5-56.2-6C6.3,44.5,12.6,20.4,29.4,6.6c-7.8,7-11.1,20.9-5.3,28.8,6.1,8.4,20,7.3,29,.5,10.1-7.7,25.2-7.5,30.1,4,3.8,9.2.3,20.5-8.8,27h0Z" fill="#00cc70"/>
  <path d="M61.6,61.8c-.9,0-1.7-.4-2.2-1.1l-4.3-5.7c-.7-1-.7-2.4,0-3.4l4.3-5.5c.9-1.2,2.7-1.4,3.9-.5,1.2.9,1.4,2.7.5,3.9l-3,3.9,3,4c.9,1.2.7,3-.6,3.9-.5.4-1.1.5-1.7.5h0Z"/>
  <path d="M45.3,53.5c0,7.5-1.5,8.9-4.8,8.9s-4.8-1.4-4.8-8.9,1.5-8.9,4.8-8.9,4.8,1.4,4.8,8.9Z"/>
</svg>