<svg xmlns="http://www.w3.org/2000/svg" viewBox="0 0 100 100">
  <path d="M88.6,20.6L56.3,1.7c-3.9-2.3-8.7-2.3-12.6,0L11.4,20.6c-3.9,2.3-6.3,6.4-6.3,10.8v37.4c0,4.5,2.4,8.7,6.3,10.8l32.3,18.7c3.9,2.3,8.7,2.3,12.6,0l32.3-18.7c3.9-2.3,6.3-6.4,6.3-10.8V31.3c0-4.4-2.4-8.6-6.3-10.7ZM70.5,23.5c3.3,0,6,2.6,6,6s-.6,2.6-1.4,3.8l-.3.5c-.1.3-.1.1-.3.3l-8.6,8.6h0c0-.1-22.1,22-22.1,22h26.5c3.3,0,6,2.5,6,5.8s-2.6,6-6,6H29.6c-3.3,0-6-2.6-6-6s.6-3.1,1.8-4.2l30.7-30.7h-26.4c-3.3,0-6-2.6-6-6s2.6-6,6-6" fill="#3372e3"/>
</svg>