<svg xmlns="http://www.w3.org/2000/svg" viewBox="0 0 128 128"><path d="M0,36.2s6.8,2.4,14.8,17c11,19,11.4,42.4,42,47.2,44.3,2.4,40.9-39.6,40.9-39.6,0,0,1.8,33.4-39.4,33.6-29.6-2.6-29.5-35.5-42.3-50.6,15.9-2.4,27.6-11.7,27.6-11.7,0,0-13.2,4.5-25,5.6-9.7.9-18.5-1.5-18.5-1.5h0ZM128,91.7s-6.8-2.4-14.8-17c-11-18.9-11.4-42.3-42-47.1-44.2-2.3-40.9,39.6-40.9,39.6,0,0-1.7-33.4,39.4-33.5,29.6,2.6,29.5,35.4,42.3,50.5-15.9,2.4-27.6,11.7-27.6,11.7,0,0,13.1-4.5,25-5.6,9.7-1,18.5,1.5,18.5,1.5ZM63.6,48.6c-8.4,0-15.2,6.8-15.2,15.2s6.8,15.2,15.2,15.2,15.2-6.8,15.2-15.2c0-8.4-6.9-15.2-15.2-15.2ZM63.6,72.8c-5,0-9-4-9-9s4-9,9-9,9,4,9,9c0,5-4.1,9-9,9Z"/></svg>